<svg width="656.08" height="356.17" xmlns="http://www.w3.org/2000/svg">

 <title>Kontejnernije</title>
 <g>
  <title>background</title>
  <rect fill="none" id="canvas_background" height="402" width="582" y="-1" x="-1"/>
 </g>
 <g>
  <title>Layer 1</title>
  <path stroke="#68ceff" fill="#68ceff" id="svg_1" d="m495.68,299l-226.85,0a6.67,6.67 0 1 0 0,13.34l225,0a44.41,44.41 0 1 0 1.85,-13.34zm42.62,-18.48a31.14,31.14 0 1 1 -31.14,31.14a31.18,31.18 0 0 1 31.14,-31.1l0,-0.04z" class="cls-1"/>
  <path stroke="#68ceff" fill="#68ceff" id="svg_2" d="m203.94,267.23a44.53,44.53 0 0 0 -42.62,31.77l-14.56,0a6.67,6.67 0 0 0 0,13.34l12.73,0a44.47,44.47 0 1 0 44.45,-45.15l0,0.04zm0,75.57a31.14,31.14 0 1 1 31.15,-31.14a31.18,31.18 0 0 1 -31.15,31.18l0,-0.04z" class="cls-1"/>
  <path stroke="#68ceff" fill="#68ceff" id="svg_3" d="m87.11,267.23a44.47,44.47 0 1 0 44.49,44.47a44.52,44.52 0 0 0 -44.49,-44.47zm0,75.61a31.14,31.14 0 1 1 31.15,-31.14a31.18,31.18 0 0 1 -31.15,31.14z" class="cls-1"/>
  <path stroke="#68ceff" fill="#68ceff" id="svg_4" d="m585.54,54.44l-121.35,0a25.86,25.86 0 0 0 -25.84,25.83l0,177.18l-184.35,0a6.67,6.67 0 1 0 0,13.33l191,0a6.66,6.66 0 0 0 6.66,-6.67l0,-183.84a12.52,12.52 0 0 1 12.51,-12.5l121.37,0a57.28,57.28 0 0 1 57.21,57.23l0,116.85l-20.52,0a6.67,6.67 0 0 0 0,13.33l20.52,0l0,37.76a6.11,6.11 0 0 1 -6.11,6.1l-34.64,0a6.67,6.67 0 0 0 0,13.34l34.69,0a19.46,19.46 0 0 0 19.44,-19.44l0,-167.94a70.62,70.62 0 0 0 -70.59,-70.56z" class="cls-1"/>
  <path stroke="#68ceff" fill="#68ceff" id="svg_5" d="m539.55,113.56l79,0a6.67,6.67 0 0 0 0,-13.33l-79,0a19.46,19.46 0 0 0 -19.44,19.44l0,34.77c0,9.95 7.46,20 16.68,22.74l90.12,31.82a6.67,6.67 0 1 0 4.44,-12.57l-90.43,-31.93c-3.91,-1.18 -7.48,-6 -7.48,-10.07l0,-34.76a6.12,6.12 0 0 1 6.11,-6.11z" class="cls-1"/>
  <path stroke="#68ceff" fill="#68ceff" id="svg_6" d="m17.86,245.6l378.24,0a6.67,6.67 0 0 0 6.67,-6.67l0,-232.26a6.66,6.66 0 0 0 -6.67,-6.67l-378.24,0a6.66,6.66 0 0 0 -6.66,6.67l0,232.26a6.67,6.67 0 0 0 6.66,6.67zm6.67,-232.27l364.91,0l0,218.93l-364.91,0l0,-218.93z" class="cls-1"/>
  <path stroke="#68ceff" fill="#68ceff" id="svg_7" d="m344.46,33a6.67,6.67 0 0 0 -6.67,6.67l0,166.33a6.67,6.67 0 0 0 13.33,0l0,-166.35a6.66,6.66 0 0 0 -6.66,-6.65z" class="cls-1"/>
  <path stroke="#68ceff" fill="#68ceff" id="svg_8" d="m289.46,33a6.66,6.66 0 0 0 -6.66,6.67l0,166.33a6.67,6.67 0 0 0 13.33,0l0,-166.35a6.67,6.67 0 0 0 -6.67,-6.65z" class="cls-1"/>
  <path stroke="#68ceff" fill="#68ceff" id="svg_9" d="m234.47,33a6.66,6.66 0 0 0 -6.66,6.67l0,166.33a6.67,6.67 0 0 0 13.33,0l0,-166.35a6.67,6.67 0 0 0 -6.67,-6.65z" class="cls-1"/>
  <path stroke="#68ceff" fill="#68ceff" id="svg_10" d="m179.49,33a6.66,6.66 0 0 0 -6.67,6.67l0,166.33a6.67,6.67 0 0 0 13.33,0l0,-166.35a6.66,6.66 0 0 0 -6.66,-6.65z" class="cls-1"/>
  <path stroke="#68ceff" fill="#68ceff" id="svg_11" d="m124.5,33a6.67,6.67 0 0 0 -6.67,6.67l0,166.33a6.67,6.67 0 0 0 13.34,0l0,-166.35a6.67,6.67 0 0 0 -6.67,-6.65z" class="cls-1"/>
  <path stroke="#68ceff" fill="#68ceff" id="svg_12" d="m69.51,33a6.66,6.66 0 0 0 -6.67,6.67l0,166.33a6.67,6.67 0 0 0 13.33,0l0,-166.35a6.66,6.66 0 0 0 -6.66,-6.65z" class="cls-1"/>
  <path stroke="#68ceff" fill="#68ceff" id="svg_13" d="m6.67,312.38l15.48,0a6.67,6.67 0 0 0 0,-13.34l-8.82,0l0,-33.83a6.67,6.67 0 1 0 -13.33,0l0,40.5a6.67,6.67 0 0 0 6.67,6.67z" class="cls-1"/>
 </g>
</svg>