<svg width="80" height="82" viewBox="0 0 80 82" fill="none" xmlns="http://www.w3.org/2000/svg">
<path d="M0.617852 0.464872L0.0583452 0.929323L0.0244357 37.669C-0.0264285 74.1524 -0.0264285 74.3926 0.312667 74.9211C0.499169 75.2094 0.855219 75.5137 1.09259 75.5938C1.36386 75.6899 8.04403 75.7539 18.9629 75.7539H36.4093L36.4602 78.4125L36.5111 81.0711L37.0706 81.5355L37.6131 82H56.5177H75.4222L75.9648 81.5355L76.5243 81.0711L76.5751 66.6411L76.6091 52.2111H77.7281C78.9997 52.2111 79.5422 51.9548 79.8135 51.2181C79.9322 50.9138 80 49.1041 80 46.4935C80 43.1463 79.9491 42.1533 79.7457 41.7049C79.2879 40.6799 79.3049 40.6799 69.9967 40.6799H61.6889V20.9808C61.6889 6.07031 61.638 1.20159 61.4854 0.881276C61.0446 -0.0476251 62.9435 0.000421524 30.7634 0.000421524H1.1604L0.617852 0.464872ZM58.2979 21.9417V40.6799H46.5144C33.3914 40.6799 33.7474 40.6479 33.2897 41.7049C33.0862 42.1533 33.0353 43.1463 33.0353 46.5096C33.0353 48.8478 33.1032 50.9298 33.1879 51.138C33.527 51.9548 34.0187 52.2111 35.2734 52.2111H36.4263V62.381V72.5508H19.8954H3.36452V37.8772V3.20353H30.8312H58.2979V21.9417ZM76.5751 46.4775L76.626 49.008H56.5177H36.4263V46.5576C36.4263 45.1963 36.4772 44.0432 36.545 43.9951C36.5958 43.9311 45.6327 43.899 56.5855 43.915L76.5243 43.9631L76.5751 46.4775ZM73.1842 65.552L73.2181 78.7969H56.5177H39.8172V65.6161C39.8172 58.3611 39.8681 52.3712 39.9359 52.3232C39.9868 52.2591 47.4977 52.2271 56.5855 52.2431L73.1333 52.2912L73.1842 65.552Z" fill="#282B47"/>
<path d="M11.7062 10.4265C11.3671 10.5226 11.028 10.7788 10.8246 11.0991C10.5024 11.5796 10.4855 11.9319 10.4855 16.8647C10.4855 22.326 10.5194 22.5502 11.2315 23.0948C11.5706 23.351 12.8591 23.3831 30.882 23.3831H50.1935L50.6852 22.9186L51.1769 22.4542V16.9128V11.3714L50.6852 10.8589L50.1935 10.3304L31.2211 10.2984C19.5732 10.2823 12.0453 10.3304 11.7062 10.4265ZM47.7859 16.8167V20.1799H30.8312H13.8764V16.9288C13.8764 15.1351 13.9273 13.6136 13.9951 13.5655C14.046 13.5015 21.6756 13.4534 30.9499 13.4534H47.7859V16.8167Z" fill="#282B47"/>
<path d="M11.6723 31.1827C10.7906 31.487 10.299 32.512 10.655 33.3288C11.0958 34.3217 9.99378 34.2737 31.0007 34.2737H50.1935L50.6852 33.8092C51.516 33.0245 51.2786 31.7592 50.2104 31.2467C49.9392 31.1186 44.5306 31.0706 30.882 31.0866C20.4549 31.0866 11.8079 31.1346 11.6723 31.1827Z" fill="#282B47"/>
<path d="M11.6723 41.4327C10.7737 41.753 10.299 42.762 10.6551 43.5788C11.0789 44.5237 11.1128 44.5237 19.285 44.5237C24.5071 44.5237 26.8808 44.4756 27.169 44.3475C27.7285 44.1073 28.1693 43.2104 28.0337 42.6178C27.9828 42.3616 27.7454 41.9932 27.5081 41.785L27.0673 41.4007L19.5054 41.3686C15.3346 41.3526 11.808 41.3846 11.6723 41.4327Z" fill="#282B47"/>
<path d="M11.6724 51.6826C11.1807 51.8587 10.672 52.4193 10.5703 52.8837C10.2143 54.3732 12.1471 55.3661 13.3509 54.3091C14.046 53.6845 14.0799 52.8997 13.4187 52.2111C12.944 51.7306 12.164 51.4904 11.6724 51.6826Z" fill="#282B47"/>
<path d="M19.3698 51.7306C18.8611 51.9228 18.2847 52.6595 18.2847 53.124C18.2847 53.6365 18.7255 54.4052 19.1155 54.6134C19.5902 54.8377 26.6264 54.8216 27.169 54.5974C27.7285 54.3572 28.1693 53.4603 28.0337 52.8677C27.9828 52.6115 27.7454 52.2431 27.5081 52.0349C27.0842 51.6506 27.0164 51.6506 23.405 51.6185C21.3874 51.6025 19.5563 51.6506 19.3698 51.7306Z" fill="#282B47"/>
<path d="M11.0789 61.8844C10.1973 62.7172 10.4516 64.0305 11.5876 64.479C12.4523 64.8153 26.1517 64.8153 27.0164 64.479C28.1524 64.0305 28.4067 62.7172 27.525 61.8844L27.1181 61.5001H19.302H11.4858L11.0789 61.8844Z" fill="#282B47"/>
<path d="M47.1925 62.4771C46.277 62.9736 46.26 62.9896 46.26 67.9384V72.5508L46.7517 73.0633L47.2434 73.5919L56.755 73.6399C67.233 73.6879 67.1652 73.6879 67.7078 72.711C67.9451 72.2946 67.9621 71.6059 67.9282 67.7462L67.8773 63.2618L67.4026 62.8294L66.9448 62.381L57.2297 62.3489C50.3631 62.3169 47.4299 62.365 47.1925 62.4771ZM64.5372 67.9384L64.4864 70.3887L57.0771 70.4368L49.651 70.4688V67.9864V65.504H57.111H64.5881L64.5372 67.9384Z" fill="#282B47"/>
</svg>
