<svg xmlns="http://www.w3.org/2000/svg" viewBox="0 0 512 512"><defs><style>.cls-1{fill:#68ceff;}</style></defs><title>Mutine-blue</title><g id="Layer_2" data-name="Layer 2"><g id="Layer_1-2" data-name="Layer 1"><g id="Page-1"><g id="_001---Insurance-Document" data-name="001---Insurance-Document"><path id="Shape" class="cls-1" d="M51.2,93.87h51.2a8.54,8.54,0,0,0,0-17.07H51.2a8.54,8.54,0,0,0,0,17.07Z"/><path id="Shape-2" data-name="Shape" class="cls-1" d="M145.07,93.87h76.8a8.54,8.54,0,0,0,0-17.07h-76.8a8.54,8.54,0,1,0,0,17.07Z"/><path id="Shape-3" data-name="Shape" class="cls-1" d="M51.2,187.73H324.27a8.53,8.53,0,1,0,0-17.06H51.2a8.53,8.53,0,1,0,0,17.06Z"/><path id="Shape-4" data-name="Shape" class="cls-1" d="M51.2,221.87H170.67a8.54,8.54,0,0,0,0-17.07H51.2a8.54,8.54,0,0,0,0,17.07Z"/><path id="Shape-5" data-name="Shape" class="cls-1" d="M51.2,290.13H170.67a8.53,8.53,0,1,0,0-17.06H51.2a8.53,8.53,0,1,0,0,17.06Z"/><path id="Shape-6" data-name="Shape" class="cls-1" d="M51.2,358.4H170.67a8.54,8.54,0,0,0,0-17.07H51.2a8.54,8.54,0,0,0,0,17.07Z"/><path id="Shape-7" data-name="Shape" class="cls-1" d="M51.2,426.67H170.67a8.54,8.54,0,0,0,0-17.07H51.2a8.54,8.54,0,0,0,0,17.07Z"/><path id="Shape-8" data-name="Shape" class="cls-1" d="M506.88,248.58l-97.28-42V25.6A25.6,25.6,0,0,0,384,0H59.73a25.6,25.6,0,0,0-25.6,25.6v8.53H25.6A25.6,25.6,0,0,0,0,59.73V486.4A25.6,25.6,0,0,0,25.6,512H349.87a25.57,25.57,0,0,0,18.3-7.79l7,5a15.23,15.23,0,0,0,17.66,0l82.56-58.77A86.89,86.89,0,0,0,512,379.81V256.41A8.53,8.53,0,0,0,506.88,248.58ZM51.2,25.6a8.53,8.53,0,0,1,8.53-8.53H384a8.53,8.53,0,0,1,8.53,8.53V199.19L387.41,197a8.54,8.54,0,0,0-6.76,0l-5.12,2.22V145.07a5.54,5.54,0,0,0-.11-.56,8,8,0,0,0-.41-2.1c-.06-.19-.05-.4-.12-.59s-.14-.18-.18-.29A8.89,8.89,0,0,0,373,139L270.6,36.63a8.39,8.39,0,0,0-2.5-1.7c-.11,0-.19-.14-.29-.18s-.39-.07-.58-.13a8.57,8.57,0,0,0-2.12-.42,3.41,3.41,0,0,1-.58-.07H51.2ZM273.07,63.27l73.26,73.26H281.6a8.53,8.53,0,0,1-8.53-8.53Zm76.8,431.66H25.6a8.53,8.53,0,0,1-8.53-8.53V59.73A8.53,8.53,0,0,1,25.6,51.2H256V128a25.6,25.6,0,0,0,25.6,25.6h76.8v53l-27.47,11.88a8.32,8.32,0,0,0,1.87-5.12,8.53,8.53,0,0,0-8.53-8.53H204.8a8.54,8.54,0,0,0,0,17.07H323l-39.51,17.06H51.2a8.54,8.54,0,0,0,0,17.07H256.06c0,.14-.06.26-.06.41v16.66H204.8a8.53,8.53,0,0,0,0,17.06H256V307.2H51.2a8.54,8.54,0,0,0,0,17.07H256v17.06H204.8a8.54,8.54,0,0,0,0,17.07H256v17.07H51.2a8.53,8.53,0,0,0,0,17.06H257.07a85.77,85.77,0,0,0,4.31,17.07H204.8a8.54,8.54,0,0,0,0,17.07H270a87.48,87.48,0,0,0,14.35,17.06H51.2a8.54,8.54,0,0,0,0,17.07h256l46.49,33.09A8.25,8.25,0,0,1,349.87,494.93ZM494.93,379.81a69.81,69.81,0,0,1-29.43,56.7l-81.5,58-81.5-58a69.8,69.8,0,0,1-29.43-56.69V262.05l15.44-6.67.16-.07L384,214.09,494.93,262Z"/><path id="Shape-9" data-name="Shape" class="cls-1" d="M380.59,234.15,295.25,271a8.55,8.55,0,0,0-5.12,7.83v101a52.74,52.74,0,0,0,22.26,42.79l66.66,47.45a8.53,8.53,0,0,0,9.9,0l66.66-47.45a52.74,52.74,0,0,0,22.26-42.79v-101a8.55,8.55,0,0,0-5.12-7.83l-85.34-36.86A8.52,8.52,0,0,0,380.59,234.15Zm80.21,50.34v95.32a35.63,35.63,0,0,1-15.1,28.94L384,452.63,322.3,408.7a35.63,35.63,0,0,1-15.1-28.89V284.45L384,251.28Z"/><path id="Shape-10" data-name="Shape" class="cls-1" d="M337.92,360.11a8.53,8.53,0,0,0-10.24,13.65l34.13,25.6a8.54,8.54,0,0,0,11.79-1.49l68.26-85.34a8.53,8.53,0,0,0-13.32-10.66l-63.1,78.88Z"/></g></g></g></g></svg>