<svg width="87" height="88" viewBox="0 0 87 88" fill="none" xmlns="http://www.w3.org/2000/svg">
<path d="M85.0882 52.4779L76.0882 48.4779V26.2279C76.1668 25.8626 76.1061 25.481 75.9181 25.1579V25.0879L75.8382 24.9979C75.7351 24.8497 75.6064 24.721 75.4581 24.6179L56.0381 11.7779L55.9081 11.6879L38.7681 0.247941C38.5197 0.0861382 38.2296 0 37.9331 0C37.6367 0 37.3466 0.0861382 37.0981 0.247941L0.898146 24.4079C0.633205 24.5251 0.407566 24.7161 0.248146 24.9579C0.136351 25.1251 0.0600336 25.3134 0.0239128 25.5112C-0.0122079 25.709 -0.0073638 25.9121 0.0381455 26.1079V59.8479C0.036253 60.0957 0.0966055 60.34 0.213667 60.5584C0.330729 60.7768 0.500753 60.9623 0.708146 61.0979L37.4281 85.5479C37.6754 85.7085 37.9633 85.7952 38.2581 85.7979C38.5559 85.7939 38.8467 85.7073 39.0981 85.5479L55.0381 74.9279C55.521 76.8511 56.4318 78.6405 57.7028 80.1625C58.9737 81.6845 60.5719 82.8999 62.3781 83.7179L69.3781 86.8779C69.57 86.9702 69.7802 87.018 69.9931 87.018C70.2061 87.018 70.4162 86.9702 70.6081 86.8779L77.6081 83.7179C79.7589 82.7418 81.6081 81.206 82.9626 79.2711C84.3171 77.3361 85.1271 75.0729 85.3081 72.7179L86.0381 53.9079C86.0424 53.6016 85.9539 53.3012 85.7844 53.046C85.6148 52.7908 85.3722 52.5928 85.0882 52.4779ZM54.8781 52.4779C54.6035 52.6005 54.3714 52.8018 54.2111 53.0564C54.0509 53.3109 53.9698 53.6073 53.9781 53.9079L54.6081 71.5979L39.5381 81.5979V51.1279L73.0381 28.7879V47.2179L70.5581 46.1279C70.3675 46.0439 70.1615 46.0005 69.9531 46.0005C69.7448 46.0005 69.5388 46.0439 69.3481 46.1279L54.8781 52.4779ZM71.8781 25.9479L38.2181 48.4079L21.6581 37.4079L55.1581 14.8179L71.8781 25.9479ZM37.8781 3.29794L52.4081 12.9879L18.9581 35.5779L4.21815 25.7779L37.8781 3.29794ZM3.03815 28.5879L36.5381 50.8879V81.3479L3.03815 59.0479V28.5879ZM82.3281 72.5179C82.1822 74.3376 81.5477 76.0841 80.4916 77.5731C79.4356 79.0621 77.9972 80.2385 76.3281 80.9779L70.0381 83.8679L63.6381 80.9779C61.9877 80.238 60.5654 79.0697 59.5191 77.5943C58.4728 76.1189 57.8406 74.3903 57.6881 72.5879L57.0381 54.8179L70.0381 49.1379L83.0381 54.8179L82.3281 72.5179Z" fill="#282B47"/>
</svg>
