<svg width="80" height="81" viewBox="0 0 80 81" fill="none" xmlns="http://www.w3.org/2000/svg">
<path d="M55.8019 65.131C69.1661 56.3668 72.9253 38.2343 64.1981 24.631C55.471 11.0276 37.5624 7.10474 24.1981 15.8689C10.8339 24.6331 7.07474 42.7656 15.8019 56.3689C24.529 69.9723 42.4376 73.8952 55.8019 65.131Z" fill="white"/>
<path d="M40.2339 69.8938C38.1772 69.8939 36.1047 69.6709 34.0439 69.2195C26.4667 67.56 19.9623 63.0122 15.729 56.414C11.4956 49.8158 10.04 41.9568 11.6302 34.2849C13.2205 26.6128 17.6664 20.0462 24.149 15.7946C30.6317 11.5431 38.3748 10.1156 45.9522 11.7752C53.5294 13.4347 60.0338 17.9824 64.2671 24.5807C68.5005 31.1789 69.9561 39.0379 68.3659 46.7098C66.7756 54.3819 62.3297 60.9485 55.8471 65.2001C51.1275 68.2953 45.7393 69.8938 40.2339 69.8938ZM39.7625 11.2753C34.2896 11.2753 28.9345 12.864 24.2429 15.941C10.9407 24.6651 7.18626 42.7786 15.8737 56.3191C21.4285 64.9769 30.7471 69.7009 40.2216 69.7014C45.5647 69.7017 50.9565 68.1997 55.7532 65.0538C62.1969 60.8277 66.6163 54.3003 68.197 46.674C69.7779 39.0475 68.3308 31.235 64.1224 24.6756C59.914 18.1163 53.4481 13.5954 45.9157 11.9456C43.8676 11.4971 41.8065 11.2753 39.7625 11.2753Z" fill="#282B47"/>
<path d="M27.4602 25.0968C27.0947 25.0968 26.6379 24.9297 26.1698 24.616C25.6916 24.2955 25.1719 23.4518 24.6693 22.636C24.2615 21.9739 23.8762 21.3485 23.5867 21.1349C23.0575 20.7444 22.8553 20.8836 22.4124 21.1884C22.3482 21.2326 22.2799 21.2796 22.2061 21.328C21.7768 21.6096 21.3388 21.5489 21.0943 21.4113C20.9518 21.3312 20.8713 21.2247 20.8734 21.119C20.9072 19.3961 23.7157 17.9862 25.2245 17.2287C26.9816 16.3466 28.2831 16.5144 28.8891 17.7014C29.4966 18.8917 28.0579 21.6657 27.8918 21.978C27.7198 22.3017 27.8739 22.8006 28.023 23.2831C28.1548 23.7102 28.2913 24.1518 28.2171 24.5094C28.1645 24.7634 28.0237 24.9446 27.8099 25.0333C27.7071 25.0759 27.5894 25.0968 27.4602 25.0968ZM23.0344 20.722C23.2177 20.722 23.4235 20.7986 23.6884 20.994C24.005 21.2276 24.3988 21.8669 24.8158 22.5438C25.2857 23.3065 25.8182 24.1711 26.2652 24.4706C26.8421 24.8573 27.409 25.011 27.7444 24.8719C27.9051 24.8052 28.0074 24.6712 28.0484 24.4735C28.1132 24.1604 27.9836 23.7408 27.8583 23.335C27.6987 22.8181 27.5335 22.2836 27.7399 21.8954C28.3265 20.7919 29.1963 18.6836 28.7358 17.7813C28.172 16.6769 26.9843 16.5398 25.3012 17.3848C23.8251 18.1259 21.0776 19.5052 21.0459 21.1224C21.0459 21.1224 21.0459 21.1224 21.0459 21.1224C21.0454 21.1462 21.0809 21.2042 21.1781 21.2588C21.3969 21.3819 21.7706 21.4057 22.1122 21.1817C22.1849 21.134 22.2521 21.0877 22.3153 21.0442C22.5747 20.8656 22.7834 20.722 23.0344 20.722Z" fill="#282B47"/>
<path d="M45.9878 67.7495C45.8979 67.7495 45.809 67.7426 45.7238 67.7289C44.9166 67.5992 42.6954 66.2299 41.5208 65.3442C40.5926 64.6443 38.5758 61.8921 37.2413 60.0709C36.8404 59.5238 36.4942 59.0513 36.2856 58.7839C35.5646 57.8596 35.069 57.9678 33.7443 58.2568C33.5321 58.3031 33.2915 58.3556 33.0296 58.4078C31.1166 58.7893 30.6041 58.2979 29.8129 56.998C29.7413 56.8803 29.6338 56.7359 29.5094 56.5688C28.9733 55.8486 28.1631 54.7601 28.4862 53.5433C28.7737 52.4605 27.8292 50.1802 27.2393 49.349C27.0349 49.0608 27.0264 48.6771 27.2173 48.3476C27.5894 47.7049 28.3686 46.8533 29.9668 46.4456C30.6332 46.2757 31.0786 46.4188 31.5093 46.5571C31.8692 46.6726 32.2415 46.792 32.7593 46.7359C33.1243 46.6965 33.5185 46.5604 33.8997 46.4289C34.6985 46.1532 35.5246 45.868 35.817 46.6887C36.1821 47.7133 37.9036 47.902 40.0033 47.1476C41.2397 46.7035 42.4919 46.8972 43.0486 47.6189C43.4084 48.0852 43.3955 48.6855 43.0133 49.266C42.0497 50.7292 42.3446 51.1401 42.9487 51.7405C43.1766 51.967 43.4607 52.1734 43.7354 52.3729C44.2467 52.7443 44.6883 53.0651 44.6268 53.4247C44.5387 53.9398 43.7679 54.8744 43.4084 55.2462C43.0669 55.5995 42.891 56.3853 43.3117 57.2759C43.7542 58.2126 43.7901 61.3494 43.5782 62.823C43.3883 64.1431 44.1562 64.6626 45.6859 65.6975C45.8113 65.7824 45.9417 65.8705 46.0768 65.9628C46.8228 66.472 47.1291 66.9148 46.987 67.279C46.8646 67.5929 46.4173 67.7494 45.9878 67.7495ZM35.0206 57.8783C35.549 57.8783 35.9524 58.075 36.421 58.6758C36.6312 58.9453 36.9616 59.3962 37.3799 59.967C38.7084 61.78 40.7161 64.5198 41.6239 65.2044C42.7846 66.0796 44.9693 67.4311 45.7509 67.5567C46.1704 67.6242 46.7153 67.5004 46.8266 67.215C46.9318 66.9451 46.6313 66.5517 45.9803 66.1074C45.8454 66.0153 45.7152 65.9272 45.59 65.8425C44.0502 64.8007 43.202 64.2269 43.4075 62.798C43.6165 61.3446 43.5862 58.2619 43.1561 57.3511C42.6973 56.3798 42.8903 55.5328 43.2851 55.1244C43.7143 54.6804 44.3835 53.8237 44.4568 53.395C44.4999 53.143 44.0797 52.8378 43.6347 52.5145C43.3548 52.3112 43.0652 52.1008 42.8278 51.8649C42.1157 51.1572 41.8877 50.6606 42.8697 49.1694C43.213 48.6479 43.2283 48.1354 42.9126 47.7262C42.4941 47.1836 41.4232 46.8226 40.0611 47.312C37.8313 48.1132 36.0604 47.8865 35.6547 46.7479C35.4312 46.1205 34.8633 46.2807 33.9554 46.594C33.5652 46.7287 33.1618 46.8679 32.7776 46.9095C32.2235 46.9694 31.8339 46.8443 31.4571 46.7234C31.0305 46.5864 30.6275 46.4571 30.009 46.6149C28.4687 47.0076 27.7216 47.8219 27.3661 48.4358C27.2102 48.705 27.2153 49.016 27.3795 49.2474C28.0019 50.1246 28.9581 52.4389 28.6528 53.5885C28.3515 54.7232 29.1312 55.7708 29.6472 56.464C29.7743 56.6346 29.884 56.782 29.9598 56.9066C30.7223 58.1594 31.1814 58.5987 32.9963 58.2367C33.2566 58.1848 33.4964 58.1325 33.7079 58.0863C34.2433 57.9694 34.6609 57.8783 35.0206 57.8783Z" fill="#282B47"/>
<path d="M59.926 48.8944C59.8512 48.8944 59.7712 48.8821 59.6863 48.8572C58.5295 48.518 56.4943 45.7101 56.529 43.5445C56.5683 41.0896 54.9567 40.2512 54.2619 40.0047C53.7266 39.8148 52.6092 38.1761 51.7661 36.8349L51.7184 36.7593C51.7081 36.7431 51.6939 36.7161 51.6758 36.6807C51.5628 36.4593 51.298 35.9411 50.678 35.8295C49.9133 35.6918 48.8846 36.2151 47.6217 37.385C46.526 38.3999 45.5005 38.8102 44.5743 38.6044C43.5438 38.3756 42.6703 37.4127 41.9782 35.7424C41.6461 34.9411 41.1598 34.4399 40.7306 33.9976C40.4776 33.7368 40.2385 33.4905 40.0606 33.2131C39.5116 32.3574 40.2017 30.8969 40.8772 29.8223C41.2838 29.1756 41.489 28.5894 41.6875 28.0224C41.8717 27.4964 42.0457 26.9996 42.3625 26.5337C42.8221 25.858 43.3673 26.1353 43.8943 26.4035C44.1827 26.5503 44.4809 26.702 44.8005 26.7418C45.1626 26.7869 45.2686 26.6156 45.4291 26.3564C45.649 26.0014 45.9225 25.5597 46.9536 25.5453C48.1757 25.5283 49.0068 24.6479 49.1837 24.0583C49.2306 23.902 49.2773 23.6176 49.0633 23.4687C48.7954 23.2822 48.5179 23.3439 48.1964 23.4153C47.7755 23.5089 47.2984 23.6149 46.7085 23.2245C46.0604 22.7955 46.2876 22.1088 46.5072 21.4447C46.6533 21.003 46.8044 20.5462 46.6693 20.2035C46.5337 19.8596 46.1386 19.5603 45.5854 19.3823C45.0283 19.2031 44.4209 19.1908 44.1725 19.3537C44.0186 19.4546 44.1691 19.7809 44.3434 20.1588C44.6143 20.7459 44.9852 21.5501 44.4918 22.1974C44.0556 22.7698 43.3123 22.8249 42.5934 22.8783C41.9492 22.9261 41.2831 22.9755 40.8486 23.3971C40.3607 23.8707 40.2885 24.86 40.2122 25.9075C40.1456 26.8191 40.0769 27.7618 39.7241 28.4504C39.4696 28.9471 39.0802 29.1355 38.6561 28.9674C37.9717 28.6962 37.3572 27.5534 37.6155 26.6062C37.9341 25.4374 37.3133 24.5415 36.9797 24.0602C36.9359 23.9969 36.8971 23.9409 36.866 23.8925C36.7791 23.757 36.5904 23.3899 36.7162 22.909C36.8572 22.3702 37.3341 21.8845 38.1337 21.4653C38.7806 21.1262 39.1856 20.7318 39.3046 20.3248C39.4015 19.9938 39.2789 19.77 39.2776 19.7678C38.5218 18.1216 38.0044 17.7603 37.7028 17.7458C37.4805 17.7351 37.3272 17.9166 37.2381 18.0706C37.205 18.1345 37.2221 18.5008 37.2372 18.8241C37.2814 19.7706 37.3419 21.0668 36.7788 21.2892C36.3905 21.4424 35.8066 21.0401 34.9939 20.0591C33.8227 18.6456 33.3727 17.5559 33.6563 16.8201C33.9038 16.1779 34.6152 16.0583 34.687 16.0478C35.9468 15.7424 36.7346 15.2038 37.0287 14.4469C37.4532 13.3543 36.7465 12.0938 36.4229 11.6025C36.4063 11.5773 36.4038 11.5453 36.4163 11.5178C36.4288 11.4903 36.4545 11.4713 36.4842 11.4676C40.6483 10.9506 44.9717 11.3736 48.9871 12.691C53.0448 14.0221 56.8296 16.2825 59.9322 19.2276C59.9412 19.2362 59.9483 19.2465 59.953 19.2581C60.2769 20.055 60.6328 21.2246 60.489 22.271C60.3685 23.148 60.7923 23.6438 61.1661 24.0813C61.4415 24.4034 61.7016 24.7077 61.6417 25.0976C61.6236 25.2153 61.622 25.3602 61.6203 25.5002C61.6164 25.8421 61.6123 26.1955 61.3705 26.2928C61.0899 26.4054 60.4997 26.2028 58.2422 23.8458C55.3594 20.836 53.7123 21.6234 53.138 22.1017C53.1 22.1333 53.1093 22.1743 53.113 22.1862C53.1175 22.2008 53.1332 22.2351 53.179 22.2385C53.7757 22.2826 54.8615 22.4561 55.429 23.1231C55.7021 23.444 55.8226 23.8417 55.7873 24.305C55.653 26.064 56.0786 27.2525 56.9856 27.6516C57.8769 28.0437 58.2705 28.5133 58.6053 29.5841C58.7277 29.9754 58.6783 30.5046 58.626 31.0648C58.5259 32.1381 58.4124 33.3547 59.4798 33.9319C61.2517 34.8899 62.2684 40.7632 61.6106 42.665C61.3043 43.5507 61.1896 44.6083 61.0787 45.6311C60.9506 46.8117 60.8297 47.9268 60.4194 48.606C60.304 48.797 60.1359 48.8944 59.926 48.8944ZM50.4337 35.6339C50.5282 35.6339 50.6197 35.6419 50.7082 35.6578C51.4122 35.7845 51.7151 36.3774 51.8291 36.6006C51.8437 36.6292 51.8547 36.6513 51.8631 36.6644L51.9117 36.7414C53.0659 38.5773 53.9433 39.7068 54.3191 39.8401C55.0491 40.0992 56.7427 40.979 56.7016 43.5473C56.6686 45.6046 58.65 48.3717 59.7344 48.6897C59.9815 48.7622 60.1574 48.7051 60.2722 48.5152C60.6624 47.8692 60.7813 46.7729 60.9072 45.6122C61.0192 44.5797 61.135 43.512 61.4478 42.6075C61.7604 41.7037 61.6937 39.8357 61.2817 37.959C60.8365 35.9306 60.1325 34.4826 59.3985 34.0857C58.2299 33.4537 58.3491 32.1759 58.4543 31.0485C58.5049 30.5064 58.5526 29.9943 58.4408 29.6367C58.0848 28.4982 57.6657 28.1411 56.9167 27.8115C56.3494 27.5619 55.4259 26.7727 55.6153 24.2916C55.647 23.8762 55.5403 23.5213 55.2983 23.2368C54.7714 22.6176 53.7364 22.4545 53.1664 22.4124C53.0633 22.4047 52.9798 22.3383 52.9486 22.239C52.9174 22.1401 52.9487 22.0333 53.0283 21.9671C53.6396 21.4581 55.3834 20.6103 58.3661 23.7245C60.0127 25.4437 61.0025 26.2534 61.3067 26.1307C61.4411 26.0766 61.4447 25.7693 61.4478 25.4982C61.4496 25.352 61.4513 25.2008 61.4713 25.0708C61.5189 24.7607 61.3056 24.5111 61.0357 24.1953C60.6576 23.7529 60.1869 23.2023 60.3182 22.2469C60.4556 21.2466 60.1144 20.1184 59.8005 19.3418C53.5549 13.421 45.1216 10.6125 36.6422 11.6241C37.0017 12.2024 37.6119 13.4227 37.1893 14.5107C36.8731 15.3246 36.0433 15.8992 34.7231 16.2184C34.7203 16.2191 34.7173 16.2196 34.7144 16.22C34.7076 16.221 34.0336 16.3187 33.8165 16.8849C33.6392 17.3469 33.7226 18.2532 35.1261 19.9472C36.0585 21.0727 36.5052 21.2099 36.7161 21.1267C37.1638 20.95 37.1018 19.6244 37.0649 18.8323C37.0413 18.3277 37.0325 18.0807 37.0892 17.9826C37.2491 17.7061 37.4695 17.5605 37.711 17.5717C38.2188 17.5959 38.7975 18.308 39.4309 19.688C39.4342 19.6933 39.5875 19.9729 39.47 20.3743C39.3355 20.8343 38.9126 21.2535 38.2132 21.6201C37.4585 22.0157 37.011 22.4643 36.8831 22.9536C36.7749 23.3671 36.9364 23.6816 37.0108 23.7975C37.0409 23.8445 37.0786 23.8987 37.1211 23.9601C37.4709 24.4649 38.1221 25.4046 37.7818 26.6525C37.5498 27.5031 38.1127 28.5647 38.7191 28.805C39.0612 28.9406 39.3558 28.7902 39.5709 28.3701C39.9076 27.7133 39.975 26.7887 40.0402 25.8946C40.119 24.8129 40.1935 23.7911 40.7292 23.2713C41.2085 22.8061 41.9062 22.7543 42.5808 22.7043C43.2932 22.6514 43.9661 22.6015 44.3552 22.0909C44.7846 21.5276 44.4533 20.8095 44.1871 20.2324C43.9788 19.7808 43.7989 19.3908 44.0787 19.2073C44.3755 19.0127 45.0166 19.0163 45.6377 19.2161C46.2404 19.4099 46.6748 19.7463 46.8296 20.1389C46.9881 20.5409 46.8268 21.0285 46.6708 21.5001C46.4628 22.1291 46.2663 22.7233 46.8031 23.0786C47.3323 23.4288 47.7527 23.3354 48.1594 23.245C48.5051 23.1681 48.8315 23.0956 49.1611 23.325C49.3835 23.4797 49.4519 23.7655 49.3488 24.1089C49.1202 24.8707 48.1404 25.7032 46.956 25.7197C46.0189 25.7328 45.7833 26.1133 45.5754 26.449C45.4083 26.7188 45.2509 26.9737 44.7795 26.9149C44.4302 26.8714 44.1044 26.7057 43.8169 26.5594C43.2724 26.2824 42.879 26.0822 42.5047 26.6326C42.2008 27.0795 42.0305 27.5658 41.8502 28.0807C41.6579 28.6299 41.4399 29.2525 41.0228 29.9159C40.1063 31.3739 39.8159 32.5112 40.2053 33.1182C40.3739 33.3809 40.607 33.6212 40.8538 33.8755C41.2938 34.3289 41.7925 34.8428 42.1373 35.675C42.8066 37.2899 43.6389 38.2182 44.6114 38.4341C45.48 38.6269 46.4535 38.2307 47.5053 37.2564C48.669 36.1783 49.6523 35.6339 50.4337 35.6339Z" fill="#282B47"/>
<path d="M24.861 50.9517C24.1575 50.9517 22.2714 50.4261 20.2628 49.5192C18.8148 48.8655 16.2486 47.5238 15.3313 45.8836C15.2088 45.6645 15.0902 45.4544 14.9756 45.2516C13.6399 42.886 12.8336 41.4581 12.7862 37.9411C12.7731 36.9701 12.3502 35.8633 11.5294 34.6516C11.5156 34.6313 11.5111 34.606 11.5167 34.582C11.9206 32.8756 12.4761 31.1777 13.1677 29.5353C13.1768 29.5138 13.194 29.4968 13.2156 29.4883L13.2845 29.461C14.2724 29.0707 16.1111 28.3441 17.4418 26.5578C18.3322 25.3626 18.8158 24.6061 19.1359 24.1055C19.5639 23.436 19.7081 23.2104 20.1358 23.015C20.9185 22.6572 21.8596 22.804 22.1102 23.323C22.4944 24.1187 21.9278 25.0214 20.4263 26.0062C19.5307 26.5935 19.0307 27.5857 19.0888 28.6602C19.1254 29.3384 19.3978 29.9201 19.7665 30.1077C20.1323 30.2938 20.366 30.3391 20.5733 30.2642C20.9296 30.1355 21.2659 29.6237 21.8139 28.3761C22.8197 26.0865 24.2722 26.5603 24.5531 26.6787C24.958 26.8491 25.0563 27.5626 25.1604 28.3181C25.2069 28.6547 25.2548 29.0026 25.3303 29.3074C25.463 29.8432 25.7282 30.2514 25.9413 30.5793C26.1157 30.8477 26.2534 31.0596 26.268 31.2588C26.2893 31.5505 25.9919 31.961 25.5803 32.5292C25.3584 32.8355 25.1069 33.1827 24.8618 33.5714C24.1196 34.7485 23.6416 35.6092 23.7556 36.8004C23.8292 37.5698 23.5052 38.2667 23.2448 38.8267C23.0727 39.1968 22.9241 39.5165 22.9505 39.7343C22.9742 39.9297 23.1325 40.2182 23.3002 40.5238C23.6274 41.12 23.9982 41.7957 23.7245 42.3164C23.369 42.9925 22.0051 43.2503 21.2941 43.0874C20.9743 43.0141 20.6576 43.0977 20.447 43.311C20.273 43.4873 20.1992 43.7254 20.2495 43.948C20.4022 44.6226 21.0003 45.2752 22.0272 45.8877C23.4642 46.7448 24.4743 47.6182 25.0295 48.4835C25.6617 49.4688 25.8734 50.1448 25.6767 50.55C25.5636 50.7833 25.3197 50.9172 24.952 50.9482C24.9244 50.9505 24.894 50.9517 24.861 50.9517ZM11.6933 34.5851C12.5195 35.8132 12.9452 36.9414 12.9587 37.9386C13.0055 41.4106 13.7585 42.7442 15.1254 45.1651C15.2401 45.3681 15.3588 45.5784 15.4815 45.7978C17.0648 48.629 23.7998 50.8701 24.9377 50.7744C25.2407 50.7489 25.4373 50.6475 25.5219 50.4732C25.6872 50.1325 25.4729 49.4949 24.8848 48.5784C24.3443 47.7359 23.3534 46.8811 21.9396 46.0379C20.8703 45.4001 20.2451 44.71 20.0814 43.9869C20.0177 43.7055 20.1088 43.4068 20.325 43.1877C20.5776 42.9318 20.9539 42.8306 21.3322 42.9172C22.0652 43.0851 23.2831 42.7842 23.5722 42.2344C23.8019 41.7974 23.4552 41.1657 23.1494 40.6083C22.9657 40.2736 22.807 39.9845 22.7793 39.7555C22.7468 39.4877 22.9053 39.147 23.0887 38.7524C23.3401 38.2118 23.653 37.5389 23.584 36.8171C23.4557 35.477 24.0967 34.4605 24.7164 33.4776C24.9645 33.0842 25.2177 32.7346 25.4412 32.4261C25.8164 31.9082 26.1127 31.4992 26.0961 31.2717C26.0847 31.1176 25.9578 30.9223 25.7972 30.6751C25.5769 30.3361 25.3028 29.9142 25.163 29.3497C25.0853 29.0359 25.0367 28.6832 24.9897 28.3421C24.8968 27.6684 24.8008 26.9718 24.4869 26.8397C24.2319 26.7324 22.9124 26.3054 21.9716 28.4469C21.3944 29.7609 21.0436 30.2794 20.6314 30.4284C20.3128 30.5435 19.9763 30.4096 19.689 30.2634C19.2603 30.0453 18.9572 29.4197 18.9167 28.6696C18.8551 27.532 19.3845 26.4816 20.3325 25.8598C21.749 24.9308 22.295 24.103 21.9553 23.3994C21.7507 22.9758 20.8847 22.864 20.207 23.1738C19.8255 23.3482 19.6992 23.5457 19.2808 24.2001C18.9594 24.7028 18.4737 25.4624 17.5796 26.6626C16.2195 28.4884 14.3511 29.2268 13.3474 29.6234L13.3123 29.6373C12.636 31.2481 12.0915 32.9125 11.6933 34.5851Z" fill="#282B47"/>
<path d="M68.1851 47.2181C68.1631 47.2181 68.1417 47.2096 68.1254 47.1938C67.6398 46.7229 67.1834 46.0079 66.8168 45.4335L66.7075 45.2627C66.0656 44.2622 66.6665 43.0107 67.0256 42.2629C67.4117 41.4588 67.6865 39.7673 67.0498 38.6901C66.4763 37.7199 66.7093 36.9871 66.9148 36.3405C66.9606 36.1964 67.004 36.0602 67.0387 35.9228C67.2327 35.1542 66.6407 33.8408 65.9808 33.0648C65.2328 32.1851 65.2988 31.766 65.6984 31.2577C65.867 31.0432 65.7951 30.7238 65.7316 30.442C65.6644 30.1438 65.5949 29.8354 65.871 29.7317C65.9658 29.6963 66.2165 29.6023 67.3103 30.8334C67.3179 30.8419 67.3237 30.8518 67.3275 30.8626C69.1539 36.0929 69.4795 41.725 68.2691 47.1501C68.2623 47.1807 68.2396 47.2054 68.2098 47.2144C68.2018 47.2169 68.1934 47.2181 68.1851 47.2181ZM65.9312 29.8952C65.8095 29.9409 65.8282 30.0851 65.8999 30.4033C65.9684 30.7076 66.0537 31.0862 65.8335 31.3662C65.4783 31.8181 65.4341 32.1542 66.1117 32.9512C66.815 33.7781 67.4165 35.1319 67.2059 35.9659C67.1699 36.1085 67.1238 36.2536 67.0791 36.3939C66.8753 37.0351 66.6645 37.6981 67.198 38.6006C67.8673 39.7329 67.5834 41.5008 67.1808 42.3391C66.8377 43.0537 66.2634 44.2498 66.8523 45.1677L66.9618 45.3389C67.2954 45.8616 67.7042 46.502 68.1351 46.9568C69.2966 41.6173 68.9639 36.0819 67.1707 30.937C66.2135 29.8621 65.9705 29.8806 65.9312 29.8952Z" fill="#282B47"/>
<path d="M58.7742 26.9952C58.7742 28.7511 56.0063 32.9709 55.3432 33.9566C55.2751 34.0578 55.1281 34.0576 55.06 33.9564C54.585 33.2503 53.0315 30.887 52.1874 28.9571C51.8524 28.1914 51.6292 27.4939 51.6292 26.9952C51.6292 25.0003 53.2286 23.3832 55.2017 23.3832C57.1747 23.3832 58.7742 25.0003 58.7742 26.9952Z" fill="#282B47"/>
<path d="M55.2017 28.6468C56.1039 28.6468 56.8352 27.9074 56.8352 26.9952C56.8352 26.0831 56.1039 25.3436 55.2017 25.3436C54.2995 25.3436 53.5681 26.0831 53.5681 26.9952C53.5681 27.9074 54.2995 28.6468 55.2017 28.6468Z" fill="white"/>
<path d="M25.8605 42.0949C25.8605 43.8508 23.0926 48.0706 22.4295 49.0564C22.3614 49.1576 22.2143 49.1573 22.1463 49.0561C21.6713 48.35 20.1178 45.9867 19.2736 44.0568C18.9387 43.2911 18.7154 42.5936 18.7154 42.0949C18.7154 40.1001 20.3149 38.4829 22.2879 38.4829C24.261 38.4829 25.8605 40.1001 25.8605 42.0949Z" fill="#282B47"/>
<path d="M22.2879 43.7464C23.1901 43.7464 23.9215 43.007 23.9215 42.0948C23.9215 41.1827 23.1901 40.4432 22.2879 40.4432C21.3857 40.4432 20.6544 41.1827 20.6544 42.0948C20.6544 43.007 21.3857 43.7464 22.2879 43.7464Z" fill="white"/>
<path d="M58.2865 10.9138C58.2895 10.9133 58.2925 10.9126 58.2955 10.9122C58.3663 10.9032 56.8926 11.0912 56.8926 11.0912C56.2401 11.1744 54.7645 11.7888 54.8286 12.3025C54.8926 12.8153 56.4729 13.0403 57.1254 12.9571C57.1254 12.9571 58.477 12.8002 58.5126 12.7957C58.8336 12.7546 59.0412 12.3002 58.9762 11.7808C58.9118 11.2663 58.6042 10.8813 58.2865 10.9138Z" fill="white"/>
<path d="M58.5312 12.7938C58.8421 12.754 59.0415 12.3007 58.9765 11.7813C58.9115 11.2618 58.6067 10.873 58.2958 10.9127C57.9849 10.9525 57.7855 11.4058 57.8505 11.9253C57.9155 12.4447 58.2203 12.8336 58.5312 12.7938Z" fill="#282B47"/>
<path d="M56.8399 13.0591C56.1107 13.0591 54.8097 12.8477 54.743 12.3134C54.7292 12.2027 54.7684 12.0867 54.8594 11.9687C54.8845 11.9361 54.929 11.9259 54.9656 11.9442C55.5935 12.2573 56.3969 12.3898 56.8112 12.3369L57.9279 12.1945C57.967 12.1896 58.0046 12.212 58.0189 12.2492C58.1171 12.5029 58.2794 12.6776 58.4423 12.7049C58.4845 12.712 58.5151 12.7494 58.5144 12.7926C58.5135 12.8359 58.4814 12.872 58.4389 12.8774L57.1361 13.0436C57.0565 13.0538 56.9553 13.0591 56.8399 13.0591ZM54.9564 12.1331C54.9224 12.1908 54.9081 12.2439 54.9141 12.2916C54.9667 12.7131 56.4558 12.9546 57.1145 12.8706L58.1405 12.7397C58.0402 12.6523 57.952 12.528 57.8845 12.3758L56.8328 12.51C56.4083 12.5641 55.6029 12.4373 54.9564 12.1331Z" fill="#282B47"/>
<path d="M56.8397 13.0592C56.1111 13.0592 54.8097 12.8478 54.743 12.3135C54.7005 11.9733 55.1598 11.6604 55.5526 11.4578C55.9825 11.2361 56.5291 11.0497 56.8817 11.0048L58.2267 10.8332C58.2408 10.8314 58.255 10.8296 58.2688 10.8285C58.2703 10.8282 58.2718 10.8279 58.2734 10.8277C58.2747 10.8275 58.2833 10.826 58.2844 10.8258L58.2845 10.8265C58.6511 10.7943 58.9912 11.207 59.0617 11.7699C59.1337 12.3458 58.8972 12.8344 58.5233 12.8823C58.4876 12.8868 57.1903 13.0374 57.1351 13.0438C57.0558 13.0539 56.9549 13.0592 56.8397 13.0592ZM58.2891 11.001C58.1197 11.0226 56.9033 11.1778 56.9033 11.1778C56.5683 11.2205 56.0452 11.3995 55.631 11.6132C55.1595 11.8564 54.8915 12.1101 54.9141 12.2916C54.9667 12.7131 56.4562 12.9547 57.1145 12.8706C57.5828 12.8163 58.4739 12.7128 58.5017 12.7092C58.7704 12.6748 58.9484 12.2547 58.8905 11.7918C58.8325 11.3279 58.5646 10.9729 58.2951 11.0006C58.2931 11.0008 58.2911 11.001 58.2891 11.001Z" fill="#282B47"/>
<path d="M57.8031 14.2477L53.1841 6.70496L52.4055 6.88001C52.4055 6.88001 53.5366 12.4724 53.5932 13.2135C53.6499 13.9547 53.4361 15.2251 53.4361 15.2251L57.8031 14.2477Z" fill="white"/>
<path d="M54.7628 14.6356C54.7422 14.6356 54.722 14.6281 54.7061 14.6141C54.6856 14.596 54.6747 14.5692 54.6768 14.5418C54.6777 14.529 54.7711 13.259 54.6501 12.5455C54.5473 11.9389 53.1016 8.02129 52.6609 6.835C52.6521 6.81135 52.654 6.78501 52.6658 6.76281C52.6777 6.74061 52.6985 6.7247 52.7229 6.71922L53.1654 6.61977C53.2014 6.61168 53.2382 6.62748 53.2574 6.65899L57.6776 13.8769C57.6923 13.901 57.6946 13.9308 57.6837 13.9568C57.6727 13.9829 57.6499 14.002 57.6226 14.008L54.7811 14.6335C54.775 14.6349 54.7689 14.6356 54.7628 14.6356ZM52.8573 6.8677C53.4416 8.44216 54.7196 11.9234 54.8201 12.516C54.9241 13.1295 54.8772 14.103 54.8565 14.4385L57.4667 13.8639L53.143 6.80349L52.8573 6.8677Z" fill="#282B47"/>
<path d="M53.4361 15.3122C53.4141 15.3122 53.3928 15.3038 53.3766 15.2882C53.3558 15.2682 53.3462 15.239 53.3511 15.2104C53.3531 15.1978 53.5624 13.942 53.5072 13.2202C53.4516 12.4929 52.3323 6.95331 52.321 6.89741C52.3116 6.8508 52.3408 6.80514 52.3868 6.79482L53.1654 6.61977C53.2014 6.61168 53.2382 6.62748 53.2575 6.65899L57.8765 14.2017C57.8912 14.2257 57.8935 14.2555 57.8826 14.2815C57.8717 14.3076 57.8491 14.3266 57.8218 14.3327L53.4548 15.3102C53.4485 15.3116 53.4423 15.3122 53.4361 15.3122ZM52.5069 6.94645C52.6537 7.67403 53.626 12.5097 53.6792 13.2068C53.7261 13.8199 53.594 14.7691 53.5414 15.1122L57.6658 14.1891L53.1431 6.80349L52.5069 6.94645Z" fill="#282B47"/>
<path d="M49.3149 18.0189C48.8097 18.0189 48.3049 18.0019 47.8016 17.9679L42.1154 17.5831C42.0755 17.5803 42.0426 17.5502 42.0361 17.5103L41.9265 16.8408C41.9196 16.7986 41.9439 16.7576 41.984 16.7439L42.7498 16.4823L38.2894 13.1326C38.2616 13.1117 38.2489 13.0761 38.257 13.0421C38.2652 13.0081 38.2926 12.9823 38.3268 12.9765L39.8833 12.7161C39.8993 12.7134 39.9156 12.7153 39.9305 12.7216L46.0419 15.2847L64.1272 12.6592C64.1892 12.646 65.7793 12.3263 66.9765 13.3039C67.1282 13.3712 68.0432 13.7954 68.043 14.2395C68.0423 14.6952 67.7739 15.3538 65.4604 15.8118C63.8409 16.1328 56.6731 17.1865 52.5446 17.786C51.4767 17.9411 50.3954 18.0189 49.3149 18.0189ZM42.1951 17.4137L47.8131 17.7938C49.3811 17.9 50.9648 17.8392 52.5201 17.6134C56.647 17.0141 63.8114 15.961 65.4272 15.6408C67.8692 15.1572 67.8701 14.4665 67.8705 14.2395C67.8706 13.9811 67.2735 13.6238 66.8971 13.4593C66.8898 13.4561 66.883 13.4519 66.8768 13.4468C65.7417 12.5119 64.1728 12.8277 64.157 12.831L46.043 15.4608C46.0278 15.4631 46.0121 15.461 45.9977 15.455L39.8871 12.8922L38.5553 13.1151L42.9848 16.4416C43.0106 16.4609 43.0236 16.4931 43.0186 16.5251C43.0136 16.5572 42.9914 16.5838 42.961 16.5941L42.1086 16.8854L42.1951 17.4137Z" fill="white"/>
<path d="M43.0335 16.3919L44.3036 13.3669L45.0089 13.2286L45.1656 15.922L43.0335 16.3919Z" fill="white"/>
<path d="M43.0335 16.4792C43.0082 16.4792 42.9837 16.4678 42.9671 16.4476C42.9466 16.4225 42.9416 16.3879 42.9542 16.3579L44.2242 13.3329C44.2354 13.3062 44.2589 13.2869 44.2871 13.2814L44.9925 13.1431C45.017 13.1383 45.0422 13.1444 45.0618 13.1598C45.0815 13.1752 45.0936 13.1985 45.095 13.2236L45.2517 15.9169C45.2542 15.9597 45.2254 15.998 45.1839 16.0072L43.0519 16.4772C43.0458 16.4785 43.0396 16.4792 43.0335 16.4792ZM44.365 13.4437L43.1781 16.2709L45.0752 15.8527L44.9287 13.3333L44.365 13.4437Z" fill="#282B47"/>
<path d="M53.9008 18.651C53.9038 18.6508 53.9068 18.6503 53.9099 18.6502C53.9811 18.6465 52.4975 18.7213 52.4975 18.7213C51.8407 18.7545 50.3234 19.2543 50.349 19.7714C50.3744 20.2877 51.9334 20.6328 52.5902 20.5997C52.5902 20.5997 53.9497 20.5466 53.9855 20.5448C54.3087 20.5284 54.5496 20.0912 54.5237 19.5683C54.4979 19.0503 54.22 18.6429 53.9008 18.651Z" fill="white"/>
<path d="M54.0003 20.5448C54.3133 20.5289 54.546 20.0921 54.5201 19.5692C54.4941 19.0463 54.2194 18.6353 53.9064 18.6512C53.5934 18.6671 53.3607 19.1038 53.3866 19.6267C53.4126 20.1496 53.6873 20.5606 54.0003 20.5448Z" fill="#282B47"/>
<path d="M52.5135 20.6886C51.8649 20.6886 50.2923 20.3721 50.2629 19.7757C50.2573 19.6642 50.3051 19.5515 50.4047 19.4409C50.4322 19.4103 50.4771 19.4035 50.5124 19.4245C51.1151 19.7847 51.9064 19.9783 52.3233 19.9572L53.4475 19.9005C53.4866 19.8989 53.5228 19.9239 53.5343 19.9621C53.6132 20.2226 53.7619 20.4091 53.9223 20.4488C53.9639 20.4591 53.9917 20.4987 53.9876 20.5418C53.9835 20.5849 53.9488 20.6185 53.9061 20.6206L52.5946 20.6867C52.5695 20.688 52.5424 20.6886 52.5135 20.6886ZM50.4891 19.6122C50.4509 19.6671 50.4328 19.719 50.4351 19.767C50.456 20.1912 51.9223 20.546 52.5859 20.5125L53.6188 20.4605C53.5253 20.3656 53.4466 20.235 53.3907 20.078L52.3319 20.1314C51.9045 20.1528 51.1111 19.9649 50.4891 19.6122Z" fill="#282B47"/>
<path d="M52.5126 20.6886C51.8649 20.6886 50.2921 20.372 50.2628 19.7756C50.2459 19.4332 50.7272 19.1563 51.134 18.9843C51.5794 18.796 52.1383 18.652 52.4932 18.6341L53.8472 18.5659C53.8614 18.5652 53.8757 18.5645 53.8895 18.5644C53.891 18.5643 53.8925 18.5641 53.894 18.564C53.8955 18.5638 53.9045 18.563 53.9057 18.563L53.9057 18.5636C54.2732 18.557 54.5816 18.9973 54.6097 19.5638C54.6231 19.8328 54.5702 20.0903 54.4608 20.2888C54.3441 20.5005 54.1768 20.6223 53.9898 20.6318C53.9538 20.6336 52.649 20.6846 52.5935 20.6867C52.5685 20.688 52.5414 20.6886 52.5126 20.6886ZM53.8969 18.738C53.7263 18.7466 52.5017 18.8083 52.5017 18.8083C52.1646 18.8253 51.6295 18.9639 51.2005 19.1453C50.7121 19.3518 50.426 19.5842 50.435 19.767C50.456 20.1912 51.9228 20.5461 52.5858 20.5125C53.0568 20.4941 53.9532 20.459 53.9811 20.4576C54.1066 20.4512 54.2235 20.3612 54.3101 20.2039C54.404 20.0336 54.4492 19.8094 54.4374 19.5725C54.4143 19.1055 54.1733 18.7332 53.9028 18.7381C53.901 18.7382 53.8989 18.7381 53.8969 18.738Z" fill="#282B47"/>
<path d="M46.0168 15.2631L64.1392 12.7455C64.1392 12.7455 65.6127 12.4361 66.7734 13.2586C66.8844 13.3372 67.8975 13.8128 67.9565 14.2395C68.013 14.6486 67.6848 15.2825 65.4436 15.7262C63.805 16.0509 56.3955 17.1386 52.5321 17.6996C50.9677 17.9268 49.3841 17.9875 47.8071 17.8808L42.1209 17.496L42.0114 16.8264L42.9332 16.5115L38.3406 13.0625L39.8972 12.8021L46.0168 15.2631Z" fill="white"/>
<path d="M42.9487 16.5741C42.9304 16.5741 42.9125 16.5683 42.8976 16.5572L38.2895 13.1329C38.2615 13.1121 38.2487 13.0764 38.2567 13.0423C38.2648 13.0082 38.2923 12.9823 38.3265 12.9766L39.2178 12.8275C39.2351 12.8246 39.2531 12.8271 39.2689 12.8348L45.9316 16.0448C45.9662 16.0615 45.9858 16.0993 45.9796 16.1376C45.9735 16.1758 45.943 16.2054 45.905 16.2101L42.9591 16.5735C42.9557 16.5739 42.9522 16.5741 42.9487 16.5741ZM38.5565 13.1149L42.9722 16.3962L45.5898 16.0733L39.2192 13.004L38.5565 13.1149Z" fill="#282B47"/>
<path d="M49.3146 18.0189C48.8095 18.0189 48.3047 18.0019 47.8014 17.9679L42.1152 17.5831C42.0752 17.5803 42.0424 17.5502 42.0358 17.5103L41.9548 17.0149C41.9505 16.9886 41.9583 16.9618 41.976 16.942C41.9937 16.9223 42.0199 16.9119 42.0457 16.9137C42.9473 16.9754 51.2828 17.4318 66.1596 14.4914C67.0065 14.3243 67.2153 14.1164 67.2658 14.0348C67.2854 14.0031 67.292 13.9745 67.2855 13.9496C67.2214 13.7064 66.8772 13.4329 66.7367 13.3386C66.7319 13.3356 66.7276 13.3327 66.724 13.3301C66.6855 13.3028 66.6757 13.2494 66.702 13.21C66.7282 13.1706 66.7809 13.1597 66.8204 13.1855C66.8218 13.1864 66.8251 13.1886 66.8301 13.192C66.8505 13.2049 66.8946 13.2292 66.9447 13.2568C67.4602 13.541 67.9937 13.8786 68.0419 14.2275C68.1078 14.704 67.7134 15.3657 65.4602 15.8119C63.8413 16.1327 56.6732 17.1865 52.5444 17.786C51.4764 17.9411 50.3951 18.0189 49.3146 18.0189ZM42.1949 17.4137L47.8129 17.7938C49.3808 17.9 50.9645 17.8392 52.5199 17.6134C56.647 17.014 63.8119 15.9608 65.427 15.6407C67.6595 15.1987 67.9166 14.5807 67.8711 14.2516C67.8469 14.0767 67.6113 13.8767 67.3636 13.7097C67.4033 13.7727 67.4347 13.8383 67.4522 13.9048C67.4655 13.9553 67.4693 14.0348 67.4121 14.1274C67.2763 14.347 66.8546 14.532 66.1928 14.6627C51.7674 17.5138 43.4751 17.1753 42.1427 17.0947L42.1949 17.4137Z" fill="#282B47"/>
<path d="M66.0937 12.9162C65.893 12.8497 65.5988 12.76 65.4102 12.7319C65.6844 12.9541 65.8107 13.1755 65.7187 13.3083C65.5383 13.569 64.4961 13.6648 64.4961 13.6648L64.7135 14.2071C65.638 14.0623 66.409 13.834 66.4335 13.5424C66.456 13.2736 66.3031 13.0861 66.0937 12.9162Z" fill="#282B47"/>
<path d="M49.3149 18.0189C48.8097 18.0189 48.3049 18.0019 47.8016 17.9678L42.1154 17.583C42.0755 17.5803 42.0426 17.5501 42.0361 17.5102L41.9265 16.8407C41.9196 16.7985 41.944 16.7575 41.984 16.7439L42.7498 16.4822L38.2894 13.1325C38.2616 13.1117 38.2489 13.076 38.257 13.042C38.2652 13.008 38.2926 12.9822 38.3268 12.9765L39.8833 12.716C39.8988 12.7135 39.9146 12.7152 39.9293 12.721L46.0278 15.1736L64.1278 12.6591C64.1836 12.6472 65.6454 12.3527 66.8232 13.1872C66.8385 13.1981 66.8878 13.2252 66.945 13.2567C67.4605 13.5409 67.994 13.8785 68.0422 14.2274C68.1081 14.7039 67.7137 15.3656 65.4605 15.8118C63.8409 16.1327 56.6732 17.1864 52.5447 17.7859C51.4767 17.941 50.3954 18.0189 49.3149 18.0189ZM42.1951 17.4136L47.8131 17.7938C49.381 17.8999 50.9648 17.8392 52.5201 17.6133C56.647 17.0141 63.8114 15.9609 65.4272 15.6407C67.6597 15.1986 67.9168 14.5806 67.8713 14.2516C67.8286 13.9426 67.1266 13.5556 66.8623 13.4099C66.7931 13.3717 66.7474 13.3465 66.7242 13.3301C65.6068 12.5384 64.1713 12.8279 64.157 12.8309L46.0288 15.3495C46.014 15.3515 45.999 15.3497 45.9851 15.3441L39.8878 12.892L38.5554 13.115L42.9848 16.4415C43.0106 16.4608 43.0236 16.493 43.0186 16.5251C43.0136 16.5571 42.9915 16.5837 42.9611 16.5941L42.1086 16.8853L42.1951 17.4136Z" fill="#282B47"/>
<path d="M39.1864 18.562L40.2987 18.6496L44.2889 17.2911L42.0814 17.2546L39.1864 18.562Z" fill="white"/>
<path d="M40.2987 18.7367C40.2965 18.7367 40.2942 18.7366 40.292 18.7365L39.1797 18.6489C39.1404 18.6457 39.1081 18.6161 39.1014 18.5768C39.0947 18.5375 39.1152 18.4986 39.1513 18.4823L42.0462 17.175C42.0577 17.1698 42.07 17.167 42.0828 17.1674L44.2904 17.2039C44.3323 17.2045 44.3678 17.2357 44.3742 17.2777C44.3806 17.3196 44.3563 17.3601 44.3165 17.3737L40.3262 18.7322C40.3174 18.7352 40.3081 18.7367 40.2987 18.7367ZM39.5314 18.5016L40.2878 18.5612L43.7869 17.37L42.0992 17.3421L39.5314 18.5016Z" fill="#282B47"/>
<path d="M57.6579 16.4258L43.8509 23.0807L41.8321 23.267C41.8321 23.267 48.3496 19.4973 49.186 18.9465C50.4076 18.1419 51.8774 17.1532 51.8774 17.1532L57.6579 16.4258Z" fill="white"/>
<path d="M42.9579 23.2183C42.9198 23.2183 42.8859 23.1929 42.8751 23.1554C42.8637 23.1157 42.8815 23.0733 42.9177 23.054L51.1373 18.6666C51.1388 18.6658 51.1402 18.6651 51.1418 18.6644C51.9413 18.295 54.0623 17.2417 54.2719 16.809C54.2847 16.7827 54.3097 16.7646 54.3386 16.7609L57.647 16.3393C57.6883 16.334 57.7286 16.3601 57.7406 16.4013C57.7525 16.4423 57.7332 16.4861 57.6949 16.5045L43.9415 23.1337C43.932 23.1383 43.9218 23.141 43.9113 23.1419L42.9648 23.218C42.9625 23.2182 42.9602 23.2183 42.9579 23.2183ZM51.2157 18.8219L43.3684 23.0106L43.8817 22.9693L57.1375 16.58L54.4025 16.9285C54.0253 17.5109 51.5186 18.6819 51.2157 18.8219Z" fill="#282B47"/>
<path d="M41.852 23.3802C41.8154 23.3802 41.7823 23.3567 41.7704 23.3211C41.7574 23.2825 41.7725 23.24 41.8068 23.2187C41.8494 23.1923 46.0953 20.5538 49.1447 18.8699C50.2196 18.2763 51.8103 17.0949 51.8263 17.083C51.8381 17.0741 51.8521 17.0685 51.8667 17.0667L57.6472 16.3392C57.6891 16.3339 57.7288 16.3602 57.7407 16.4013C57.7525 16.4423 57.7332 16.486 57.695 16.5044L43.888 23.1593C43.8791 23.1636 43.8697 23.1663 43.8599 23.1674L41.861 23.3797C41.858 23.3801 41.8549 23.3802 41.852 23.3802ZM51.9103 17.2369C51.7294 17.3707 50.2497 18.4584 49.2274 19.0229C46.6728 20.4336 43.2763 22.5158 42.2226 23.1659L43.8271 22.9955L57.1399 16.5788L51.9103 17.2369Z" fill="#282B47"/>
<path d="M8.11792 22.0896V21.1869L16.5518 20.9676L16.8833 21.6929L24.3793 21.258L24.9609 20.3864C24.9609 20.3864 33.4826 18.6312 35.7425 19.5771C37.7693 20.4253 34.0443 22.4588 33.6126 23.1125C33.1809 23.7663 32.1468 25.3983 32.1468 25.3983L11.7436 25.0778C11.4699 25.0721 11.1984 25.0352 10.9362 24.9672C10.2158 24.7803 8.91441 24.2948 8.357 23.1494C8.1941 22.8145 8.11792 22.4529 8.11792 22.0896Z" fill="white"/>
<path d="M32.1468 25.4856C32.1463 25.4856 32.1459 25.4856 32.1454 25.4856L11.7422 25.165C11.4603 25.1592 11.1821 25.1211 10.9148 25.0517C10.1761 24.8601 8.85149 24.3631 8.27959 23.1879C8.1151 22.8499 8.03168 22.4804 8.03168 22.0898V21.1871C8.03168 21.1398 8.06895 21.1011 8.11571 21.0999L16.5496 20.8806C16.5853 20.8807 16.6157 20.8996 16.6301 20.9312L16.937 21.6026L24.3317 21.1736L24.8894 20.3378C24.902 20.3188 24.9215 20.3057 24.9437 20.3011C25.2927 20.2292 33.5172 18.5515 35.7754 19.4966C36.1683 19.661 36.3861 19.8855 36.4228 20.1636C36.5162 20.8701 35.4173 21.7288 34.5344 22.4187C34.1354 22.7304 33.7909 22.9996 33.6843 23.161C33.2579 23.8065 32.2297 25.4291 32.2194 25.4454C32.2035 25.4705 32.1761 25.4856 32.1468 25.4856ZM8.20421 21.2721V22.0898C8.20421 22.4535 8.28164 22.7971 8.43445 23.1109C8.97586 24.2235 10.2477 24.6986 10.9577 24.8828C11.2121 24.9488 11.4771 24.9851 11.7454 24.9906L32.1001 25.3105C32.2633 25.0532 33.1517 23.6535 33.5409 23.0642C33.6632 22.8791 34.0011 22.615 34.4289 22.2807C35.2321 21.6531 36.3321 20.7936 36.2519 20.1867C36.2239 19.9746 36.0414 19.7967 35.7095 19.6578C33.5719 18.763 25.6074 20.3449 25.0126 20.465L24.4509 21.3069C24.4358 21.3295 24.4112 21.3437 24.3843 21.3452L16.8883 21.7801C16.8545 21.7823 16.82 21.7622 16.8051 21.7296L16.4974 21.0564L8.20421 21.2721Z" fill="#282B47"/>
<path d="M12.641 20.952H11.9003V18.1722L12.641 18.2279V20.952Z" fill="white"/>
<path d="M12.641 21.0392H11.9003C11.8526 21.0392 11.814 21.0002 11.814 20.952V18.1722C11.814 18.1479 11.824 18.1248 11.8416 18.1083C11.8592 18.0918 11.8826 18.0834 11.9067 18.0852L12.6475 18.1409C12.6925 18.1443 12.7273 18.1822 12.7273 18.2278V20.952C12.7273 21.0002 12.6886 21.0392 12.641 21.0392ZM11.9865 20.8648H12.5548V18.3088L11.9865 18.2661V20.8648Z" fill="#282B47"/>
<path d="M11.3843 18.3222L11.8986 18.2261V21.0275H11.3843V18.3222Z" fill="white"/>
<path d="M11.8986 21.1147H11.3842C11.3366 21.1147 11.298 21.0757 11.298 21.0276V18.3223C11.298 18.2802 11.3277 18.2442 11.3685 18.2366L11.8829 18.1404C11.9079 18.1357 11.934 18.1425 11.9537 18.1591C11.9734 18.1756 11.9848 18.2002 11.9848 18.2261V21.0276C11.9848 21.0757 11.9462 21.1147 11.8986 21.1147ZM11.4705 20.9403H11.8123V18.3309L11.4705 18.3948V20.9403Z" fill="#282B47"/>
<path d="M15.748 22.348H12.3875V19.5906L15.748 19.6465V22.348Z" fill="white"/>
<path d="M15.7479 22.4352H12.3874C12.3398 22.4352 12.3011 22.3961 12.3011 22.3479V19.5906C12.3011 19.5672 12.3104 19.5448 12.3269 19.5284C12.3434 19.512 12.3642 19.5023 12.3889 19.5034L15.7494 19.5593C15.7964 19.56 15.8342 19.5988 15.8342 19.6465V22.348C15.8342 22.3961 15.7955 22.4352 15.7479 22.4352ZM12.4737 22.2608H15.6617V19.7322L12.4737 19.6792V22.2608Z" fill="#282B47"/>
<path d="M10.0468 19.8103L12.3799 19.5754V22.3891H10.0468V19.8103Z" fill="white"/>
<path d="M12.38 22.4763H10.0468C9.99921 22.4763 9.96057 22.4373 9.96057 22.3891V19.8103C9.96057 19.7654 9.99417 19.7279 10.0383 19.7235L12.3714 19.4887C12.3958 19.4863 12.4198 19.4943 12.4379 19.5108C12.4559 19.5274 12.4662 19.5508 12.4662 19.5755V22.3891C12.4662 22.4373 12.4276 22.4763 12.38 22.4763ZM10.1331 22.302H12.2937V19.6717L10.1331 19.8892V22.302Z" fill="#282B47"/>
<path d="M17.6487 21.7458L14.9542 21.9208V19.1965L17.6487 18.9329V21.7458Z" fill="white"/>
<path d="M14.9542 22.0079C14.9324 22.0079 14.9113 21.9995 14.8952 21.9844C14.8778 21.9679 14.868 21.9448 14.868 21.9208V19.1966C14.868 19.1517 14.9017 19.1141 14.9459 19.1098L17.6404 18.8461C17.6646 18.8438 17.6886 18.8518 17.7066 18.8683C17.7246 18.8849 17.7349 18.9083 17.7349 18.9329V21.7458C17.7349 21.7918 17.6996 21.8299 17.6542 21.8329L14.9597 22.0078C14.9579 22.0079 14.9561 22.0079 14.9542 22.0079ZM15.0405 19.2757V21.8278L17.5624 21.664V19.0289L15.0405 19.2757Z" fill="#282B47"/>
<path d="M15.4746 21.5482C15.4269 21.5482 15.3883 21.5091 15.3883 21.461V19.4957C15.3883 19.4476 15.4269 19.4086 15.4746 19.4086C15.5222 19.4086 15.5608 19.4476 15.5608 19.4957V21.461C15.5608 21.5091 15.5222 21.5482 15.4746 21.5482Z" fill="#282B47"/>
<path d="M16.0054 21.4966C15.9578 21.4966 15.9192 21.4576 15.9192 21.4094V19.4442C15.9192 19.3961 15.9578 19.3571 16.0054 19.3571C16.053 19.3571 16.0917 19.3961 16.0917 19.4442V21.4094C16.0917 21.4576 16.053 21.4966 16.0054 21.4966Z" fill="#282B47"/>
<path d="M16.5363 21.4451C16.4887 21.4451 16.4501 21.406 16.4501 21.3579V19.3926C16.4501 19.3445 16.4887 19.3054 16.5363 19.3054C16.5839 19.3054 16.6225 19.3444 16.6225 19.3926V21.3578C16.6225 21.406 16.5839 21.4451 16.5363 21.4451Z" fill="#282B47"/>
<path d="M17.0671 21.3936C17.0195 21.3936 16.9809 21.3546 16.9809 21.3064V19.3411C16.9809 19.293 17.0195 19.2539 17.0671 19.2539C17.1148 19.2539 17.1534 19.2929 17.1534 19.3411V21.3064C17.1534 21.3545 17.1148 21.3936 17.0671 21.3936Z" fill="#282B47"/>
<path d="M17.5976 21.8008V18.8789L21.402 19.0445V21.5545L17.5976 21.8008Z" fill="white"/>
<path d="M17.5976 21.888C17.5758 21.888 17.5546 21.8796 17.5386 21.8644C17.5212 21.8479 17.5113 21.8249 17.5113 21.8008V18.879C17.5113 18.8552 17.5209 18.8324 17.5379 18.816C17.5549 18.7996 17.5778 18.7908 17.6013 18.7918L21.4058 18.9574C21.4519 18.9594 21.4883 18.9978 21.4883 19.0445V21.5545C21.4883 21.6005 21.453 21.6385 21.4076 21.6415L17.6031 21.8878C17.6013 21.888 17.5994 21.888 17.5976 21.888ZM17.6839 18.97V21.7079L21.3158 21.4727V19.128L17.6839 18.97Z" fill="#282B47"/>
<path d="M20.8443 21.4609L18.1498 21.6359V18.9117L20.8443 18.6479V21.4609Z" fill="white"/>
<path d="M18.1498 21.7231C18.128 21.7231 18.1068 21.7147 18.0908 21.6995C18.0734 21.683 18.0635 21.66 18.0635 21.6359V18.9117C18.0635 18.8668 18.0973 18.8293 18.1415 18.8249L20.8359 18.5612C20.86 18.5588 20.8842 18.5669 20.9022 18.5834C20.9202 18.6 20.9304 18.6234 20.9304 18.648V21.461C20.9304 21.5069 20.8951 21.545 20.8497 21.548L18.1553 21.7229C18.1535 21.723 18.1517 21.7231 18.1498 21.7231ZM18.2361 18.9909V21.5429L20.758 21.3792V18.744L18.2361 18.9909Z" fill="#282B47"/>
<path d="M18.7008 21.2891C18.6531 21.2891 18.6145 21.25 18.6145 21.2018V19.2366C18.6145 19.1884 18.6531 19.1494 18.7008 19.1494C18.7484 19.1494 18.787 19.1884 18.787 19.2366V21.2018C18.787 21.25 18.7484 21.2891 18.7008 21.2891Z" fill="#282B47"/>
<path d="M19.2317 21.2375C19.184 21.2375 19.1454 21.1985 19.1454 21.1504V19.1851C19.1454 19.137 19.184 19.0979 19.2317 19.0979C19.2793 19.0979 19.3179 19.1369 19.3179 19.1851V21.1504C19.3179 21.1985 19.2793 21.2375 19.2317 21.2375Z" fill="#282B47"/>
<path d="M19.7625 21.186C19.7148 21.186 19.6762 21.147 19.6762 21.0988V19.1336C19.6762 19.0855 19.7148 19.0464 19.7625 19.0464C19.8101 19.0464 19.8487 19.0854 19.8487 19.1336V21.0988C19.8487 21.147 19.8101 21.186 19.7625 21.186Z" fill="#282B47"/>
<path d="M20.2933 21.1345C20.2457 21.1345 20.207 21.0954 20.207 21.0473V19.0821C20.207 19.0339 20.2456 18.9949 20.2933 18.9949C20.341 18.9949 20.3795 19.0339 20.3795 19.0821V21.0473C20.3795 21.0954 20.3409 21.1345 20.2933 21.1345Z" fill="#282B47"/>
<path d="M20.7932 21.516V18.5941L24.5976 18.7597V21.2697L20.7932 21.516Z" fill="white"/>
<path d="M20.7932 21.6031C20.7714 21.6031 20.7503 21.5947 20.7342 21.5795C20.7168 21.563 20.707 21.54 20.707 21.5159V18.5941C20.707 18.5703 20.7166 18.5475 20.7336 18.5311C20.7506 18.5146 20.7736 18.5059 20.797 18.5069L24.6014 18.6725C24.6475 18.6745 24.6839 18.7129 24.6839 18.7596V21.2696C24.6839 21.3156 24.6486 21.3537 24.6032 21.3566L20.7988 21.6029C20.7969 21.6031 20.7951 21.6031 20.7932 21.6031ZM20.8795 18.6851V21.423L24.5114 21.1878V18.8431L20.8795 18.6851Z" fill="#282B47"/>
<path d="M24.2135 21.2515L21.4144 21.4332V18.6032L24.2135 18.3292V21.2515Z" fill="white"/>
<path d="M21.4143 21.5203C21.3925 21.5203 21.3714 21.5119 21.3553 21.4968C21.3379 21.4803 21.3281 21.4572 21.3281 21.4332V18.6031C21.3281 18.5582 21.3618 18.5206 21.406 18.5163L24.2051 18.2423C24.2292 18.24 24.2534 18.248 24.2714 18.2646C24.2894 18.2811 24.2997 18.3046 24.2997 18.3291V21.2514C24.2997 21.2974 24.2643 21.3355 24.2189 21.3384L21.4198 21.5202C21.418 21.5203 21.4162 21.5203 21.4143 21.5203ZM21.5006 18.6823V21.3401L24.1272 21.1696V18.4252L21.5006 18.6823Z" fill="#282B47"/>
<path d="M22.0177 21.0629C21.9701 21.0629 21.9315 21.0238 21.9315 20.9756V19.0104C21.9315 18.9622 21.9701 18.9232 22.0177 18.9232C22.0653 18.9232 22.104 18.9622 22.104 19.0104V20.9756C22.1039 21.0238 22.0653 21.0629 22.0177 21.0629Z" fill="#282B47"/>
<path d="M22.5485 21.0113C22.5009 21.0113 22.4623 20.9723 22.4623 20.9241V18.9589C22.4623 18.9107 22.5009 18.8717 22.5485 18.8717C22.5961 18.8717 22.6347 18.9107 22.6347 18.9589V20.9241C22.6347 20.9723 22.5961 21.0113 22.5485 21.0113Z" fill="#282B47"/>
<path d="M23.0793 20.9597C23.0317 20.9597 22.9931 20.9207 22.9931 20.8725V18.9073C22.9931 18.8591 23.0317 18.8201 23.0793 18.8201C23.127 18.8201 23.1656 18.8591 23.1656 18.9073V20.8725C23.1656 20.9207 23.127 20.9597 23.0793 20.9597Z" fill="#282B47"/>
<path d="M23.6102 20.9082C23.5625 20.9082 23.5239 20.8691 23.5239 20.8209V18.8557C23.5239 18.8076 23.5625 18.7686 23.6102 18.7686C23.6578 18.7686 23.6964 18.8076 23.6964 18.8557V20.821C23.6964 20.8691 23.6578 20.9082 23.6102 20.9082Z" fill="#282B47"/>
<path d="M24.1625 21.3063V18.2751L28.1108 18.447V21.0507L24.1625 21.3063Z" fill="white"/>
<path d="M24.1625 21.3935C24.1406 21.3935 24.1195 21.3851 24.1035 21.3699C24.086 21.3534 24.0762 21.3304 24.0762 21.3063V18.2751C24.0762 18.2513 24.0858 18.2285 24.1028 18.2121C24.1198 18.1957 24.1429 18.1869 24.1662 18.1879L28.1144 18.3598C28.1606 18.3618 28.197 18.4002 28.197 18.4469V21.0506C28.197 21.0966 28.1616 21.1347 28.1162 21.1376L24.168 21.3933C24.1661 21.3934 24.1642 21.3935 24.1625 21.3935ZM24.2487 18.3661V21.2133L28.0245 20.9689V18.5305L24.2487 18.3661Z" fill="#282B47"/>
<path d="M27.7363 21.0082L24.859 21.1951V18.286L27.7363 18.0044V21.0082Z" fill="white"/>
<path d="M24.859 21.2824C24.8372 21.2824 24.8161 21.274 24.8 21.2588C24.7826 21.2423 24.7728 21.2193 24.7728 21.1952V18.2861C24.7728 18.2412 24.8065 18.2037 24.8507 18.1993L27.728 17.9177C27.752 17.9154 27.7763 17.9234 27.7943 17.94C27.8123 17.9565 27.8226 17.98 27.8226 18.0045V21.0084C27.8226 21.0544 27.7872 21.0925 27.7418 21.0954L24.8645 21.2822C24.8627 21.2823 24.8609 21.2824 24.859 21.2824ZM24.9453 18.3653V21.1022L27.6501 20.9266V18.1005L24.9453 18.3653Z" fill="#282B47"/>
<path d="M25.4424 19.9682C25.3948 19.9682 25.3561 19.9291 25.3561 19.881V18.7121C25.3561 18.6639 25.3947 18.6249 25.4424 18.6249C25.4901 18.6249 25.5286 18.6639 25.5286 18.7121V19.881C25.5287 19.9291 25.49 19.9682 25.4424 19.9682Z" fill="#282B47"/>
<path d="M26.0027 19.8773C25.9551 19.8773 25.9165 19.8383 25.9165 19.7901V18.6577C25.9165 18.6096 25.9551 18.5706 26.0027 18.5706C26.0504 18.5706 26.089 18.6096 26.089 18.6577V19.7901C26.089 19.8383 26.0504 19.8773 26.0027 19.8773Z" fill="#282B47"/>
<path d="M26.563 19.7821C26.5153 19.7821 26.4767 19.743 26.4767 19.6949V18.6033C26.4767 18.5552 26.5153 18.5161 26.563 18.5161C26.6106 18.5161 26.6492 18.5551 26.6492 18.6033V19.6949C26.6492 19.743 26.6106 19.7821 26.563 19.7821Z" fill="#282B47"/>
<path d="M27.1233 19.6732C27.0757 19.6732 27.0371 19.6342 27.0371 19.586V18.5488C27.0371 18.5007 27.0757 18.4617 27.1233 18.4617C27.171 18.4617 27.2096 18.5007 27.2096 18.5488V19.586C27.2096 19.6342 27.171 19.6732 27.1233 19.6732Z" fill="#282B47"/>
<path d="M27.6853 21.0635V17.9507L31.741 18.1272V20.8009L27.6853 21.0635Z" fill="white"/>
<path d="M27.6853 21.1508C27.6635 21.1508 27.6423 21.1424 27.6263 21.1271C27.6089 21.1106 27.599 21.0876 27.599 21.0635V17.9507C27.599 17.927 27.6086 17.9042 27.6256 17.8877C27.6426 17.8713 27.6656 17.8627 27.689 17.8636L31.7447 18.0401C31.7909 18.0421 31.8273 18.0805 31.8273 18.1272V20.8009C31.8273 20.8469 31.7919 20.885 31.7465 20.8879L27.6908 21.1505C27.6889 21.1507 27.6871 21.1508 27.6853 21.1508ZM27.7715 18.0418V20.9706L31.6547 20.7192V18.2108L27.7715 18.0418Z" fill="#282B47"/>
<path d="M31.1182 19.1592C31.0706 19.1592 31.032 19.1202 31.032 19.072V18.6033C31.032 18.5552 31.0706 18.5161 31.1182 18.5161C31.1658 18.5161 31.2044 18.5551 31.2044 18.6033V19.072C31.2044 19.1202 31.1658 19.1592 31.1182 19.1592Z" fill="#282B47"/>
<path d="M30.5547 19.2126C30.507 19.2126 30.4684 19.1736 30.4684 19.1254V18.571C30.4684 18.5228 30.507 18.4838 30.5547 18.4838C30.6023 18.4838 30.6409 18.5228 30.6409 18.571V19.1254C30.6409 19.1736 30.6023 19.2126 30.5547 19.2126Z" fill="#282B47"/>
<path d="M29.9912 19.313C29.9435 19.313 29.9049 19.2739 29.9049 19.2258V18.571C29.9049 18.5228 29.9435 18.4838 29.9912 18.4838C30.0388 18.4838 30.0774 18.5228 30.0774 18.571V19.2258C30.0774 19.274 30.0388 19.313 29.9912 19.313Z" fill="#282B47"/>
<path d="M29.4276 19.3915C29.38 19.3915 29.3414 19.3525 29.3414 19.3043V18.5488C29.3414 18.5007 29.38 18.4617 29.4276 18.4617C29.4753 18.4617 29.5139 18.5007 29.5139 18.5488V19.3043C29.5139 19.3525 29.4753 19.3915 29.4276 19.3915Z" fill="#282B47"/>
<path d="M28.8641 19.4641C28.8165 19.4641 28.7779 19.4251 28.7779 19.377V18.5167C28.7779 18.4685 28.8165 18.4294 28.8641 18.4294C28.9117 18.4294 28.9504 18.4685 28.9504 18.5167V19.377C28.9503 19.4251 28.9117 19.4641 28.8641 19.4641Z" fill="#282B47"/>
<path d="M28.3006 19.5384C28.253 19.5384 28.2144 19.4993 28.2144 19.4512V18.4622C28.2144 18.414 28.253 18.375 28.3006 18.375C28.3482 18.375 28.3868 18.414 28.3868 18.4622V19.4512C28.3868 19.4993 28.3482 19.5384 28.3006 19.5384Z" fill="#282B47"/>
<path d="M35.7425 19.5771C33.4826 18.6313 24.9609 20.3864 24.9609 20.3864L24.3793 21.258L13.3186 21.9827L12.9892 21.0057L8.11792 21.1869V22.1011C8.11792 22.3215 8.14598 22.5416 8.20608 22.7552C8.22701 22.8296 30.1814 21.7264 30.1814 21.7264C30.1814 21.7264 33.3679 21.5386 33.8276 21.577C34.9509 21.6708 35.0223 21.9203 35.0224 21.9206C36.0368 21.0927 37.0044 20.1052 35.7425 19.5771Z" fill="white"/>
<path d="M8.35037 22.845C8.14167 22.845 8.13632 22.8258 8.12316 22.7792C8.06249 22.5635 8.03174 22.3354 8.03174 22.1012V21.1871C8.03174 21.1402 8.06844 21.1016 8.11482 21.0999L12.9861 20.9187C13.0227 20.9173 13.0586 20.9412 13.071 20.9777L13.379 21.8915L24.3315 21.1739L24.8894 20.3378C24.9021 20.3188 24.9215 20.3057 24.9437 20.3011C25.2928 20.2292 33.5173 18.5515 35.7755 19.4966C36.1652 19.6597 36.3827 19.8819 36.422 20.157C36.5046 20.7358 35.7883 21.4077 35.0767 21.9886C35.0538 22.0073 35.023 22.0129 34.9951 22.0034C34.9711 21.9953 34.952 21.9769 34.9426 21.9536C34.9321 21.9382 34.7811 21.7443 33.8206 21.6641C33.3725 21.6266 30.2183 21.8117 30.1865 21.8136C30.1309 21.8164 24.6343 22.0925 19.2058 22.3559C16.0175 22.5107 13.4762 22.6308 11.6525 22.7131C10.5695 22.7619 9.73082 22.7978 9.15968 22.8196C8.74215 22.8356 8.49644 22.845 8.35037 22.845ZM8.27328 22.6722C8.27617 22.6722 8.27901 22.6722 8.28204 22.6722C9.34048 22.6722 22.9389 22.0032 30.1771 21.6395C30.3068 21.6319 33.374 21.4518 33.8348 21.4903C34.6147 21.5554 34.9176 21.6956 35.0349 21.7982C35.6099 21.3236 36.3201 20.6638 36.2512 20.1819C36.2212 19.972 36.039 19.7957 35.7095 19.6577C33.5719 18.763 25.6073 20.3448 25.0126 20.465L24.4508 21.3069C24.4359 21.3293 24.4115 21.3434 24.3849 21.3451L13.3241 22.0699C13.2856 22.072 13.2496 22.0482 13.2369 22.0109L12.9283 21.0953L8.20423 21.2711V22.1012C8.20423 22.2978 8.22744 22.4896 8.27328 22.6722ZM34.9388 21.9419C34.9392 21.9437 34.9397 21.9453 34.9402 21.9468C34.9397 21.9451 34.9392 21.9435 34.9388 21.9419Z" fill="#282B47"/>
<path d="M35.7424 19.5771C35.6395 19.534 35.5235 19.4966 35.396 19.4643C35.3558 19.4542 34.523 20.3649 33.9288 21.3982C33.8949 21.4572 33.8612 21.517 33.8278 21.5771C34.9509 21.6709 35.0223 21.9204 35.0224 21.9207C36.0367 21.0927 37.0044 20.1052 35.7424 19.5771Z" fill="white"/>
<path d="M35.0224 22.0079C35.0135 22.0079 35.0044 22.0065 34.9957 22.0036C34.9714 21.9956 34.952 21.9772 34.9425 21.9535C34.9321 21.9382 34.7813 21.7443 33.8207 21.664C33.7914 21.6616 33.7654 21.6442 33.7516 21.618C33.7379 21.5918 33.7383 21.5602 33.7527 21.5344C33.7863 21.4739 33.8202 21.4137 33.8543 21.3544C34.1764 20.7942 34.5482 20.3004 34.8034 19.9848C35.3137 19.3538 35.3758 19.3693 35.417 19.3797C35.5502 19.4134 35.6708 19.4527 35.7755 19.4965C36.1652 19.6596 36.3827 19.8818 36.422 20.1569C36.5046 20.7357 35.7883 21.4076 35.0767 21.9885C35.061 22.0012 35.0419 22.0079 35.0224 22.0079ZM34.9391 21.9432C34.9394 21.9443 34.9397 21.9454 34.9399 21.9463C34.9396 21.9453 34.9394 21.9442 34.9391 21.9432ZM33.9688 21.5026C34.6498 21.5719 34.9242 21.702 35.0346 21.7984C35.6096 21.3238 36.32 20.6639 36.2512 20.1819C36.2212 19.972 36.039 19.7957 35.7094 19.6577C35.6222 19.6212 35.5223 19.5879 35.4121 19.5585C35.2614 19.6945 34.537 20.514 34.0033 21.442C33.9918 21.4622 33.9803 21.4823 33.9688 21.5026Z" fill="#282B47"/>
<path d="M32.8109 23.6718L8.86908 23.8654C9.50608 24.5108 10.3888 24.8253 10.9362 24.9673C11.1984 25.0353 11.4699 25.0722 11.7436 25.0779L32.1468 25.3984C32.1468 25.3984 32.7374 24.4663 33.2123 23.7287L32.8109 23.6718Z" fill="white"/>
<path d="M32.1468 25.4856C32.1463 25.4856 32.1459 25.4856 32.1454 25.4855L11.7422 25.165C11.4604 25.1592 11.1822 25.121 10.9148 25.0517C10.3037 24.8932 9.44214 24.5694 8.80802 23.9269C8.78353 23.9021 8.77609 23.8648 8.78929 23.8323C8.80249 23.7998 8.83369 23.7785 8.86843 23.7782L32.8103 23.5845C32.8139 23.5844 32.8187 23.5847 32.823 23.5853L33.2243 23.6423C33.2535 23.6464 33.2786 23.6654 33.2908 23.6925C33.303 23.7197 33.3007 23.7512 33.2846 23.7762C32.8154 24.505 32.2254 25.436 32.2194 25.4454C32.2036 25.4705 32.1761 25.4856 32.1468 25.4856ZM9.0862 23.9508C9.70913 24.498 10.5127 24.7674 10.9577 24.8828C11.2122 24.9488 11.4773 24.9851 11.7454 24.9906L32.1001 25.3104C32.2124 25.1334 32.6681 24.4153 33.0661 23.796L32.8053 23.759L9.0862 23.9508Z" fill="#282B47"/>
<path d="M32.9612 23.4166C32.9494 23.4166 32.9373 23.4141 32.9258 23.4088C32.8824 23.3891 32.8631 23.3374 32.8827 23.2935C33.2127 22.5541 33.5396 21.9017 33.8543 21.3544C34.2649 20.6403 34.8067 19.9544 35.1459 19.584C35.1782 19.5486 35.2328 19.5466 35.2677 19.5792C35.3027 19.612 35.3048 19.6671 35.2724 19.7025C34.9392 20.0663 34.4069 20.7403 34.0034 21.4421C33.6916 21.9842 33.3675 22.6312 33.0399 23.3652C33.0255 23.3975 32.9941 23.4166 32.9612 23.4166Z" fill="#282B47"/>
<path d="M32.1468 25.4856C32.1463 25.4856 32.1459 25.4856 32.1454 25.4856L11.7422 25.165C11.4603 25.1593 11.1821 25.1211 10.9148 25.0518C10.1761 24.8601 8.85149 24.3632 8.27959 23.188C8.1151 22.8499 8.03168 22.4804 8.03168 22.0898V21.1871C8.03168 21.1404 8.06816 21.1019 8.11434 21.1L12.9834 20.8952C13.0216 20.8938 13.0565 20.9178 13.0688 20.9546L13.3792 21.8915L24.3314 21.1739L24.8893 20.3378C24.902 20.3188 24.9214 20.3057 24.9436 20.3011C25.2927 20.2292 33.5172 18.5515 35.7754 19.4966C36.1683 19.661 36.3861 19.8855 36.4228 20.1636C36.5161 20.8701 35.4173 21.7288 34.5343 22.4187C34.1354 22.7304 33.7909 22.9996 33.6842 23.161C33.2579 23.8065 32.2297 25.4291 32.2194 25.4454C32.2035 25.4705 32.1761 25.4856 32.1468 25.4856ZM8.20421 21.2708V22.0898C8.20421 22.4535 8.28164 22.7971 8.43445 23.111C8.97586 24.2235 10.2477 24.6987 10.9577 24.8828C11.2121 24.9489 11.4771 24.9851 11.7454 24.9907L32.1001 25.3105C32.2633 25.0532 33.1517 23.6535 33.5409 23.0642C33.6632 22.8791 34.0011 22.615 34.4289 22.2807C35.2321 21.6531 36.3321 20.7936 36.2519 20.1867C36.2239 19.9747 36.0414 19.7967 35.7095 19.6578C33.5719 18.763 25.6074 20.3449 25.0126 20.465L24.4509 21.307C24.4359 21.3294 24.4116 21.3435 24.3849 21.3452L13.3242 22.0699C13.2858 22.0727 13.2493 22.0481 13.2369 22.0106L12.9259 21.0722L8.20421 21.2708Z" fill="#282B47"/>
<path d="M57.0983 58.1899C55.9684 58.1899 55.0525 59.1134 55.0525 60.2524C55.0525 60.5372 55.1804 60.9354 55.3721 61.3726C55.8556 62.4746 56.7452 63.824 57.0172 64.2272C57.0562 64.285 57.1404 64.2852 57.1793 64.2274C57.5591 63.6645 59.1441 61.255 59.1441 60.2524C59.1441 59.1134 58.2282 58.1899 57.0983 58.1899Z" fill="#282B47"/>
<path d="M57.0983 61.1525C57.5927 61.1525 57.9934 60.7474 57.9934 60.2475C57.9934 59.7477 57.5927 59.3425 57.0983 59.3425C56.6039 59.3425 56.2032 59.7477 56.2032 60.2475C56.2032 60.7474 56.6039 61.1525 57.0983 61.1525Z" fill="white"/>
<path d="M41.7066 48.1128C40.5767 48.1128 39.6608 49.0362 39.6608 50.1753C39.6608 50.46 39.7886 50.8582 39.9804 51.2955C40.4639 52.3974 41.3535 53.7469 41.6255 54.1501C41.6645 54.2079 41.7486 54.208 41.7876 54.1502C42.1674 53.5873 43.7524 51.1779 43.7524 50.1753C43.7525 49.0362 42.8365 48.1128 41.7066 48.1128Z" fill="#282B47"/>
<path d="M42.5773 50.3833C42.6909 49.8969 42.393 49.4095 41.9119 49.2946C41.4307 49.1798 40.9486 49.481 40.835 49.9674C40.7214 50.4538 41.0193 50.9413 41.5005 51.0561C41.9816 51.171 42.4637 50.8698 42.5773 50.3833Z" fill="white"/>
<path d="M20.6854 51.8286C20.6626 51.8286 20.6398 51.8195 20.6229 51.8015C20.3829 51.5464 20.1472 51.2857 19.9225 51.0265C19.8911 50.9903 19.8946 50.9352 19.9305 50.9034C19.9663 50.8716 20.0208 50.8753 20.0522 50.9115C20.2754 51.1689 20.5094 51.4279 20.7479 51.6812C20.7807 51.7161 20.7793 51.7713 20.7448 51.8045C20.7281 51.8206 20.7067 51.8286 20.6854 51.8286ZM19.3221 50.2549C19.2969 50.2549 19.2719 50.2437 19.2548 50.2223C19.0366 49.9475 18.8242 49.6669 18.6233 49.3884C18.5952 49.3495 18.6036 49.295 18.6422 49.2666C18.6806 49.2383 18.7346 49.2468 18.7627 49.2857C18.9619 49.562 19.1728 49.8404 19.3893 50.1131C19.4191 50.1507 19.4132 50.2055 19.3761 50.2357C19.3602 50.2486 19.3411 50.2549 19.3221 50.2549ZM18.104 48.5643C18.0759 48.5643 18.0484 48.5504 18.0318 48.5249C17.8407 48.2306 17.6564 47.9301 17.4842 47.6319C17.4602 47.5903 17.474 47.5369 17.5151 47.5126C17.5563 47.4884 17.6091 47.5024 17.6331 47.544C17.8039 47.8396 17.9865 48.1374 18.176 48.4292C18.2022 48.4695 18.1911 48.5236 18.1512 48.55C18.1367 48.5596 18.1202 48.5643 18.104 48.5643ZM54.7991 47.4689C54.7341 47.4689 54.669 47.468 54.6037 47.4662C54.5561 47.465 54.5185 47.4249 54.5198 47.3768C54.521 47.3286 54.5614 47.2922 54.6083 47.2919C54.9486 47.301 55.2898 47.2857 55.6286 47.2467C55.6756 47.2412 55.7187 47.2756 55.7241 47.3235C55.7295 47.3713 55.6954 47.4145 55.6481 47.42C55.3663 47.4524 55.0806 47.4689 54.7991 47.4689ZM53.5754 47.3856C53.5719 47.3856 53.5685 47.3854 53.5649 47.3849C53.2118 47.3417 52.8667 47.2822 52.5391 47.2083C52.4926 47.1978 52.4633 47.1511 52.4737 47.1042C52.4841 47.0572 52.5305 47.0276 52.5766 47.038C52.8987 47.1107 53.2381 47.1692 53.5857 47.2118C53.6329 47.2176 53.6666 47.2611 53.6609 47.3089C53.6556 47.3532 53.6184 47.3856 53.5754 47.3856ZM56.6553 47.2325C56.6167 47.2325 56.5815 47.2062 56.5717 47.1666C56.56 47.1199 56.5881 47.0726 56.6343 47.0607C56.9598 46.9777 57.2876 46.8714 57.6085 46.7447C57.6529 46.7272 57.7029 46.7493 57.7203 46.7942C57.7375 46.8391 57.7156 46.8896 57.6713 46.9072C57.3436 47.0365 57.0089 47.1451 56.6764 47.2299C56.6694 47.2317 56.6622 47.2325 56.6553 47.2325ZM51.5649 46.9265C51.5556 46.9265 51.546 46.925 51.5367 46.9217C51.2105 46.8076 50.8865 46.672 50.5738 46.5186C50.531 46.4976 50.5131 46.4455 50.5338 46.4021C50.5546 46.3588 50.6063 46.3408 50.6491 46.3617C50.9557 46.5121 51.2734 46.645 51.5932 46.757C51.6382 46.7727 51.662 46.8224 51.6465 46.8679C51.6341 46.9039 51.6007 46.9265 51.5649 46.9265ZM17.062 46.7575C17.0306 46.7575 17.0004 46.7401 16.9851 46.7099C16.8263 46.3958 16.6763 46.0762 16.5393 45.7601C16.5202 45.716 16.5401 45.6646 16.5837 45.6453C16.6275 45.6259 16.6782 45.6461 16.6973 45.6902C16.8329 46.0031 16.9814 46.3195 17.1387 46.6306C17.1603 46.6735 17.1435 46.726 17.1011 46.7479C17.0886 46.7544 17.0752 46.7575 17.062 46.7575ZM58.5799 46.4766C58.549 46.4766 58.5191 46.4598 58.5036 46.4302C58.4813 46.3877 58.4973 46.3349 58.5394 46.3124C58.8365 46.1531 59.1322 45.9732 59.4181 45.7778C59.4577 45.7509 59.5112 45.7614 59.5379 45.8013C59.5646 45.8412 59.5542 45.8954 59.5147 45.9223C59.2237 46.1211 58.9227 46.3042 58.6203 46.4664C58.6073 46.4733 58.5934 46.4766 58.5799 46.4766ZM49.7089 46.0204C49.6932 46.0204 49.6774 46.0162 49.6632 46.0071C49.3801 45.8276 49.1003 45.6317 48.8077 45.4081C48.7697 45.3791 48.7622 45.3243 48.7909 45.2859C48.8196 45.2475 48.8736 45.2399 48.9117 45.2689C49.2003 45.4895 49.476 45.6826 49.7548 45.8593C49.7951 45.8849 49.8073 45.9387 49.782 45.9795C49.7657 46.006 49.7376 46.0204 49.7089 46.0204ZM60.294 45.3085C60.2693 45.3085 60.2448 45.2978 60.2277 45.2771C60.1972 45.24 60.2022 45.1851 60.2388 45.1543C60.4993 44.9352 60.7541 44.6993 60.996 44.4532C61.0296 44.419 61.0843 44.4188 61.118 44.4528C61.1518 44.4867 61.1519 44.5419 61.1184 44.5761C60.8727 44.8262 60.6138 45.0658 60.3491 45.2884C60.333 45.3019 60.3135 45.3085 60.294 45.3085ZM16.2333 44.8414C16.198 44.8414 16.165 44.8194 16.1522 44.784C16.0326 44.4518 15.924 44.1153 15.8295 43.7839C15.8163 43.7376 15.8427 43.6892 15.8885 43.6759C15.9338 43.6625 15.982 43.6892 15.9952 43.7355C16.0886 44.0631 16.196 44.3958 16.3142 44.7243C16.3306 44.7696 16.3075 44.8196 16.2628 44.8361C16.253 44.8397 16.2431 44.8414 16.2333 44.8414ZM48.0565 44.7683C48.0366 44.7683 48.0166 44.7614 48.0004 44.7473C47.7593 44.538 47.5067 44.3091 47.228 44.0474C47.1931 44.0146 47.1911 43.9594 47.2235 43.9242C47.256 43.8889 47.3104 43.8868 47.3454 43.9196C47.6224 44.1797 47.8734 44.4072 48.1127 44.6149C48.1488 44.6463 48.153 44.7014 48.1219 44.7379C48.1049 44.7581 48.0808 44.7683 48.0565 44.7683ZM61.7516 43.8259C61.7323 43.8259 61.7129 43.8194 61.6968 43.806C61.66 43.7754 61.6548 43.7204 61.6851 43.6833C61.9032 43.4155 62.1101 43.1358 62.3001 42.8518C62.3267 42.8119 62.3804 42.8015 62.4198 42.8284C62.4593 42.8554 62.4697 42.9096 62.443 42.9495C62.25 43.238 62.0398 43.5222 61.8182 43.7942C61.8012 43.8151 61.7765 43.8259 61.7516 43.8259ZM46.5373 43.3505C46.5157 43.3505 46.4941 43.3424 46.4774 43.326C46.237 43.0908 45.9909 42.8471 45.7369 42.5953C45.703 42.5616 45.7024 42.5064 45.7358 42.472C45.7691 42.4377 45.8237 42.4371 45.8577 42.4709C46.1114 42.7224 46.3572 42.9658 46.5973 43.2007C46.6315 43.2342 46.6324 43.2894 46.5993 43.324C46.5824 43.3416 46.5599 43.3505 46.5373 43.3505ZM15.6615 42.832C15.6216 42.832 15.5857 42.8038 15.5772 42.7627C15.5049 42.4161 15.4462 42.0669 15.4024 41.7247C15.3963 41.677 15.4297 41.6333 15.4769 41.6271C15.5241 41.6208 15.5674 41.6546 15.5735 41.7024C15.6166 42.04 15.6747 42.3847 15.746 42.7268C15.7558 42.7739 15.726 42.8202 15.6794 42.8301C15.6734 42.8313 15.6674 42.832 15.6615 42.832ZM62.9081 42.0932C62.8943 42.0932 62.8803 42.0898 62.8673 42.0827C62.8253 42.0598 62.8097 42.007 62.8322 41.9646C62.9976 41.6543 63.1444 41.3387 63.2685 41.0266C63.2863 40.9819 63.3365 40.9601 63.3807 40.9782C63.4248 40.9961 63.4463 41.0469 63.4285 41.0916C63.302 41.4098 63.1525 41.7313 62.9841 42.0473C62.9685 42.0765 62.9388 42.0932 62.9081 42.0932ZM45.0585 41.8888C45.0368 41.8888 45.0151 41.8805 44.9983 41.864C44.7589 41.628 44.5117 41.386 44.2552 41.1381C44.2208 41.1048 44.2195 41.0496 44.2525 41.0148C44.2854 40.98 44.34 40.9788 44.3744 41.012C44.6313 41.2603 44.8789 41.5027 45.1187 41.7391C45.1528 41.7727 45.1535 41.8279 45.1202 41.8624C45.1034 41.88 45.0809 41.8888 45.0585 41.8888ZM15.3987 40.7586C15.3528 40.7586 15.3146 40.722 15.3127 40.6752C15.3057 40.5114 15.3022 40.3462 15.3022 40.1841C15.3022 39.9951 15.307 39.8057 15.3164 39.621C15.3188 39.5729 15.3594 39.5363 15.407 39.5384C15.4545 39.5409 15.4911 39.5819 15.4886 39.63C15.4794 39.8117 15.4746 39.9981 15.4746 40.184C15.4747 40.3437 15.4781 40.5065 15.485 40.6677C15.487 40.7158 15.45 40.7565 15.4024 40.7585C15.4013 40.7586 15.4 40.7586 15.3987 40.7586ZM43.5624 40.445C43.5414 40.445 43.5204 40.4372 43.5037 40.4216C43.2472 40.1806 42.9907 39.9437 42.7414 39.7174C42.706 39.6851 42.703 39.6301 42.7349 39.5942C42.7667 39.5584 42.8212 39.5554 42.8567 39.5876C43.1067 39.8145 43.3639 40.0522 43.6212 40.2939C43.6561 40.3267 43.6581 40.3818 43.6257 40.4171C43.6086 40.4356 43.5855 40.445 43.5624 40.445ZM63.672 40.1528C63.6649 40.1528 63.6578 40.1519 63.6506 40.1501C63.6045 40.1382 63.5766 40.0907 63.5883 40.0441C63.6758 39.6968 63.7336 39.355 63.76 39.0282C63.7639 38.9802 63.8059 38.9443 63.853 38.9484C63.9005 38.9524 63.9358 38.9945 63.9319 39.0425C63.9047 39.3789 63.8453 39.7304 63.7555 40.0871C63.7456 40.1265 63.7105 40.1528 63.672 40.1528ZM42.0231 39.0483C42.0032 39.0483 41.9831 39.0413 41.9667 39.0271C41.7064 38.7995 41.4414 38.5724 41.1793 38.352C41.1426 38.3212 41.1376 38.2663 41.1681 38.2292C41.1985 38.1922 41.2529 38.1871 41.2895 38.2179C41.5526 38.439 41.8184 38.6668 42.0796 38.8952C42.1156 38.9267 42.1196 38.9818 42.0884 39.0182C42.0713 39.0381 42.0473 39.0483 42.0231 39.0483ZM15.5091 38.6723C15.5046 38.6723 15.5001 38.672 15.4955 38.6713C15.4485 38.6637 15.4164 38.6191 15.4238 38.5715C15.4794 38.2161 15.5546 37.8689 15.6473 37.5397C15.6603 37.4934 15.7079 37.4666 15.7539 37.4797C15.7996 37.4929 15.8262 37.5412 15.8132 37.5875C15.7224 37.91 15.6487 38.2502 15.5942 38.5988C15.5875 38.6417 15.5509 38.6723 15.5091 38.6723ZM63.8207 38.0786C63.7785 38.0786 63.7415 38.0472 63.7354 38.0037C63.7161 37.8665 63.6896 37.7315 63.6568 37.6026C63.6065 37.4047 63.5422 37.2084 63.4657 37.0191C63.4477 36.9745 63.4688 36.9236 63.5129 36.9053C63.5572 36.8872 63.6074 36.9085 63.6254 36.9531C63.7049 37.1497 63.7716 37.3536 63.8239 37.5591C63.8582 37.6942 63.8859 37.8355 63.9061 37.9791C63.9129 38.0267 63.8801 38.0709 63.833 38.0777C63.8288 38.0783 63.8247 38.0786 63.8207 38.0786ZM40.4325 37.7118C40.4136 37.7118 40.3946 37.7056 40.3788 37.6928C40.111 37.4768 39.8374 37.2604 39.5654 37.0496C39.5276 37.0204 39.5205 36.9656 39.5495 36.9274C39.5784 36.8892 39.6325 36.882 39.6704 36.9112C39.9432 37.1227 40.2178 37.3398 40.4863 37.5565C40.5236 37.5865 40.5296 37.6414 40.4999 37.679C40.4829 37.7005 40.4578 37.7118 40.4325 37.7118ZM16.081 36.6673C16.0693 36.6673 16.0574 36.6649 16.046 36.6597C16.0025 36.6401 15.9829 36.5885 16.0023 36.5445C16.1502 36.2094 16.3207 35.8971 16.509 35.6162C16.5357 35.5763 16.5895 35.5659 16.6288 35.593C16.6682 35.62 16.6786 35.6742 16.6518 35.7141C16.4691 35.9865 16.3036 36.2898 16.1598 36.6156C16.1456 36.648 16.114 36.6673 16.081 36.6673ZM38.7909 36.4396C38.7732 36.4396 38.7553 36.4341 38.7399 36.4226C38.5864 36.3084 38.4305 36.1936 38.2719 36.0782C38.1484 35.9883 38.025 35.8998 37.9018 35.8128C37.8628 35.7851 37.8532 35.7308 37.8805 35.6913C37.9079 35.6518 37.9617 35.6422 38.0006 35.6698C38.1245 35.7574 38.2485 35.8463 38.3727 35.9367C38.5318 36.0524 38.6881 36.1676 38.8421 36.2822C38.8805 36.3108 38.8887 36.3653 38.8604 36.4041C38.8436 36.4273 38.8174 36.4396 38.7909 36.4396ZM63.0527 36.1568C63.0253 36.1568 62.9984 36.1436 62.9816 36.1191C62.7946 35.8455 62.5736 35.5815 62.325 35.3344C62.2911 35.3006 62.2906 35.2454 62.324 35.2111C62.3573 35.1768 62.4119 35.1763 62.446 35.21C62.7022 35.4648 62.9302 35.7373 63.1235 36.02C63.1506 36.0596 63.1408 36.1139 63.1016 36.1413C63.0867 36.1518 63.0696 36.1568 63.0527 36.1568ZM37.0935 35.2428C37.0773 35.2428 37.061 35.2382 37.0465 35.2286C36.7592 35.0391 36.4654 34.852 36.173 34.6725C36.1323 34.6475 36.1193 34.5939 36.1441 34.5527C36.1688 34.5116 36.2219 34.4984 36.2626 34.5234C36.5565 34.7039 36.8519 34.8921 37.1407 35.0826C37.1806 35.1089 37.1918 35.1629 37.1658 35.2032C37.1493 35.2289 37.1217 35.2428 37.0935 35.2428ZM17.2333 34.9418C17.2119 34.9418 17.1906 34.9339 17.1739 34.9179C17.1393 34.8848 17.1378 34.8296 17.1706 34.7946C17.3996 34.5502 17.6565 34.3077 17.9343 34.0737C17.9709 34.0429 18.0253 34.0479 18.0558 34.0849C18.0863 34.1219 18.0814 34.1769 18.0448 34.2078C17.7722 34.4374 17.5202 34.6752 17.2959 34.9146C17.2789 34.9326 17.2561 34.9418 17.2333 34.9418ZM61.5918 34.6897C61.5744 34.6897 61.557 34.6844 61.5418 34.6735C61.273 34.4798 60.9799 34.2973 60.6706 34.1312C60.6286 34.1086 60.6126 34.0558 60.6349 34.0132C60.6573 33.9707 60.7096 33.9545 60.7515 33.9772C61.0675 34.1469 61.367 34.3334 61.6419 34.5315C61.6807 34.5594 61.6897 34.6139 61.6621 34.6531C61.6452 34.677 61.6187 34.6897 61.5918 34.6897ZM35.3245 34.1564C35.3102 34.1564 35.2956 34.1528 35.2822 34.1451C34.9833 33.9746 34.678 33.8072 34.375 33.6475C34.3327 33.6252 34.3163 33.5725 34.3384 33.5298C34.3604 33.4871 34.4125 33.4706 34.4547 33.4928C34.7594 33.6534 35.0663 33.8217 35.367 33.9932C35.4085 34.0168 35.4232 34.0701 35.3998 34.112C35.3839 34.1404 35.3546 34.1564 35.3245 34.1564ZM59.7716 33.7041C59.761 33.7041 59.7503 33.7021 59.7399 33.698C59.428 33.5731 59.101 33.461 58.7678 33.3648C58.722 33.3516 58.6955 33.3033 58.7085 33.257C58.7216 33.2107 58.7694 33.1839 58.8151 33.1971C59.1537 33.2948 59.4862 33.4088 59.8034 33.5358C59.8477 33.5535 59.8694 33.6042 59.8518 33.649C59.8384 33.6832 59.806 33.7041 59.7716 33.7041ZM18.816 33.598C18.7885 33.598 18.7615 33.5847 18.7448 33.5601C18.7179 33.5203 18.7279 33.466 18.7672 33.4388C19.0462 33.2456 19.3433 33.0575 19.6502 32.8795C19.6916 32.8555 19.7443 32.87 19.768 32.9117C19.7916 32.9535 19.7774 33.0068 19.736 33.0308C19.433 33.2065 19.1399 33.3922 18.8646 33.5827C18.8498 33.593 18.8328 33.598 18.816 33.598ZM33.4891 33.1892C33.4766 33.1892 33.4639 33.1864 33.4519 33.1806C33.1411 33.03 32.8255 32.8838 32.5136 32.7459C32.47 32.7266 32.4501 32.6752 32.4692 32.6311C32.4883 32.5869 32.5391 32.5669 32.5827 32.5861C32.8964 32.7248 33.2139 32.8719 33.5264 33.0233C33.5694 33.0441 33.5875 33.0962 33.5669 33.1396C33.5521 33.1709 33.5212 33.1892 33.4891 33.1892ZM57.7835 33.1279C57.7782 33.1279 57.7728 33.1274 57.7675 33.1264C57.4306 33.0624 57.0883 33.0137 56.7503 32.9817C56.7029 32.9772 56.668 32.9347 56.6725 32.8867C56.677 32.8388 56.7189 32.8037 56.7664 32.8081C57.1098 32.8406 57.4572 32.89 57.7993 32.955C57.8461 32.9639 57.877 33.0094 57.8682 33.0568C57.8604 33.0987 57.8241 33.1279 57.7835 33.1279ZM55.2676 32.9478C55.222 32.9478 55.184 32.9118 55.1816 32.8652C55.179 32.8171 55.2156 32.7761 55.2631 32.7736C55.4138 32.7655 55.5689 32.7611 55.7241 32.7603C55.7242 32.7603 55.7244 32.7603 55.7245 32.7603C55.772 32.7603 55.8105 32.7991 55.8107 32.8471C55.811 32.8952 55.7725 32.9345 55.7249 32.9347C55.5724 32.9354 55.4202 32.9398 55.2722 32.9477C55.2707 32.9478 55.2691 32.9478 55.2676 32.9478ZM20.6084 32.5551C20.5764 32.5551 20.5456 32.537 20.5307 32.5058C20.51 32.4624 20.528 32.4103 20.5709 32.3894C20.8801 32.2385 21.2005 32.0955 21.5231 31.9643C21.5672 31.9462 21.6175 31.968 21.6353 32.0126C21.6531 32.0573 21.6316 32.1081 21.5874 32.1261C21.2685 32.2558 20.9516 32.3972 20.6459 32.5464C20.6338 32.5523 20.621 32.5551 20.6084 32.5551ZM31.5924 32.3514C31.5819 32.3514 31.5712 32.3494 31.5608 32.3453C31.2371 32.2162 30.9118 32.0937 30.5939 31.9813C30.5489 31.9653 30.5252 31.9156 30.541 31.8702C30.5567 31.8247 30.6059 31.8007 30.6508 31.8166C30.9708 31.9298 31.2983 32.0531 31.6241 32.183C31.6684 32.2007 31.6902 32.2513 31.6727 32.2961C31.6593 32.3304 31.6268 32.3514 31.5924 32.3514ZM22.5284 31.7739C22.4921 31.7739 22.4583 31.7505 22.4465 31.7137C22.4317 31.668 22.4563 31.6187 22.5016 31.6037C22.8333 31.494 23.1698 31.3954 23.5016 31.3106C23.5481 31.2988 23.5947 31.3271 23.6064 31.3738C23.618 31.4205 23.59 31.4679 23.5439 31.4797C23.2158 31.5635 22.8832 31.661 22.5553 31.7695C22.5463 31.7725 22.5373 31.7739 22.5284 31.7739ZM29.6383 31.6618C29.63 31.6618 29.6216 31.6606 29.6134 31.6581C29.2721 31.5541 28.9376 31.4616 28.6194 31.3832C28.5731 31.3718 28.5447 31.3246 28.556 31.2778C28.5673 31.231 28.614 31.2023 28.6602 31.2138C28.9815 31.2929 29.3189 31.3862 29.6631 31.4911C29.7087 31.5049 29.7345 31.5536 29.7208 31.5997C29.7096 31.6374 29.6753 31.6618 29.6383 31.6618ZM24.5349 31.2634C24.4937 31.2634 24.4573 31.2336 24.45 31.1912C24.4418 31.1437 24.4732 31.0986 24.5201 31.0903C24.8706 31.0285 25.2183 30.9823 25.5537 30.9528C25.6011 30.9489 25.643 30.9842 25.6471 31.0322C25.6512 31.0802 25.6161 31.1225 25.5686 31.1266C25.2382 31.1556 24.8954 31.2012 24.5498 31.2621C24.5448 31.263 24.5398 31.2634 24.5349 31.2634ZM27.6262 31.1747C27.6218 31.1747 27.6174 31.1744 27.613 31.1737C27.2928 31.1239 26.9499 31.0955 26.5937 31.089C26.5461 31.0881 26.5082 31.0484 26.5091 31.0003C26.5099 30.9521 26.5504 30.9122 26.5969 30.9147C26.9608 30.9213 27.3115 30.9504 27.6392 31.0014C27.6863 31.0087 27.7186 31.0532 27.7113 31.1008C27.7048 31.1439 27.668 31.1747 27.6262 31.1747Z" fill="#282B47"/>
<path d="M20.318 10.2878C20.2908 10.2878 20.264 10.2748 20.2472 10.2505C20.2199 10.211 20.2295 10.1567 20.2686 10.1291C22.9714 8.22162 25.9918 6.97456 29.2458 6.42261C29.2933 6.4146 29.3373 6.44673 29.3452 6.49419C29.353 6.54169 29.3213 6.58666 29.2744 6.5946C26.0458 7.14221 23.049 8.37949 20.3673 10.2721C20.3523 10.2827 20.3351 10.2878 20.318 10.2878Z" fill="#282B47"/>
<path d="M22.0523 11.2921C22.0244 11.2921 21.997 11.2785 21.9804 11.2532C21.954 11.2131 21.9649 11.1589 22.0045 11.1323C25.9112 8.51004 30.9527 7.49761 34.494 7.11002C34.5408 7.1048 34.5839 7.13942 34.589 7.18731C34.5941 7.23519 34.5599 7.27821 34.5125 7.28338C30.9903 7.66887 25.9776 8.67474 22.0999 11.2775C22.0852 11.2874 22.0687 11.2921 22.0523 11.2921Z" fill="#282B47"/>
<path d="M7.2901 46.2854C7.27379 46.2854 7.25734 46.2807 7.24266 46.271C7.20292 46.2445 7.19196 46.1904 7.21817 46.1502L7.58742 45.5841C7.61374 45.5439 7.66713 45.5328 7.70694 45.5593C7.74668 45.5858 7.75764 45.6399 7.73144 45.6801L7.36218 46.2462C7.34561 46.2716 7.31808 46.2854 7.2901 46.2854Z" fill="#282B47"/>
<path d="M6.42996 47.6043C6.41366 47.6043 6.3972 47.5996 6.3826 47.5898C6.34278 47.5633 6.33186 47.5093 6.35807 47.469L6.72732 46.9029C6.75356 46.8628 6.80707 46.8517 6.84681 46.8782C6.88662 46.9047 6.89754 46.9588 6.87134 46.999L6.50208 47.5651C6.48547 47.5905 6.45798 47.6043 6.42996 47.6043Z" fill="#282B47"/>
<path d="M6.67246 46.4136C6.65615 46.4136 6.6397 46.409 6.6251 46.3992L6.06515 46.0259C6.02537 45.9994 6.01441 45.9453 6.04061 45.9051C6.06689 45.865 6.12039 45.8539 6.1601 45.8803L6.72005 46.2537C6.75982 46.2802 6.77078 46.3342 6.74458 46.3745C6.72797 46.3999 6.70044 46.4136 6.67246 46.4136Z" fill="#282B47"/>
<path d="M7.97674 47.2833C7.96044 47.2833 7.94398 47.2786 7.92938 47.2689L7.36947 46.8956C7.32969 46.8691 7.31873 46.815 7.34493 46.7748C7.37125 46.7346 7.42479 46.7235 7.46442 46.75L8.02433 47.1233C8.06411 47.1498 8.07507 47.2039 8.04886 47.2441C8.03226 47.2695 8.00476 47.2833 7.97674 47.2833Z" fill="#282B47"/>
<path d="M71.3945 29.8759C71.3782 29.8759 71.3618 29.8713 71.3472 29.8616C71.3074 29.835 71.2964 29.781 71.3227 29.7408L71.6919 29.1747C71.7181 29.1345 71.7716 29.1234 71.8113 29.1499C71.8512 29.1764 71.8621 29.2305 71.8359 29.2707L71.4667 29.8368C71.4501 29.8621 71.4226 29.8759 71.3945 29.8759Z" fill="#282B47"/>
<path d="M70.5344 31.1947C70.5181 31.1947 70.5016 31.19 70.487 31.1803C70.4472 31.1538 70.4363 31.0997 70.4625 31.0595L70.8317 30.4934C70.858 30.4532 70.9115 30.4421 70.9512 30.4686C70.991 30.4951 71.002 30.5492 70.9758 30.5894L70.6065 31.1555C70.5899 31.1809 70.5624 31.1947 70.5344 31.1947Z" fill="#282B47"/>
<path d="M70.7769 30.004C70.7606 30.004 70.7442 29.9994 70.7295 29.9896L70.1696 29.6163C70.1299 29.5898 70.1189 29.5357 70.1451 29.4955C70.1714 29.4553 70.2249 29.4442 70.2646 29.4707L70.8245 29.844C70.8643 29.8705 70.8752 29.9246 70.849 29.9648C70.8324 29.9903 70.8049 30.004 70.7769 30.004Z" fill="#282B47"/>
<path d="M72.0812 30.8738C72.0649 30.8738 72.0485 30.8691 72.0339 30.8593L71.474 30.486C71.4342 30.4595 71.4232 30.4055 71.4494 30.3652C71.4757 30.3251 71.5292 30.3139 71.5689 30.3405L72.1288 30.7138C72.1686 30.7403 72.1795 30.7944 72.1533 30.8346C72.1367 30.86 72.1092 30.8738 72.0812 30.8738Z" fill="#282B47"/>
<path d="M6.54959 42.8149C6.43102 42.8149 6.31226 42.7926 6.19823 42.7478C5.95009 42.6503 5.75458 42.4587 5.64776 42.2083C5.42958 41.6971 5.6558 41.0978 6.15197 40.8726C6.39079 40.7641 6.65653 40.7572 6.90027 40.853C7.14841 40.9506 7.34392 41.1421 7.45074 41.3925C7.66889 41.9037 7.44266 42.503 6.94653 42.7282C6.81943 42.7859 6.68462 42.8149 6.54959 42.8149ZM6.54906 40.9604C6.438 40.9604 6.3272 40.9842 6.22269 41.0316C5.81199 41.2181 5.62516 41.7149 5.80615 42.1392C5.89454 42.3464 6.056 42.5047 6.26076 42.5852C6.46113 42.664 6.67966 42.6582 6.87593 42.5691C7.28655 42.3826 7.47342 41.8858 7.29243 41.4615C7.20408 41.2544 7.04262 41.096 6.83785 41.0155C6.74416 40.9787 6.64651 40.9604 6.54906 40.9604Z" fill="#282B47"/>
<path d="M69.3862 26.1465C69.2862 26.1465 69.186 26.1277 69.0898 26.0899C68.8805 26.0077 68.7156 25.8461 68.6256 25.635C68.4417 25.204 68.6325 24.6989 69.0508 24.5089C69.2523 24.4174 69.4765 24.4116 69.6821 24.4924C69.8914 24.5747 70.0563 24.7362 70.1463 24.9473C70.3302 25.3783 70.1395 25.8835 69.7211 26.0734C69.6139 26.1221 69.5002 26.1465 69.3862 26.1465ZM69.3858 24.6102C69.2959 24.6102 69.2061 24.6295 69.1215 24.668C68.7886 24.8191 68.6372 25.2219 68.784 25.5659C68.8556 25.7337 68.9865 25.8621 69.1523 25.9273C69.3145 25.9911 69.4915 25.9864 69.6505 25.9142C69.9833 25.7631 70.1348 25.3603 69.988 25.0163C69.9164 24.8484 69.7855 24.7201 69.6196 24.6549C69.5438 24.6251 69.4647 24.6102 69.3858 24.6102Z" fill="#282B47"/>
<path d="M18.1431 69.1147C18.1427 69.1147 18.1421 69.1147 18.1421 69.1147H17.3381C17.3381 69.1147 17.3375 69.1147 17.3372 69.1147C17.0079 69.1147 16.741 69.9088 16.741 70.8848C16.741 71.8608 17.0079 72.6553 17.3372 72.6553C17.3375 72.6553 17.3379 72.6553 17.3379 72.6553H18.1421C18.1421 72.6553 18.1427 72.6553 18.1431 72.6553C18.4723 72.6553 18.7393 71.861 18.7393 70.885C18.7393 69.909 18.4724 69.1147 18.1431 69.1147Z" fill="white"/>
<path d="M18.1431 72.7425H17.3379C16.8939 72.7425 16.6548 71.7854 16.6548 70.8848C16.6548 69.9845 16.8939 69.0276 17.3372 69.0276H18.1431C18.5863 69.0276 18.8255 69.9846 18.8255 70.8851C18.8255 71.7855 18.5863 72.7425 18.1431 72.7425ZM17.338 69.2019C17.0965 69.2019 16.8273 69.9217 16.8273 70.8848C16.8273 71.8483 17.0965 72.5681 17.3372 72.5681H18.142C18.3838 72.5681 18.653 71.8483 18.653 70.885C18.653 69.9217 18.3838 69.2019 18.1431 69.2019H17.338Z" fill="#282B47"/>
<path d="M24.4064 71.7522V59.8872L8.27332 61.987V71.0272L24.4064 71.7522Z" fill="white"/>
<path d="M24.4064 71.8393C24.4052 71.8393 24.4039 71.8393 24.4026 71.8392L8.26947 71.1143C8.22336 71.1122 8.18707 71.0738 8.18707 71.0272V61.987C8.18707 61.9431 8.2193 61.9061 8.26234 61.9005L24.3955 59.8007C24.42 59.7974 24.4448 59.8051 24.4634 59.8216C24.482 59.8382 24.4927 59.8621 24.4927 59.8871V71.7521C24.4927 71.7759 24.4831 71.7986 24.4661 71.8151C24.45 71.8307 24.4286 71.8393 24.4064 71.8393ZM8.35957 70.9438L24.3202 71.661V59.9863L8.35957 62.0637V70.9438Z" fill="#282B47"/>
<path d="M22.3254 68.7009L22.8291 69.1769L22.6922 72.3916C22.6844 72.5762 22.8293 72.7302 23.0108 72.7302H25.8547V68.7106L22.3254 68.7009Z" fill="white"/>
<path d="M25.8547 72.8173H23.0108C22.8997 72.8173 22.796 72.7725 22.7189 72.6911C22.6412 72.6091 22.6012 72.5014 22.606 72.3877L22.7412 69.2131L22.2664 68.7645C22.2405 68.74 22.2321 68.7021 22.2451 68.6687C22.2581 68.6355 22.29 68.6136 22.3253 68.6136C22.3254 68.6136 22.3255 68.6136 22.3256 68.6136L25.8549 68.6233C25.9024 68.6234 25.9409 68.6625 25.9409 68.7105V72.7301C25.941 72.7783 25.9023 72.8173 25.8547 72.8173ZM22.5446 68.7886L22.888 69.1131C22.9064 69.1305 22.9164 69.1552 22.9153 69.1806L22.7784 72.3952C22.7756 72.4609 22.7987 72.5232 22.8435 72.5705C22.8878 72.6172 22.9472 72.6429 23.0108 72.6429H25.7684V68.7975L22.5446 68.7886Z" fill="#282B47"/>
<path d="M31.1666 56.5422H21.76V68.8061H31.1666V56.5422Z" fill="white"/>
<path d="M31.1666 68.8934H21.76C21.7124 68.8934 21.6738 68.8543 21.6738 68.8061V56.5423C21.6738 56.4941 21.7124 56.4551 21.76 56.4551H31.1666C31.2143 56.4551 31.2529 56.4941 31.2529 56.5423V68.8061C31.2529 68.8543 31.2143 68.8934 31.1666 68.8934ZM21.8463 68.719H31.0804V56.6295H21.8463V68.719Z" fill="#282B47"/>
<path d="M31.1667 68.8932H29.6629C29.6153 68.8932 29.5767 68.8542 29.5767 68.806C29.5767 68.7578 29.6153 68.7188 29.6629 68.7188H31.0804V56.6293H21.8463V68.806C21.8463 68.8542 21.8077 68.8932 21.76 68.8932C21.7124 68.8932 21.6738 68.8542 21.6738 68.806V56.5421C21.6738 56.494 21.7124 56.455 21.76 56.455H31.1667C31.2143 56.455 31.2529 56.494 31.2529 56.5421V68.806C31.2529 68.8542 31.2143 68.8932 31.1667 68.8932Z" fill="#282B47"/>
<path d="M25.2207 69.8628C25.2204 69.8628 25.2196 69.8628 25.2196 69.8628H24.2907C24.2907 69.8628 24.2901 69.8628 24.2898 69.8628C23.9093 69.8628 23.601 70.7795 23.601 71.9071C23.601 73.0347 23.9093 73.9519 24.2898 73.9519C24.29 73.9519 24.2905 73.9519 24.2905 73.9519H25.2196C25.2196 73.9519 25.2204 73.9519 25.2207 73.9519C25.6011 73.9519 25.9095 73.0349 25.9095 71.9073C25.9095 70.7797 25.6011 69.8628 25.2207 69.8628Z" fill="#282B47"/>
<path d="M24.2897 73.9193C24.6701 73.9193 24.9785 73.0052 24.9785 71.8776C24.9785 70.75 24.6701 69.8359 24.2897 69.8359C23.9093 69.8359 23.601 70.75 23.601 71.8776C23.601 73.0052 23.9093 73.9193 24.2897 73.9193Z" fill="white"/>
<path d="M24.2898 74.0064C23.7864 74.0064 23.5147 72.9096 23.5147 71.8775C23.5147 70.8455 23.7863 69.7487 24.2898 69.7487C24.7932 69.7487 25.0648 70.8455 25.0648 71.8775C25.0648 72.9096 24.7932 74.0064 24.2898 74.0064ZM24.2898 69.9231C24.0048 69.9231 23.6872 70.7257 23.6872 71.8775C23.6872 73.0293 24.0048 73.832 24.2898 73.832C24.5748 73.832 24.8923 73.0293 24.8923 71.8775C24.8923 70.7257 24.5747 69.9231 24.2898 69.9231Z" fill="#282B47"/>
<path d="M22.3052 60.2273L22.2778 68.749L22.5952 69.0194C22.7118 69.1187 22.7763 69.2676 22.7697 69.4221L22.6389 72.4917C22.6333 72.6224 22.7358 72.7315 22.8643 72.7317C22.9615 72.7318 23.0518 72.7311 23.0518 72.728C23.0518 70.811 23.408 69.2394 23.8687 69.2394C24.3294 69.2394 24.7029 70.7933 24.7029 72.7102C24.7029 72.7169 25.8057 72.7302 25.8057 72.7302V60.2634L22.3052 60.2273Z" fill="white"/>
<path d="M22.9219 72.8189C22.9046 72.8189 22.8854 72.8189 22.8642 72.8188C22.7786 72.8187 22.6989 72.7841 22.6396 72.7215C22.5799 72.6583 22.549 72.5754 22.5528 72.4879L22.6835 69.4182C22.6889 69.2915 22.6351 69.1674 22.5396 69.086L22.2221 68.8155C22.2027 68.7989 22.1914 68.7744 22.1915 68.7486L22.2189 60.2269C22.219 60.2037 22.2282 60.1815 22.2446 60.1651C22.2609 60.1488 22.2811 60.1404 22.306 60.14L25.8066 60.1762C25.8538 60.1767 25.8919 60.2155 25.8919 60.2634V72.7301C25.8919 72.7535 25.8827 72.7758 25.8663 72.7922C25.8499 72.8085 25.8275 72.8182 25.8047 72.8174C25.8047 72.8174 25.5288 72.8141 25.253 72.8099C24.6167 72.8003 24.6167 72.8003 24.6167 72.7102C24.6167 70.7161 24.2225 69.3265 23.8686 69.3265C23.5231 69.3265 23.138 70.7234 23.138 72.7279C23.138 72.7511 23.1289 72.7734 23.1126 72.7898C23.0865 72.8163 23.0839 72.8189 22.9219 72.8189ZM22.3641 68.7084L22.6509 68.9526C22.7869 69.0685 22.8635 69.2454 22.8558 69.4257L22.7251 72.4954C22.7234 72.5349 22.7373 72.5724 22.7643 72.6009C22.7908 72.6289 22.8263 72.6443 22.8644 72.6443C22.9081 72.6445 22.9412 72.6443 22.9659 72.6441C22.9755 70.8949 23.2852 69.1521 23.8687 69.1521C24.457 69.1521 24.7788 70.9268 24.789 72.6269C24.9609 72.6315 25.3874 72.6377 25.7195 72.6418V60.3496L22.3911 60.3153L22.3641 68.7084Z" fill="#282B47"/>
<path d="M25.8057 72.8172C25.8054 72.8172 25.805 72.8172 25.8047 72.8172C25.8047 72.8172 25.5288 72.8139 25.253 72.8097C24.6167 72.8002 24.6167 72.8002 24.6167 72.7101C24.6167 71.171 24.3736 69.8183 24.0255 69.4206C23.994 69.3845 23.9973 69.3294 24.033 69.2975C24.0688 69.2656 24.1232 69.269 24.1548 69.3051C24.5277 69.7311 24.7803 71.0598 24.789 72.6269C24.9764 72.6319 25.4663 72.6388 25.8068 72.6429C25.8544 72.6434 25.8925 72.6829 25.892 72.7311C25.8914 72.7788 25.8529 72.8172 25.8057 72.8172Z" fill="#282B47"/>
<path d="M32.8157 69.7628C32.8153 69.7628 32.8145 69.7628 32.8145 69.7628H31.8856C31.8856 69.7628 31.885 69.7628 31.8847 69.7628C31.5043 69.7628 31.1959 70.6795 31.1959 71.8071C31.1959 72.9347 31.5042 73.8519 31.8847 73.8519H31.8854H32.8145C32.8145 73.8519 32.8153 73.8519 32.8157 73.8519C33.1961 73.8519 33.5044 72.9349 33.5044 71.8073C33.5045 70.6798 33.1961 69.7628 32.8157 69.7628Z" fill="#282B47"/>
<path d="M31.8791 73.852C32.2626 73.852 32.5734 72.9306 32.5734 71.794C32.5734 70.6574 32.2626 69.736 31.8791 69.736C31.4957 69.736 31.1849 70.6574 31.1849 71.794C31.1849 72.9306 31.4957 73.852 31.8791 73.852Z" fill="white"/>
<path d="M31.8792 73.9392C31.3722 73.9392 31.0986 72.834 31.0986 71.794C31.0986 70.7541 31.3722 69.6488 31.8792 69.6488C32.3861 69.6488 32.6597 70.7541 32.6597 71.794C32.6597 72.834 32.3861 73.9392 31.8792 73.9392ZM31.8792 69.8232C31.5916 69.8232 31.2711 70.6326 31.2711 71.794C31.2711 72.9555 31.5916 73.7649 31.8792 73.7649C32.1667 73.7649 32.4872 72.9555 32.4872 71.794C32.4872 70.6326 32.1668 69.8232 31.8792 69.8232Z" fill="#282B47"/>
<path d="M33.6456 60.2399H25.8664V72.7303H34.3047C34.5565 72.7303 34.7606 72.5226 34.7606 72.2663V68.2614C34.7606 67.1491 34.6639 66.0389 34.4716 64.9439L33.6456 60.2399Z" fill="white"/>
<path d="M34.3047 72.8176H25.8664C25.8188 72.8176 25.7802 72.7785 25.7802 72.7303V60.2399C25.7802 60.1918 25.8188 60.1527 25.8664 60.1527H33.6456C33.6875 60.1527 33.7233 60.183 33.7305 60.2247L34.5565 64.9287C34.7492 66.0257 34.8468 67.147 34.8468 68.2614V72.2664C34.8468 72.5703 34.6036 72.8176 34.3047 72.8176ZM25.9526 72.6432H34.3047C34.5085 72.6432 34.6743 72.4741 34.6743 72.2664V68.2615C34.6743 67.1572 34.5775 66.0462 34.3867 64.9592L33.5734 60.3271H25.9526V72.6432Z" fill="#282B47"/>
<path d="M24.5604 65.8425L24.9696 65.9138C25.1049 65.9373 25.2284 65.8313 25.2284 65.6917V63.104C25.2284 62.9275 25.0878 62.7844 24.9143 62.7844H24.3454C24.2007 62.7844 24.0833 62.9039 24.0833 63.0512V65.2668C24.0834 65.5513 24.2848 65.7945 24.5604 65.8425Z" fill="white"/>
<path d="M25.0071 66.0042C24.9898 66.0042 24.9723 66.0027 24.9549 65.9996L24.5457 65.9283C24.2278 65.8729 23.9971 65.5947 23.9971 65.2667V63.0511C23.9971 62.8559 24.1533 62.6971 24.3455 62.6971H24.9144C25.1351 62.6971 25.3146 62.8796 25.3146 63.1039V65.6916C25.3146 65.7842 25.2745 65.8715 25.2046 65.9311C25.1487 65.9787 25.0788 66.0042 25.0071 66.0042ZM24.3455 62.8716C24.2485 62.8716 24.1696 62.9521 24.1696 63.0512V65.2668C24.1696 65.5096 24.3401 65.7156 24.575 65.7565L24.9843 65.8278C25.0234 65.8345 25.0631 65.8236 25.0935 65.7977C25.1244 65.7714 25.1421 65.7327 25.1421 65.6916V63.1039C25.1421 62.9758 25.04 62.8716 24.9144 62.8716H24.3455Z" fill="#282B47"/>
<path d="M21.76 68.8061V56.5422L7.49268 58.2829V68.8191L21.76 68.8061Z" fill="white"/>
<path d="M32.5898 60.2158H22.3328L22.793 58.0308C22.8804 57.6157 23.265 57.3168 23.7117 57.3168H31.4419C31.7911 57.3168 32.0901 57.5541 32.1513 57.88L32.5898 60.2158Z" fill="white"/>
<path d="M32.1513 57.88C32.0901 57.5541 31.7912 57.3168 31.4419 57.3168H23.7118C23.5014 57.3168 23.3052 57.3837 23.147 57.4973L26.5002 60.2158H32.5898L32.1513 57.88Z" fill="white"/>
<path d="M25.944 59.8522C25.9251 59.8522 25.906 59.846 25.8901 59.833L23.5427 57.9299C23.5055 57.8997 23.4996 57.8449 23.5293 57.8073C23.5592 57.7697 23.6135 57.7637 23.6506 57.7938L25.998 59.697C26.0352 59.7271 26.0411 59.782 26.0113 59.8195C25.9943 59.8411 25.9693 59.8522 25.944 59.8522Z" fill="#282B47"/>
<path d="M32.5898 60.303H22.3328C22.3068 60.303 22.2821 60.2911 22.2657 60.2706C22.2493 60.2501 22.243 60.2233 22.2484 60.1976L22.7087 58.0126C22.8028 57.5657 23.2143 57.2437 23.7093 57.2295L31.4419 57.2295C31.833 57.2295 32.167 57.4962 32.236 57.8636L32.6746 60.1995C32.6794 60.225 32.6726 60.2514 32.6562 60.2714C32.6398 60.2914 32.6155 60.303 32.5898 60.303ZM22.4393 60.1286H32.4856L32.0665 57.8962C32.0129 57.6109 31.7502 57.4039 31.4418 57.4039H23.7117C23.299 57.4158 22.9549 57.681 22.8774 58.0489L22.4393 60.1286Z" fill="#282B47"/>
<path d="M26.9646 62.5439H33.0235C33.3097 62.5439 33.5545 62.7532 33.604 63.04L34.1193 66.0272C34.169 66.3155 33.951 66.5797 33.6634 66.5797H26.838C26.5824 66.5797 26.3752 66.3688 26.3752 66.1086V63.1438C26.3752 62.8125 26.6391 62.5439 26.9646 62.5439Z" fill="white"/>
<path d="M33.6634 66.6669H26.838C26.5352 66.6669 26.2889 66.4165 26.2889 66.1087V63.1438C26.2889 62.765 26.592 62.4568 26.9645 62.4568H33.0235C33.3523 62.4568 33.6322 62.6958 33.689 63.0251L34.2042 66.0123C34.2324 66.1758 34.1881 66.3423 34.0827 66.4691C33.9782 66.5948 33.8253 66.6669 33.6634 66.6669ZM26.9646 62.6312C26.6871 62.6312 26.4615 62.8611 26.4615 63.1438V66.1087C26.4615 66.3203 26.6304 66.4925 26.838 66.4925H33.6634C33.7743 66.4925 33.879 66.443 33.9507 66.3568C34.0232 66.2695 34.0537 66.1549 34.0342 66.0422L33.519 63.055C33.4767 62.8094 33.2683 62.6311 33.0235 62.6311H26.9646V62.6312Z" fill="#282B47"/>
<path d="M30.9611 65.3995C30.6071 65.0339 30.1237 64.826 29.6193 64.826H26.3693V66.1085C26.3693 66.3686 26.5824 66.5714 26.8381 66.5714H33.6635C33.9511 66.5714 34.169 66.3113 34.1193 66.023L34.11 65.973H32.303C31.7986 65.973 31.3153 65.7651 30.9611 65.3995Z" fill="white"/>
<path d="M33.6634 66.6586H26.838C26.532 66.6586 26.283 66.4119 26.283 66.1085V64.8261C26.283 64.7779 26.3216 64.7389 26.3692 64.7389H29.6193C30.1422 64.7389 30.6537 64.9575 31.0228 65.3385C31.3597 65.6864 31.8263 65.8858 32.303 65.8858H34.11C34.1514 65.8858 34.187 65.9157 34.1947 65.9569L34.204 66.0069C34.2322 66.1705 34.1885 66.3356 34.0842 66.4611C33.9798 66.5866 33.8264 66.6586 33.6634 66.6586ZM26.4555 64.9133V66.1085C26.4555 66.3157 26.6271 66.4842 26.8381 66.4842H33.6635C33.7754 66.4842 33.8807 66.4348 33.9522 66.3488C34.0189 66.2686 34.0494 66.1645 34.0375 66.0602H32.303C31.7803 66.0602 31.2688 65.8417 30.8996 65.4606C30.5627 65.1128 30.0961 64.9133 29.6194 64.9133H26.4555Z" fill="#282B47"/>
<path d="M33.6634 66.6669H26.838C26.5352 66.6669 26.2889 66.4165 26.2889 66.1087V63.1438C26.2889 62.765 26.592 62.4568 26.9645 62.4568H33.0235C33.3523 62.4568 33.6322 62.6958 33.689 63.0251L34.2042 66.0123C34.2324 66.1758 34.1881 66.3423 34.0827 66.4691C33.9782 66.5948 33.8253 66.6669 33.6634 66.6669ZM26.9646 62.6312C26.6871 62.6312 26.4615 62.8611 26.4615 63.1438V66.1087C26.4615 66.3203 26.6304 66.4925 26.838 66.4925H33.6634C33.7743 66.4925 33.879 66.443 33.9507 66.3568C34.0232 66.2695 34.0537 66.1549 34.0342 66.0422L33.519 63.055C33.4767 62.8094 33.2683 62.6311 33.0235 62.6311H26.9646V62.6312Z" fill="#282B47"/>
<path d="M20.1781 69.4139C20.1778 69.4139 20.177 69.4139 20.177 69.4139H19.2737H19.2728C18.9029 69.4139 18.603 70.3119 18.603 71.4084C18.603 72.5049 18.9029 73.4033 19.2728 73.4033H19.2735H20.177C20.177 73.4033 20.1778 73.4033 20.1781 73.4033C20.548 73.4033 20.848 72.5052 20.848 71.4086C20.848 70.3121 20.548 69.4139 20.1781 69.4139Z" fill="#282B47"/>
<path d="M19.2728 73.3708C19.6427 73.3708 19.9426 72.4819 19.9426 71.3854C19.9426 70.2889 19.6427 69.4 19.2728 69.4C18.9028 69.4 18.603 70.2889 18.603 71.3854C18.603 72.4819 18.9028 73.3708 19.2728 73.3708Z" fill="white"/>
<path d="M19.2729 73.458C18.7818 73.458 18.5168 72.3901 18.5168 71.3854C18.5168 70.3806 18.7818 69.3127 19.2729 69.3127C19.7639 69.3127 20.0289 70.3806 20.0289 71.3854C20.0288 72.3901 19.7639 73.458 19.2729 73.458ZM19.2729 69.4872C18.9968 69.4872 18.6893 70.2667 18.6893 71.3854C18.6893 72.504 18.9968 73.2836 19.2729 73.2836C19.5489 73.2836 19.8564 72.504 19.8564 71.3854C19.8564 70.2667 19.5489 69.4872 19.2729 69.4872Z" fill="#282B47"/>
<path d="M10.2883 69.1646C10.288 69.1646 10.2873 69.1646 10.2873 69.1646H9.51302C9.51302 69.1646 9.51249 69.1646 9.51222 69.1646C9.1951 69.1646 8.93805 69.9072 8.93805 70.8349C8.93805 71.7626 9.1951 72.5057 9.51222 72.5057C9.51241 72.5057 9.51287 72.5057 9.51287 72.5057H10.2873C10.2873 72.5057 10.288 72.5057 10.2883 72.5057C10.6054 72.5057 10.8625 71.7628 10.8625 70.8351C10.8625 69.9075 10.6054 69.1646 10.2883 69.1646Z" fill="#282B47"/>
<path d="M9.51222 72.4864C9.82933 72.4864 10.0864 71.7344 10.0864 70.8067C10.0864 69.879 9.82933 69.127 9.51222 69.127C9.19512 69.127 8.93805 69.879 8.93805 70.8067C8.93805 71.7344 9.19512 72.4864 9.51222 72.4864Z" fill="white"/>
<path d="M9.51217 72.5736C9.08327 72.5736 8.85181 71.6633 8.85181 70.8067C8.85181 69.9501 9.08327 69.0398 9.51217 69.0398C9.94115 69.0398 10.1726 69.9502 10.1726 70.8067C10.1726 71.6633 9.94115 72.5736 9.51217 72.5736ZM9.51217 69.2142C9.28185 69.2142 9.0243 69.8952 9.0243 70.8067C9.0243 71.7182 9.28189 72.3992 9.51217 72.3992C9.74249 72.3992 10.0001 71.7181 10.0001 70.8067C10.0001 69.8952 9.74249 69.2142 9.51217 69.2142Z" fill="#282B47"/>
<path d="M11.7582 69.2644C11.7579 69.2644 11.7573 69.2644 11.7573 69.2644H10.983H10.9822C10.6651 69.2644 10.408 70.0071 10.408 70.9348C10.408 71.8625 10.6651 72.6055 10.9822 72.6055H10.9828H11.7573C11.7573 72.6055 11.7579 72.6055 11.7583 72.6055C12.0754 72.6055 12.3325 71.8626 12.3325 70.9349C12.3325 70.0072 12.0754 69.2644 11.7582 69.2644Z" fill="#282B47"/>
<path d="M10.9822 72.5863C11.2993 72.5863 11.5564 71.8342 11.5564 70.9065C11.5564 69.9788 11.2993 69.2268 10.9822 69.2268C10.6651 69.2268 10.408 69.9788 10.408 70.9065C10.408 71.8342 10.6651 72.5863 10.9822 72.5863Z" fill="white"/>
<path d="M10.9822 72.6734C10.5532 72.6734 10.3218 71.763 10.3218 70.9064C10.3218 70.0499 10.5532 69.1395 10.9822 69.1395C11.4112 69.1395 11.6427 70.0499 11.6427 70.9064C11.6426 71.763 11.4112 72.6734 10.9822 72.6734ZM10.9822 69.3139C10.7519 69.3139 10.4943 69.995 10.4943 70.9064C10.4943 71.8179 10.7519 72.499 10.9822 72.499C11.2125 72.499 11.4701 71.8179 11.4701 70.9064C11.4701 69.995 11.2125 69.3139 10.9822 69.3139Z" fill="#282B47"/>
<path d="M13.2921 69.2643C13.2918 69.2643 13.2911 69.2643 13.2911 69.2643H12.4871C12.4871 69.2643 12.4866 69.2643 12.4863 69.2643C12.157 69.2643 11.8901 70.0583 11.8901 71.0343C11.8901 72.0104 12.157 72.8048 12.4863 72.8048C12.4865 72.8048 12.4869 72.8048 12.4869 72.8048H13.2911C13.2911 72.8048 13.2918 72.8048 13.2921 72.8048C13.6214 72.8048 13.8883 72.0106 13.8883 71.0345C13.8883 70.0585 13.6214 69.2643 13.2921 69.2643Z" fill="#282B47"/>
<path d="M12.4863 72.7733C12.8156 72.7733 13.0825 71.9821 13.0825 71.006C13.0825 70.03 12.8156 69.2388 12.4863 69.2388C12.157 69.2388 11.8901 70.03 11.8901 71.006C11.8901 71.9821 12.157 72.7733 12.4863 72.7733Z" fill="white"/>
<path d="M12.4863 72.8605C12.043 72.8605 11.8039 71.905 11.8039 71.0061C11.8039 70.1071 12.043 69.1516 12.4863 69.1516C12.9296 69.1516 13.1687 70.1071 13.1687 71.0061C13.1687 71.905 12.9296 72.8605 12.4863 72.8605ZM12.4863 69.326C12.2456 69.326 11.9764 70.0445 11.9764 71.006C11.9764 71.9676 12.2456 72.6861 12.4863 72.6861C12.727 72.6861 12.9962 71.9676 12.9962 71.006C12.9962 70.0445 12.727 69.326 12.4863 69.326Z" fill="#282B47"/>
<path d="M28.1135 71.3647H27.0188C26.8305 71.3647 26.6779 71.2094 26.6779 71.0177V70.395H27.5433C27.8368 70.395 28.0984 70.5836 28.1958 70.8654L28.2838 71.12C28.3251 71.2395 28.2379 71.3647 28.1135 71.3647Z" fill="white"/>
<path d="M28.1134 71.4518H27.0188C26.7833 71.4518 26.5916 71.257 26.5916 71.0176V70.395C26.5916 70.3468 26.6302 70.3077 26.6779 70.3077H27.5433C27.8729 70.3077 28.1678 70.5202 28.2772 70.8365L28.3652 71.0911C28.3939 71.1742 28.381 71.2665 28.3307 71.3382C28.2807 71.4093 28.1995 71.4518 28.1134 71.4518ZM26.7641 70.4821V71.0176C26.7641 71.1609 26.8784 71.2774 27.0188 71.2774H28.1134C28.1442 71.2774 28.1721 71.2628 28.19 71.2372C28.2083 71.2112 28.2128 71.1789 28.2023 71.1486L28.1143 70.894C28.0291 70.6477 27.7997 70.4821 27.5432 70.4821H26.7641Z" fill="#282B47"/>
<path d="M32.6684 71.2976H33.763C33.9513 71.2976 34.1039 71.1423 34.1039 70.9506V70.3279H33.2385C32.945 70.3279 32.6834 70.5164 32.586 70.7982L32.498 71.0528C32.4567 71.1724 32.5439 71.2976 32.6684 71.2976Z" fill="white"/>
<path d="M33.763 71.385H32.6684C32.5823 71.385 32.5011 71.3425 32.4511 71.2713C32.4008 71.1996 32.3879 71.1073 32.4166 71.0242L32.5046 70.7696C32.6139 70.4534 32.9089 70.2408 33.2385 70.2408H34.1039C34.1515 70.2408 34.1902 70.2799 34.1902 70.3281V70.9508C34.1902 71.1902 33.9985 71.385 33.763 71.385ZM33.2386 70.4152C32.9821 70.4152 32.7527 70.5808 32.6675 70.8272L32.5795 71.0818C32.569 71.112 32.5736 71.1443 32.5918 71.1703C32.6097 71.1959 32.6376 71.2106 32.6684 71.2106H33.763C33.9034 71.2106 34.0177 71.094 34.0177 70.9508V70.4152H33.2386Z" fill="#282B47"/>
<path d="M31.8879 72.0202H29.0079C28.8599 72.0202 28.7232 71.9396 28.6497 71.8089L28.5226 71.5828C28.4794 71.506 28.5339 71.4104 28.6208 71.4104H32.2751C32.362 71.4104 32.4165 71.506 32.3733 71.5828L32.2461 71.8089C32.1725 71.9396 32.0359 72.0202 31.8879 72.0202Z" fill="white"/>
<path d="M31.8879 72.1074H29.0078C28.8293 72.1074 28.6634 72.0095 28.5747 71.852L28.4475 71.6258C28.4118 71.5622 28.4121 71.4866 28.4485 71.4234C28.4847 71.3606 28.549 71.3231 28.6207 71.3231H32.275C32.3467 71.3231 32.411 71.3606 32.4472 71.4234C32.4835 71.4866 32.4839 71.5622 32.4482 71.6258L32.321 71.852C32.2324 72.0095 32.0664 72.1074 31.8879 72.1074ZM28.6207 71.4975C28.6075 71.4975 28.6006 71.506 28.5976 71.5111C28.5946 71.5164 28.5905 71.5272 28.5974 71.5395L28.7246 71.7657C28.7826 71.8689 28.8912 71.933 29.0078 71.933H31.8879C32.0045 71.933 32.113 71.8689 32.1711 71.7657L32.2983 71.5395C32.3052 71.5272 32.3012 71.5164 32.2981 71.5111C32.2952 71.506 32.2883 71.4975 32.275 71.4975H28.6207Z" fill="#282B47"/>
<path d="M24.311 65.5479H23.9941C23.7338 65.5479 23.5227 65.3345 23.5227 65.0713V63.5927C23.5227 63.3903 23.6849 63.2263 23.8851 63.2263H24.3084C24.4001 63.2263 24.4744 63.3015 24.4744 63.3941V65.3828C24.4744 65.474 24.4013 65.5479 24.311 65.5479Z" fill="white"/>
<path d="M24.311 65.6351H23.9941C23.6866 65.6351 23.4364 65.3822 23.4364 65.0713V63.5927C23.4364 63.3426 23.6376 63.1392 23.885 63.1392H24.3084C24.4474 63.1392 24.5606 63.2536 24.5606 63.3941V65.3828C24.5606 65.5219 24.4487 65.6351 24.311 65.6351ZM23.885 63.3135C23.7327 63.3135 23.6089 63.4387 23.6089 63.5927V65.0712C23.6089 65.286 23.7817 65.4607 23.9941 65.4607H24.311C24.3535 65.4607 24.3881 65.4257 24.3881 65.3827V63.3941C24.3881 63.3497 24.3523 63.3135 24.3084 63.3135H23.885Z" fill="#282B47"/>
<path d="M35.3182 65.6461H35.0695C35.012 65.6461 34.9654 65.5989 34.9654 65.5408V63.2243C34.9654 63.1797 35.0011 63.1436 35.0453 63.1436H35.4536C35.5963 63.1436 35.712 63.2605 35.712 63.4048V65.2478C35.712 65.4678 35.5357 65.6461 35.3182 65.6461Z" fill="white"/>
<path d="M35.3181 65.7333H35.0695C34.9645 65.7333 34.8792 65.647 34.8792 65.5409V63.2245C34.8792 63.1319 34.9537 63.0565 35.0453 63.0565H35.4535C35.6436 63.0565 35.7982 63.2129 35.7982 63.405V65.248C35.7982 65.5156 35.5829 65.7333 35.3181 65.7333ZM35.0516 63.2309V65.5409C35.0516 65.5509 35.0596 65.559 35.0695 65.559H35.3181C35.4877 65.559 35.6257 65.4194 35.6257 65.248V63.4049C35.6257 63.309 35.5485 63.2309 35.4536 63.2309H35.0516Z" fill="#282B47"/>
<path d="M34.1537 67.7655H26.5227C26.4785 67.7655 26.4427 67.8019 26.4427 67.8469V68.3528C26.4427 68.5242 26.5793 68.6631 26.7477 68.6631H26.9778C27.0964 68.6631 27.2042 68.7331 27.2543 68.8425L27.4929 69.364C27.7009 69.8186 28.149 70.1092 28.6418 70.1092H32.2648C32.7576 70.1092 33.2057 69.8185 33.4137 69.3639L33.6523 68.8425C33.7023 68.7331 33.8102 68.6631 33.9287 68.6631C34.0972 68.6631 34.2337 68.5242 34.2337 68.3528V67.8469C34.2337 67.8019 34.1979 67.7655 34.1537 67.7655Z" fill="white"/>
<path d="M32.2648 70.1965H28.6417C28.1175 70.1965 27.6358 69.8841 27.4146 69.4007L27.1759 68.8791C27.1401 68.8009 27.0624 68.7504 26.9777 68.7504H26.7477C26.532 68.7504 26.3565 68.572 26.3565 68.3528V67.8469C26.3565 67.7539 26.4311 67.6783 26.5226 67.6783H34.1537C34.2454 67.6783 34.3199 67.7539 34.3199 67.8469V68.3528C34.3199 68.572 34.1444 68.7504 33.9287 68.7504C33.8441 68.7504 33.7663 68.8009 33.7305 68.8791L33.492 69.4005C33.2707 69.8841 32.7891 70.1965 32.2648 70.1965ZM26.5226 67.8528L26.529 68.3528C26.529 68.4759 26.6271 68.576 26.7477 68.576H26.9777C27.1293 68.576 27.2686 68.6662 27.3325 68.8059L27.5712 69.3275C27.7643 69.7495 28.1845 70.0221 28.6417 70.0221H32.2648C32.7221 70.0221 33.1423 69.7494 33.3354 69.3273L33.5739 68.8059C33.6378 68.6662 33.7771 68.5759 33.9287 68.5759C34.0493 68.5759 34.1474 68.4758 34.1474 68.3528V67.8527L26.5226 67.8528Z" fill="#282B47"/>
<path d="M7.49272 68.9064C7.46989 68.9064 7.44798 68.8972 7.43182 68.8809C7.41563 68.8645 7.40649 68.8423 7.40649 68.8192V58.2829C7.40649 58.2388 7.4391 58.2017 7.48241 58.1964L21.7497 56.4557C21.7745 56.4528 21.7988 56.4605 21.8173 56.477C21.8357 56.4935 21.8463 56.5173 21.8463 56.5422V68.7808C21.8463 68.8288 21.8078 68.8678 21.7602 68.868L7.49291 68.9064C7.49291 68.9064 7.4928 68.9064 7.49272 68.9064ZM7.57899 58.3602V68.7317L21.6738 68.6938V56.6406L7.57899 58.3602Z" fill="#282B47"/>
<path d="M8.61782 67.9796C8.5702 67.9796 8.53156 67.9405 8.53156 67.8923V59.2055C8.53156 59.1574 8.57016 59.1183 8.61782 59.1183C8.66545 59.1183 8.70409 59.1573 8.70409 59.2055V67.8923C8.70409 67.9405 8.66545 67.9796 8.61782 67.9796Z" fill="#282B47"/>
<path d="M10.0864 67.9795C10.0388 67.9795 10.0001 67.9405 10.0001 67.8923V59.0406C10.0001 58.9924 10.0387 58.9534 10.0864 58.9534C10.1341 58.9534 10.1727 58.9924 10.1727 59.0406V67.8923C10.1726 67.9405 10.134 67.9795 10.0864 67.9795Z" fill="#282B47"/>
<path d="M11.5549 67.9795C11.5073 67.9795 11.4686 67.9404 11.4686 67.8922V58.8795C11.4686 58.8313 11.5072 58.7922 11.5549 58.7922C11.6026 58.7922 11.6412 58.8313 11.6412 58.8795V67.8922C11.6411 67.9404 11.6025 67.9795 11.5549 67.9795Z" fill="#282B47"/>
<path d="M13.0235 67.9795C12.9758 67.9795 12.9372 67.9405 12.9372 67.8923V58.6822C12.9372 58.634 12.9758 58.595 13.0235 58.595C13.0711 58.595 13.1097 58.634 13.1097 58.6822V67.8923C13.1097 67.9404 13.0711 67.9795 13.0235 67.9795Z" fill="#282B47"/>
<path d="M14.492 67.9795C14.4444 67.9795 14.4058 67.9405 14.4058 67.8923V58.5338C14.4058 58.4857 14.4444 58.4467 14.492 58.4467C14.5397 58.4467 14.5783 58.4857 14.5783 58.5338V67.8923C14.5783 67.9405 14.5397 67.9795 14.492 67.9795Z" fill="#282B47"/>
<path d="M15.9605 67.9796C15.9129 67.9796 15.8743 67.9405 15.8743 67.8923V58.3002C15.8743 58.2521 15.9129 58.213 15.9605 58.213C16.0081 58.213 16.0468 58.252 16.0468 58.3002V67.8923C16.0468 67.9405 16.0082 67.9796 15.9605 67.9796Z" fill="#282B47"/>
<path d="M17.4291 67.9794C17.3815 67.9794 17.3429 67.9404 17.3429 67.8922V58.161C17.3429 58.1128 17.3815 58.0737 17.4291 58.0737C17.4767 58.0737 17.5154 58.1128 17.5154 58.161V67.8922C17.5154 67.9404 17.4767 67.9794 17.4291 67.9794Z" fill="#282B47"/>
<path d="M18.8976 67.9795C18.85 67.9795 18.8113 67.9405 18.8113 67.8923V57.9655C18.8113 57.9174 18.8499 57.8783 18.8976 57.8783C18.9453 57.8783 18.9838 57.9173 18.9838 57.9655V67.8923C18.9839 67.9405 18.9453 67.9795 18.8976 67.9795Z" fill="#282B47"/>
<path d="M20.3662 67.9796C20.3186 67.9796 20.28 67.9405 20.28 67.8923V57.8055C20.28 57.7573 20.3186 57.7183 20.3662 57.7183C20.4138 57.7183 20.4524 57.7573 20.4524 57.8055V67.8923C20.4524 67.9405 20.4138 67.9796 20.3662 67.9796Z" fill="#282B47"/>
</svg>
