<svg xmlns="http://www.w3.org/2000/svg" viewBox="0 0 480 480.01"><defs><style>.cls-1{fill:#68ceff;}</style></defs><title>Multimodal</title><g id="Layer_2" data-name="Layer 2"><g id="Capa_1" data-name="Capa 1"><rect class="cls-1" x="72" y="288" width="64" height="16"/><path class="cls-1" d="M479.16,380.42l-24-48A8,8,0,0,0,448,328H400V304a8,8,0,0,0-8-8H232a8,8,0,0,0-8,8V448a8,8,0,0,0,8,8h33.14a31.84,31.84,0,0,0,61.72,0h58.28a31.84,31.84,0,0,0,61.72,0H472a8,8,0,0,0,8-8V384A8.08,8.08,0,0,0,479.16,380.42ZM296,464a16,16,0,1,1,16-16A16,16,0,0,1,296,464Zm88-24H326.86a31.84,31.84,0,0,0-61.72,0H240V312H384Zm48-96h11.06l16,32H432ZM416,464a16,16,0,1,1,16-16A16,16,0,0,1,416,464Zm48-24H446.86A31.62,31.62,0,0,0,400,420.45V344h16v40a8,8,0,0,0,8,8h40Z"/><rect class="cls-1" x="176" y="112" width="15.99" height="16"/><rect class="cls-1" x="208" y="112" width="15.99" height="16"/><rect class="cls-1" x="240" y="112" width="15.99" height="16"/><rect class="cls-1" x="272" y="112" width="15.99" height="16"/><path class="cls-1" d="M440.7,133.62l-24.79-24.78A98.61,98.61,0,0,0,346.48,80H284.43L246.79,19.76A8,8,0,0,0,240,16H216a8,8,0,0,0-8,8,7.85,7.85,0,0,0,.24,1.93L221.75,80H158L135.66,5.7A8,8,0,0,0,128,0H88a8,8,0,0,0-8,8V88h.08a8,8,0,0,0,2.26,5.66l50,50a109.57,109.57,0,0,0,78,32.34h2.18l-19.88,44.75a8,8,0,0,0,4.06,10.56,7.12,7.12,0,0,0,.72.28l24,8a8,8,0,0,0,9.08-3L272.86,176H423.12a24.82,24.82,0,0,0,17.58-42.38ZM235.57,32l30,48H238.25l-12-48ZM96,16h26.05l19.2,64H96ZM220.79,222.52l-10-3.32L237.11,160h27.41Zm210.54-68a8.7,8.7,0,0,1-8.21,5.48H284.05l2.39-3.41a8,8,0,0,0-2-11.15,8.1,8.1,0,0,0-4.59-1.44h-48a8,8,0,0,0-7.31,4.75l-5,11.25h-9.29a93.66,93.66,0,0,1-66.66-27.66L107.31,96H346.48A82.49,82.49,0,0,1,395,112H336v16h76.44l17,17A8.61,8.61,0,0,1,431.33,154.52Z"/><path class="cls-1" d="M196.11,458.12A31.94,31.94,0,0,0,177,448.23l30.55-85.54a8,8,0,0,0-4.86-10.23l-.15,0L183,345.91l-15.15-83.34A8,8,0,0,0,160,256H128V232a8,8,0,0,0-8-8H88a8,8,0,0,0-8,8v24H48a8,8,0,0,0-7.87,6.57L25,345.91l-19.51,6.5a8,8,0,0,0-5,10.14,1.21,1.21,0,0,0,0,.14L31,448.23a32,32,0,0,0-19.08,9.89A15.56,15.56,0,0,1,0,464v16a31.05,31.05,0,0,0,22.77-10.12A15.53,15.53,0,0,1,34.7,464a13.24,13.24,0,0,1,4.94.92c.07,0,.11.09.18.12A25,25,0,0,1,46.56,470,31.43,31.43,0,0,0,69.4,480a31.07,31.07,0,0,0,22.76-10.12,15,15,0,0,1,21-2.79,14.74,14.74,0,0,1,2.79,2.79A31,31,0,0,0,138.71,480a31.37,31.37,0,0,0,22.82-10,24.81,24.81,0,0,1,6.68-4.91c.07,0,.12-.1.19-.13a13.11,13.11,0,0,1,4.95-.93,15.49,15.49,0,0,1,11.9,5.88A31,31,0,0,0,208,480V464A15.47,15.47,0,0,1,196.11,458.12ZM96,240h16v16H96Zm0,209a34.44,34.44,0,0,0-14.69,9.08,15,15,0,0,1-23.84,0,45.57,45.57,0,0,0-8.2-6.36L18.28,365,96,339.1Zm5.47-128.63L42.29,340.14,54.68,272h98.64l12.39,68.14-59.18-19.73A8,8,0,0,0,101.47,320.41Zm57.25,131.4a45.56,45.56,0,0,0-8.12,6.31,15,15,0,0,1-23.78,0A34.27,34.27,0,0,0,112,449V339.1L189.72,365Z"/><rect class="cls-1" x="304" y="112" width="15.99" height="16"/></g></g></svg>