<svg aria-hidden="true" style="position: absolute; width: 0; height: 0; overflow: hidden;" version="1.1" xmlns="http://www.w3.org/2000/svg" xmlns:xlink="http://www.w3.org/1999/xlink">
<defs>
<symbol id="icon-truck" viewBox="0 0 60 32">
<path d="M11.286 26.454h-0.009c-0.489 0.003-0.884 0.399-0.884 0.889 0 0.491 0.398 0.889 0.889 0.889s0.889-0.398 0.889-0.889c0-0.489-0.395-0.886-0.884-0.889h-0z"></path>
<path d="M18.845 26.454h-0.009c-0.489 0.003-0.884 0.399-0.884 0.889 0 0.491 0.398 0.889 0.889 0.889s0.889-0.398 0.889-0.889c0-0.489-0.395-0.886-0.884-0.889h-0z"></path>
<path d="M50.022 26.454h-0.009c-0.489 0.003-0.884 0.399-0.884 0.889 0 0.491 0.398 0.889 0.889 0.889s0.889-0.398 0.889-0.889c0-0.489-0.395-0.886-0.884-0.889h-0z"></path>
<path d="M59.532 15.766l-1.192-1.188-2.391-7.184c0.361-0.117 0.617-0.45 0.617-0.843 0-0.488-0.396-0.884-0.884-0.884-0 0-0 0-0.001 0h-8.565v-3.839c-0.001-1.010-0.819-1.828-1.828-1.829h-43.46c-1.010 0.001-1.829 0.819-1.829 1.829v20.785c0.001 1.010 0.819 1.829 1.829 1.829h1.005v1.949c0.001 1.010 0.819 1.828 1.828 1.829h2.036c0.429 2.167 2.314 3.779 4.576 3.779 1.551 0 2.925-0.758 3.772-1.923l0.009-0.013c0.856 1.179 2.23 1.936 3.781 1.936 2.262 0 4.147-1.611 4.571-3.749l0.005-0.030h22.022c0.43 2.166 2.316 3.777 4.578 3.777 2.575 0 4.662-2.087 4.663-4.661v-0c0-0.021 0-0.041 0-0.061h3.841c1.009-0.001 1.827-0.819 1.828-1.828v-7.721c0-0.002 0-0.004 0-0.007 0-0.764-0.31-1.455-0.812-1.954l-0-0zM6.698 26.454h-2.035c0 0 0 0 0 0-0.033 0-0.060-0.027-0.060-0.060 0-0 0-0.001 0-0.001v0-1.949h3.022c-0.449 0.56-0.774 1.239-0.921 1.981l-0.005 0.030zM11.277 30.232c-0.003 0-0.006 0-0.009 0-1.599 0-2.895-1.296-2.895-2.895 0-1.595 1.291-2.889 2.885-2.895h0.037c1.595 0.005 2.886 1.299 2.886 2.895 0 1.599-1.296 2.895-2.895 2.895-0.003 0-0.006 0-0.009 0h0zM18.835 30.232c-0.003 0-0.006 0-0.009 0-1.599 0-2.895-1.296-2.895-2.895 0-1.595 1.291-2.889 2.885-2.895h0.042c1.595 0.005 2.886 1.299 2.886 2.895 0 1.599-1.296 2.895-2.895 2.895-0.003 0-0.006 0-0.009 0h0zM45.435 26.454h-22.022c-0.153-0.772-0.478-1.451-0.933-2.020l0.007 0.009h17.133c0.488 0 0.884-0.396 0.884-0.884s-0.396-0.884-0.884-0.884v0h-37.79c-0.034 0-0.061-0.027-0.061-0.061v-20.785c0-0.034 0.027-0.061 0.061-0.061v0h43.459c0 0 0 0 0 0 0.033 0 0.060 0.027 0.060 0.060 0 0 0 0.001 0 0.001v-0 20.846h-1.949c-0.488 0-0.884 0.396-0.884 0.884s0.396 0.884 0.884 0.884v0h2.961c-0.449 0.56-0.773 1.239-0.92 1.981l-0.005 0.029zM56.659 15.115h-5.701c-0 0-0.001 0-0.001 0-0.033 0-0.060-0.027-0.060-0.060 0 0 0 0 0 0v0-3.84h4.462zM50.012 30.232c-0.003 0-0.006 0-0.009 0-1.599 0-2.895-1.296-2.895-2.895 0-1.596 1.291-2.89 2.885-2.895h0.024c1.573 0.034 2.834 1.317 2.834 2.895 0 1.58-1.265 2.864-2.837 2.895l-0.003 0zM58.576 25.448c0 0.034-0.027 0.061-0.061 0.061v0h-4.213c-0.731-1.68-2.375-2.833-4.289-2.836h-2.896v-15.177c0-0.034 0.027-0.061 0.061-0.061v0h6.92l0.671 2.012h-4.756c-0.488 0-0.884 0.396-0.884 0.884v0 4.724c0.001 1.009 0.819 1.827 1.828 1.828h7.19l0.132 0.133c0.182 0.181 0.294 0.431 0.295 0.707v2.113h-1.005c-0.488 0-0.884 0.396-0.884 0.884s0.396 0.884 0.884 0.884v0h1.009z"></path>
<path d="M42.454 18.895h-37.792c-0.488 0-0.884 0.396-0.884 0.884s0.396 0.884 0.884 0.884v0h37.792c0.488 0 0.884-0.396 0.884-0.884s-0.396-0.884-0.884-0.884v0z"></path>
</symbol>
<symbol id="icon-success" viewBox="0 0 32 32">
<path d="M16 29.333c-7.364 0-13.333-5.969-13.333-13.333s5.969-13.333 13.333-13.333 13.333 5.969 13.333 13.333c0 7.364-5.969 13.333-13.333 13.333zM14.459 21.98l9.427-9.428-1.885-1.885-7.541 7.543-3.772-3.772-1.885 1.885 5.657 5.657z"></path>
</symbol>
<symbol id="icon-mail" viewBox="0 0 39 32">
<path  d="M3.489 4.082v21.173c0.027 0.745 0.289 1.365 0.786 1.861s1.117 0.758 1.861 0.786h26.466c0.745-0.027 1.365-0.289 1.861-0.786s0.758-1.117 0.786-1.861v-21.173h-31.759zM3.489 1.436h31.759c0.745 0.027 1.365 0.289 1.861 0.786s0.758 1.117 0.786 1.861v21.173c-0.027 1.489-0.544 2.737-1.551 3.742s-2.254 1.523-3.742 1.551h-26.466c-1.489-0.027-2.737-0.544-3.742-1.551s-1.523-2.254-1.551-3.742v-21.173c0.027-0.745 0.289-1.365 0.786-1.861s1.117-0.758 1.861-0.786zM35.579 4.082l-10.215 11.703c-0.772 0.855-1.675 1.517-2.709 1.985s-2.13 0.703-3.287 0.703c-1.157 0-2.253-0.234-3.287-0.703s-1.937-1.13-2.709-1.985l-10.215-11.703h32.421zM6.673 4.082l8.726 9.966c0.497 0.579 1.090 1.020 1.779 1.323s1.419 0.455 2.191 0.455 1.502-0.152 2.191-0.455c0.689-0.303 1.282-0.745 1.779-1.323l8.726-9.966h-25.392z"></path>
</symbol>
<symbol id="icon-phone" viewBox="0 0 31 32">
<path stroke-linejoin="round" stroke-linecap="round" stroke-miterlimit="10" stroke-width="2.56" d="M14.029 11.548l-2.503 1.668c0.040 0.179 0.096 0.388 0.173 0.62 0.287 0.86 0.874 2.053 2.090 3.269s2.41 1.804 3.27 2.090c0.183 0.061 0.352 0.109 0.502 0.146l0.48-0.96c0.544-1.088 1.735-1.695 2.935-1.495l6.148 1.025c1.336 0.223 2.316 1.379 2.316 2.734v6.059c0 1.259-0.875 2.444-2.241 2.651-3.108 0.47-12.284 1.11-19.527-6.132s-6.603-16.419-6.132-19.527c0.207-1.366 1.392-2.241 2.651-2.241h6.295c1.133 0 2.153 0.69 2.574 1.742l2.006 5.014c0.487 1.217 0.055 2.609-1.036 3.336z"></path>
</symbol>
<symbol id="icon-container-truck" viewBox="0 0 59 32">
<path d="M44.534 26.864h-20.381c-0.331 0-0.599 0.268-0.599 0.599s0.268 0.599 0.599 0.599h20.215c0.032 2.179 1.806 3.933 3.99 3.933 2.204 0 3.99-1.786 3.99-3.99s-1.786-3.99-3.99-3.99c-1.797 0-3.316 1.188-3.816 2.821l-0.007 0.028zM48.364 25.204c1.545 0 2.798 1.253 2.798 2.798s-1.253 2.798-2.798 2.798c-1.545 0-2.798-1.253-2.798-2.798v0c0.004-1.543 1.255-2.792 2.798-2.794h0v-0.004z"></path>
<path d="M18.323 24.010c-1.799 0.002-3.32 1.191-3.822 2.826l-0.007 0.028h-1.308c-0.331 0-0.599 0.268-0.599 0.599s0.268 0.599 0.599 0.599h1.144c0.034 2.18 1.81 3.934 3.995 3.934 2.207 0 3.995-1.789 3.995-3.995s-1.789-3.995-3.995-3.995c-0 0-0.001 0-0.001 0h0v0.004zM18.323 30.799c-1.545-0-2.797-1.253-2.797-2.798s1.253-2.798 2.798-2.798 2.798 1.253 2.798 2.798v0c0 1.546-1.253 2.8-2.799 2.801h-0v-0.004z"></path>
<path d="M7.826 24.010c-2.206 0.001-3.994 1.789-3.994 3.995s1.789 3.995 3.995 3.995 3.995-1.789 3.995-3.995v0c-0.003-2.206-1.791-3.994-3.997-3.995h-0zM7.826 30.803c-1.545-0-2.797-1.253-2.797-2.798s1.253-2.798 2.798-2.798 2.798 1.253 2.798 2.798v0c-0.002 1.545-1.254 2.796-2.799 2.798h-0z"></path>
<path d="M52.608 4.892h-10.903c-1.281 0.001-2.32 1.039-2.322 2.321v15.919h-16.563c-0.007-0-0.015-0-0.023-0-0.331 0-0.599 0.268-0.599 0.599s0.268 0.599 0.599 0.599c0.008 0 0.016-0 0.024-0l-0.001 0h17.16c0 0 0 0 0 0 0.33 0 0.598-0.268 0.598-0.598 0-0 0-0.001 0-0.001v0-16.517c0.001-0.62 0.504-1.123 1.124-1.123h10.905c2.838 0.004 5.137 2.304 5.14 5.142v10.499h-1.844c-0.321 0.013-0.576 0.276-0.576 0.599s0.255 0.586 0.575 0.599l0.001 0h1.844v3.393c-0.001 0.303-0.246 0.548-0.549 0.548 0 0 0 0 0 0h-3.112c-0.331 0-0.599 0.268-0.599 0.599s0.268 0.599 0.599 0.599h3.117c0.964-0.001 1.746-0.782 1.747-1.747v-15.089c-0.003-3.501-2.841-6.338-6.342-6.339h-0z"></path>
<path d="M48.476 10.203h7.098c0.321-0.013 0.576-0.276 0.576-0.599s-0.255-0.586-0.575-0.599l-0.001-0h-7.098c-0.964 0.001-1.746 0.782-1.747 1.746v3.124c0 0.894 0.67 1.797 1.499 2.043l8.097 2.859c0.065 0.026 0.141 0.042 0.22 0.042 0.331 0 0.599-0.268 0.599-0.599 0-0.267-0.175-0.493-0.416-0.571l-0.004-0.001-8.125-2.869c-0.351-0.106-0.672-0.539-0.672-0.905v-3.123c0.001-0.303 0.246-0.548 0.549-0.549h0z"></path>
<path d="M1.605 22.067h33.983c0.331 0 0.599-0.268 0.599-0.599v0-20.867c0-0 0-0.001 0-0.001 0-0.33-0.268-0.598-0.598-0.598-0 0-0.001 0-0.001 0h-33.983c0 0 0 0 0 0-0.33 0-0.598 0.268-0.598 0.598 0 0 0 0.001 0 0.001v-0 20.867c0 0 0 0 0 0 0 0.331 0.268 0.599 0.598 0.599h0zM2.204 1.198h32.785v19.67h-32.785v-19.67z"></path>
<path d="M30.948 2.965c-0.331 0-0.599 0.268-0.599 0.599v0 14.944c0.013 0.321 0.276 0.576 0.599 0.576s0.586-0.255 0.599-0.575l0-0.001v-14.946c-0-0.33-0.268-0.597-0.598-0.597v0z"></path>
<path d="M26.007 2.965c0 0 0 0 0 0-0.33 0-0.598 0.268-0.598 0.598 0 0 0 0.001 0 0.001v-0 14.944c0.013 0.321 0.276 0.576 0.599 0.576s0.586-0.255 0.599-0.575l0-0.001v-14.946c-0.001-0.33-0.269-0.597-0.599-0.597 0 0 0 0 0 0v0z"></path>
<path d="M21.066 2.965c0 0 0 0 0 0-0.33 0-0.598 0.268-0.598 0.598 0 0 0 0.001 0 0.001v-0 14.944c0.013 0.321 0.276 0.576 0.599 0.576s0.586-0.255 0.599-0.575l0-0.001v-14.946c-0.001-0.33-0.269-0.597-0.599-0.597 0 0 0 0 0 0v0z"></path>
<path d="M16.126 2.965c-0 0-0.001 0-0.001 0-0.33 0-0.598 0.268-0.598 0.598 0 0 0 0.001 0 0.001v-0 14.944c0.013 0.321 0.276 0.576 0.599 0.576s0.586-0.255 0.599-0.575l0-0.001v-14.946c-0-0.33-0.268-0.597-0.598-0.597v0z"></path>
<path d="M11.186 2.965c-0.331 0-0.599 0.268-0.599 0.599v0 14.944c0 0.331 0.268 0.599 0.599 0.599s0.599-0.268 0.599-0.599v0-14.946c-0.001-0.33-0.269-0.597-0.599-0.597 0 0 0 0 0 0v0z"></path>
<path d="M6.245 2.965c-0 0-0.001 0-0.001 0-0.33 0-0.598 0.268-0.598 0.598 0 0 0 0.001 0 0.001v-0 14.944c0.013 0.321 0.276 0.576 0.599 0.576s0.586-0.255 0.599-0.575l0-0.001v-14.946c-0-0.33-0.268-0.597-0.598-0.597v0z"></path>
<path d="M0.599 28.066h1.391c0.331 0 0.599-0.268 0.599-0.599s-0.268-0.599-0.599-0.599h-0.792v-3.039c0-0.007 0-0.015 0-0.023 0-0.331-0.268-0.599-0.599-0.599s-0.599 0.268-0.599 0.599c0 0.008 0 0.016 0.001 0.024l-0-0.001v3.639c0 0.331 0.268 0.599 0.599 0.599v0z"></path>
</symbol>
<symbol id="icon-vessel" viewBox="0 0 26 32">
<path d="M17 8h-8v2h8v-2z"></path>
<path d="M24.514 29.265c-0.629-0.676-1.474-1.113-2.389-1.236l3.819-10.693c0.044-0.124 0.064-0.255 0.057-0.387s-0.039-0.26-0.096-0.379c-0.056-0.119-0.136-0.225-0.233-0.313s-0.212-0.156-0.336-0.2h-0.019l-2.442-0.819-1.894-10.418c-0.042-0.23-0.163-0.438-0.342-0.588s-0.405-0.233-0.639-0.233h-4v-3c0-0.265-0.105-0.52-0.293-0.707s-0.442-0.293-0.707-0.293h-4c-0.265 0-0.52 0.105-0.707 0.293s-0.293 0.442-0.293 0.707v3h-4c-0.234 0-0.461 0.082-0.641 0.232s-0.301 0.359-0.343 0.589l-1.891 10.418-2.439 0.812c-0.251 0.085-0.458 0.267-0.575 0.504s-0.135 0.512-0.050 0.763c-0 0.006-0 0.012 0 0.017l3.814 10.693c-0.914 0.125-1.756 0.561-2.385 1.236-0.179 0.225-0.405 0.407-0.663 0.535s-0.54 0.195-0.827 0.2v2c0.536-0.003 1.066-0.117 1.556-0.334s0.929-0.535 1.291-0.93c0.179-0.225 0.405-0.408 0.663-0.535s0.541-0.195 0.828-0.2c0.211-0.001 0.421 0.038 0.617 0.115 0.009 0 0.014 0.011 0.022 0.015 0.314 0.158 0.599 0.367 0.843 0.62 0.365 0.392 0.807 0.705 1.298 0.92s1.021 0.327 1.557 0.33c0.536-0.003 1.065-0.117 1.555-0.335s0.929-0.534 1.29-0.93c0.302-0.394 0.748-0.652 1.24-0.717s0.99 0.067 1.385 0.368c0.131 0.1 0.249 0.217 0.349 0.349 0.361 0.396 0.8 0.713 1.29 0.931s1.019 0.332 1.555 0.334c0.536-0.003 1.065-0.115 1.556-0.33s0.932-0.528 1.297-0.92c0.242-0.25 0.524-0.457 0.835-0.614 0.009 0 0.015-0.012 0.024-0.016 0.197-0.078 0.407-0.118 0.619-0.116 0.287 0.005 0.569 0.073 0.826 0.2s0.483 0.31 0.661 0.535c0.361 0.395 0.8 0.712 1.29 0.928s1.019 0.33 1.554 0.333v-2c-0.287-0.005-0.569-0.073-0.826-0.2s-0.483-0.31-0.66-0.535zM12 2h2v2h-2v-2zM12 28.125c-0.699 0.216-1.331 0.607-1.836 1.135-0.175 0.229-0.4 0.415-0.659 0.543s-0.543 0.194-0.831 0.194-0.573-0.066-0.831-0.194c-0.258-0.128-0.484-0.313-0.659-0.543-0.31-0.303-0.654-0.57-1.025-0.795l-3.874-10.84 9.715-3.238v13.738zM12.684 12.046l-7.397 2.471 1.549-8.518h12.33l1.549 8.518-7.398-2.466c-0.205-0.068-0.427-0.068-0.633 0v-0.005zM19.84 28.471c-0.367 0.224-0.707 0.488-1.015 0.789-0.175 0.228-0.4 0.412-0.658 0.539s-0.541 0.193-0.828 0.193-0.571-0.066-0.828-0.193c-0.258-0.127-0.483-0.311-0.658-0.539-0.51-0.531-1.148-0.922-1.852-1.135v-13.738l9.715 3.238-3.875 10.846z"></path>
</symbol>
<symbol id="icon-multimodal" viewBox="0 0 32 32">
<path d="M4.8 19.2h4.267v1.067h-4.267v-1.067z"></path>
<path d="M31.943 25.361l-1.6-3.2c-0.090-0.176-0.269-0.295-0.477-0.295-0 0-0 0-0 0h-3.2v-1.6c0-0.295-0.239-0.533-0.533-0.533v0h-10.666c-0.295 0-0.533 0.239-0.533 0.533v0 9.6c0 0.295 0.239 0.533 0.533 0.533v0h2.209c0.241 0.927 1.071 1.6 2.057 1.6s1.816-0.673 2.054-1.585l0.003-0.015h3.885c0.241 0.927 1.071 1.6 2.057 1.6s1.816-0.673 2.054-1.585l0.003-0.015h1.676c0.295 0 0.533-0.239 0.533-0.533v0-4.267c-0-0.087-0.021-0.169-0.057-0.242l0.001 0.003zM19.733 30.933c-0.589 0-1.067-0.478-1.067-1.067s0.478-1.067 1.067-1.067c0.589 0 1.067 0.478 1.067 1.067v0c0 0.589-0.478 1.067-1.067 1.067v0zM25.599 29.333h-3.809c-0.241-0.927-1.071-1.6-2.057-1.6s-1.816 0.673-2.054 1.585l-0.003 0.015h-1.676v-8.533h9.6zM28.799 22.933h0.737l1.067 2.133h-1.804zM27.733 30.933c-0.589 0-1.067-0.478-1.067-1.067s0.478-1.067 1.067-1.067c0.589 0 1.067 0.478 1.067 1.067v0c0 0.589-0.478 1.067-1.067 1.067v0zM30.933 29.333h-1.143c-0.236-0.926-1.062-1.6-2.046-1.6-0.398 0-0.77 0.11-1.088 0.302l0.009-0.005v-5.097h1.067v2.667c0 0.295 0.239 0.533 0.533 0.533v0h2.667z"></path>
<path d="M11.733 7.466h1.066v1.067h-1.066v-1.067z"></path>
<path d="M13.866 7.466h1.066v1.067h-1.066v-1.067z"></path>
<path d="M16 7.466h1.066v1.067h-1.066v-1.067z"></path>
<path d="M18.133 7.466h1.066v1.067h-1.066v-1.067z"></path>
<path d="M29.379 8.908l-1.653-1.652c-1.185-1.184-2.821-1.918-4.628-1.923h-4.138l-2.509-4.016c-0.096-0.151-0.262-0.251-0.452-0.251-0 0-0 0-0 0h-1.6c-0.295 0-0.533 0.239-0.533 0.533v0c0 0 0 0 0 0 0 0.046 0.006 0.090 0.017 0.132l-0.001-0.004 0.901 3.605h-4.25l-1.489-4.953c-0.068-0.222-0.271-0.38-0.511-0.38h-2.667c-0.295 0-0.533 0.239-0.533 0.533v0 5.333h0.005c-0 0.002-0 0.004-0 0.006 0 0.144 0.057 0.276 0.151 0.372l3.333 3.333c1.323 1.332 3.156 2.156 5.182 2.156 0.006 0 0.013 0 0.019-0h0.144l-1.325 2.983c-0.029 0.064-0.046 0.138-0.046 0.217 0 0.216 0.129 0.402 0.313 0.486l0.003 0.001c0.012 0.006 0.028 0.012 0.045 0.018l0.003 0.001 1.6 0.533c0.050 0.017 0.108 0.027 0.169 0.027 0.18 0 0.339-0.089 0.436-0.226l0.001-0.002 2.824-4.039h10.017c0.001 0 0.002 0 0.003 0 0.914 0 1.655-0.741 1.655-1.655 0-0.457-0.185-0.871-0.485-1.171v0zM15.704 2.133l2 3.2h-1.821l-0.8-3.2zM6.4 1.067h1.737l1.28 4.267h-3.017zM14.719 14.834l-0.667-0.221 1.755-3.947h1.827zM28.755 10.301c-0.088 0.216-0.296 0.365-0.539 0.365-0.003 0-0.006-0-0.009-0h-9.271l0.159-0.227c0.060-0.085 0.096-0.191 0.096-0.305 0-0.181-0.090-0.341-0.228-0.437l-0.002-0.001c-0.085-0.060-0.192-0.096-0.306-0.096h-3.2c-0.216 0-0.402 0.129-0.486 0.313l-0.001 0.003-0.333 0.75h-0.619c-0.004 0-0.009 0-0.014 0-1.732 0-3.299-0.705-4.43-1.844l-0-0-2.419-2.423h15.944c1.218 0.005 2.341 0.404 3.249 1.077l-0.015-0.011h-3.933v1.067h5.096l1.133 1.133c0.106 0.104 0.172 0.249 0.172 0.41 0 0.081-0.017 0.159-0.047 0.229l0.001-0.004z"></path>
<path d="M13.074 30.541c-0.326-0.35-0.767-0.589-1.263-0.658l-0.011-0.001 2.037-5.703c0.020-0.053 0.031-0.115 0.031-0.179 0-0.231-0.146-0.427-0.351-0.501l-0.004-0.001h-0.010l-1.303-0.437-1.010-5.556c-0.047-0.25-0.263-0.437-0.523-0.438h-2.133v-1.6c0-0.295-0.239-0.533-0.533-0.533v0h-2.133c-0.295 0-0.533 0.239-0.533 0.533v0 1.6h-2.133c-0.261 0-0.478 0.187-0.524 0.435l-0.001 0.003-1.009 5.556-1.301 0.433c-0.212 0.074-0.362 0.272-0.362 0.505 0 0.061 0.010 0.12 0.029 0.175l-0.001-0.004c-0 0.001-0 0.003-0 0.005s0 0.003 0 0.005v-0l2.034 5.703c-0.506 0.071-0.946 0.31-1.271 0.658l-0.001 0.001c-0.188 0.235-0.473 0.386-0.794 0.392h-0.001v1.067c0.601-0.003 1.141-0.262 1.517-0.673l0.001-0.002c0.188-0.236 0.474-0.387 0.794-0.392h0.001c0.002 0 0.004-0 0.006-0 0.116 0 0.228 0.023 0.329 0.063l-0.006-0.002c0.005 0 0.007 0.006 0.012 0.008 0.174 0.088 0.322 0.199 0.449 0.33l0 0c0.381 0.408 0.922 0.664 1.522 0.667h0.001c0.601-0.004 1.14-0.262 1.516-0.673l0.001-0.002c0.185-0.239 0.471-0.391 0.793-0.391 0.229 0 0.44 0.077 0.609 0.207l-0.002-0.002c0.071 0.054 0.132 0.115 0.184 0.184l0.002 0.002c0.377 0.413 0.917 0.672 1.517 0.675h0.001c0.6-0.003 1.141-0.258 1.52-0.665l0.001-0.001c0.126-0.13 0.273-0.24 0.436-0.323l0.009-0.004c0.005 0 0.008-0.007 0.013-0.009 0.096-0.039 0.207-0.062 0.323-0.062 0.002 0 0.005 0 0.007 0h-0c0.321 0.005 0.606 0.156 0.792 0.39l0.002 0.002c0.377 0.412 0.917 0.67 1.516 0.673h0.001v-1.067c-0.321-0.005-0.605-0.157-0.791-0.39l-0.002-0.002zM6.4 16h1.067v1.067h-1.067zM6.4 29.933c-0.387 0.122-0.716 0.331-0.979 0.605l-0.001 0.001c-0.185 0.24-0.472 0.393-0.795 0.393s-0.61-0.153-0.793-0.391l-0.002-0.002c-0.161-0.157-0.34-0.297-0.534-0.416l-0.013-0.008-2.066-5.781 5.181-1.727zM6.765 21.358l-3.945 1.318 0.826-4.543h6.576l0.826 4.543-3.945-1.315c-0.050-0.017-0.108-0.027-0.169-0.027s-0.118 0.010-0.172 0.029l0.004-0.001zM10.581 30.117c-0.204 0.126-0.382 0.265-0.542 0.421l0.001-0.001c-0.185 0.238-0.471 0.39-0.793 0.39s-0.608-0.152-0.791-0.388l-0.002-0.002c-0.265-0.276-0.598-0.485-0.972-0.601l-0.016-0.004v-7.326l5.181 1.727z"></path>
<path d="M20.266 7.466h1.066v1.067h-1.066v-1.067z"></path>
</symbol>
<symbol id="icon-customs" viewBox="0 0 32 32">
<path d="M3.2 5.867h3.2c0.287-0.010 0.516-0.245 0.516-0.533s-0.229-0.523-0.515-0.533l-0.001-0h-3.2c-0.287 0.010-0.515 0.245-0.515 0.533s0.229 0.523 0.515 0.533l0.001 0z"></path>
<path d="M9.067 5.867h4.8c0.287-0.010 0.515-0.245 0.515-0.533s-0.229-0.523-0.515-0.533l-0.001-0h-4.8c-0.005-0-0.012-0-0.018-0-0.295 0-0.534 0.239-0.534 0.534s0.239 0.534 0.534 0.534c0.006 0 0.013-0 0.019-0l-0.001 0z"></path>
<path d="M3.2 11.733h17.067c0.294 0 0.533-0.239 0.533-0.533s-0.239-0.533-0.533-0.533v0h-17.067c-0.294 0-0.533 0.239-0.533 0.533s0.239 0.533 0.533 0.533v0z"></path>
<path d="M3.2 13.867h7.467c0.287-0.010 0.515-0.245 0.515-0.533s-0.229-0.523-0.515-0.533l-0.001-0h-7.467c-0.287 0.010-0.515 0.245-0.515 0.533s0.229 0.523 0.515 0.533l0.001 0z"></path>
<path d="M3.2 18.133h7.467c0.294 0 0.533-0.239 0.533-0.533s-0.239-0.533-0.533-0.533v0h-7.467c-0.294 0-0.533 0.239-0.533 0.533s0.239 0.533 0.533 0.533v0z"></path>
<path d="M3.2 22.4h7.467c0.287-0.010 0.515-0.245 0.515-0.533s-0.229-0.523-0.515-0.533l-0.001-0h-7.467c-0.287 0.010-0.515 0.245-0.515 0.533s0.229 0.523 0.515 0.533l0.001 0z"></path>
<path d="M3.2 26.667h7.467c0.287-0.010 0.515-0.245 0.515-0.533s-0.229-0.523-0.515-0.533l-0.001-0h-7.467c-0.287 0.010-0.515 0.245-0.515 0.533s0.229 0.523 0.515 0.533l0.001 0z"></path>
<path d="M31.68 15.536l-6.080-2.625v-11.311c0-0.884-0.716-1.6-1.6-1.6v0h-20.267c-0.884 0-1.6 0.716-1.6 1.6v0 0.533h-0.533c-0.884 0-1.6 0.716-1.6 1.6v0 26.667c0 0.884 0.716 1.6 1.6 1.6v0h20.267c0.449-0.001 0.854-0.188 1.143-0.486l0-0 0.438 0.313c0.153 0.11 0.345 0.176 0.552 0.176s0.399-0.066 0.555-0.178l-0.003 0.002 5.16-3.673c1.388-0.994 2.283-2.599 2.288-4.414v-7.713c0-0 0-0 0-0.001 0-0.217-0.13-0.404-0.317-0.487l-0.003-0.001zM3.2 1.6c0-0.294 0.239-0.533 0.533-0.533v0h20.267c0.294 0 0.533 0.239 0.533 0.533v0 10.849l-0.32-0.137c-0.062-0.028-0.135-0.044-0.211-0.044s-0.149 0.016-0.215 0.045l0.003-0.001-0.32 0.139v-3.384c-0.002-0.014-0.004-0.026-0.007-0.037l0.001 0.002c-0.003-0.048-0.012-0.093-0.027-0.135l0.001 0.004c-0.004-0.012-0.003-0.025-0.008-0.037s-0.009-0.011-0.011-0.018c-0.028-0.061-0.064-0.113-0.107-0.158l-6.4-6.398c-0.044-0.043-0.096-0.079-0.153-0.105l-0.003-0.001c-0.007 0-0.012-0.009-0.018-0.011s-0.024-0.004-0.036-0.008c-0.039-0.013-0.084-0.023-0.131-0.026l-0.002-0c-0.013-0-0.026-0.002-0.038-0.005l0.001 0h-13.333zM17.067 3.954l4.579 4.579h-4.046c-0.294 0-0.533-0.239-0.533-0.533v0zM21.867 30.933h-20.267c-0.294 0-0.533-0.239-0.533-0.533v0-26.667c0-0.294 0.239-0.533 0.533-0.533v0h14.4v4.8c0 0.884 0.716 1.6 1.6 1.6v0h4.8v3.313l-1.717 0.742c0.071-0.087 0.115-0.198 0.117-0.32v-0c0-0.294-0.239-0.533-0.533-0.533v0h-7.467c-0.287 0.010-0.515 0.245-0.515 0.533s0.229 0.523 0.515 0.533l0.001 0h7.388l-2.469 1.066h-14.518c-0.287 0.010-0.515 0.245-0.515 0.533s0.229 0.523 0.515 0.533l0.001 0h12.804c0 0.009-0.004 0.016-0.004 0.026v1.041h-3.2c-0.294 0-0.533 0.239-0.533 0.533s0.239 0.533 0.533 0.533v0h3.2v1.065h-12.8c-0.287 0.010-0.515 0.245-0.515 0.533s0.229 0.523 0.515 0.533l0.001 0h12.8v1.066h-3.2c-0.287 0.010-0.515 0.245-0.515 0.533s0.229 0.523 0.515 0.533l0.001 0h3.2v1.067h-12.8c-0.294 0-0.533 0.239-0.533 0.533s0.239 0.533 0.533 0.533v0h12.867c0.059 0.401 0.153 0.761 0.282 1.104l-0.012-0.037h-3.536c-0.287 0.010-0.515 0.245-0.515 0.533s0.229 0.523 0.515 0.533l0.001 0h4.075c0.262 0.404 0.558 0.754 0.893 1.063l0.004 0.003h-14.572c-0.287 0.010-0.515 0.245-0.515 0.533s0.229 0.523 0.515 0.533l0.001 0h16l2.906 2.068c-0.069 0.039-0.151 0.063-0.238 0.065h-0.001zM30.933 23.738c-0.005 1.458-0.725 2.746-1.826 3.535l-0.013 0.009-5.094 3.625-5.094-3.625c-1.115-0.797-1.834-2.086-1.839-3.542v-7.361l6.933-2.998 6.933 2.994z"></path>
<path d="M23.787 14.634l-5.334 2.303c-0.19 0.085-0.32 0.272-0.32 0.489v0 6.313c0.005 1.1 0.549 2.073 1.381 2.668l0.010 0.007 4.166 2.966c0.086 0.062 0.193 0.099 0.309 0.099s0.223-0.037 0.311-0.1l-0.002 0.001 4.166-2.966c0.842-0.602 1.386-1.574 1.391-2.674v-6.313c-0-0.218-0.13-0.405-0.317-0.488l-0.003-0.001-5.334-2.304c-0.063-0.028-0.136-0.044-0.212-0.044s-0.151 0.017-0.217 0.046l0.003-0.001zM28.8 17.781v5.957c-0.004 0.745-0.373 1.403-0.937 1.804l-0.007 0.005-3.856 2.742-3.856-2.746c-0.57-0.406-0.939-1.062-0.944-1.805v-5.961l4.8-2.073z"></path>
<path d="M21.12 22.507c-0.088-0.067-0.199-0.107-0.32-0.107-0.294 0-0.533 0.239-0.533 0.533 0 0.174 0.083 0.328 0.212 0.426l0.001 0.001 2.133 1.6c0.088 0.067 0.2 0.107 0.32 0.107 0.168 0 0.318-0.078 0.416-0.199l0.001-0.001 4.266-5.334c0.073-0.090 0.117-0.207 0.117-0.333 0-0.294-0.239-0.533-0.533-0.533-0.168 0-0.318 0.078-0.415 0.199l-0.001 0.001-3.944 4.93z"></path>
</symbol>
<symbol id="icon-insurance" viewBox="0 0 32 32">
<path d="M30.941 19.083l-3.273-1.455v-8.091c0.029-0.133 0.006-0.272-0.062-0.389v-0.025l-0.029-0.033c-0.038-0.054-0.084-0.101-0.138-0.138l-7.109-4.702-6.233-4.16c-0.090-0.059-0.196-0.090-0.304-0.090s-0.213 0.031-0.304 0.090l-13.164 8.785c-0.096 0.043-0.178 0.112-0.236 0.2-0.041 0.061-0.068 0.129-0.082 0.201s-0.011 0.146 0.005 0.217v12.269c-0.001 0.090 0.021 0.179 0.064 0.258s0.104 0.147 0.18 0.196l13.353 8.891c0.090 0.058 0.195 0.090 0.302 0.091 0.108-0.001 0.214-0.033 0.305-0.091l5.796-3.862c0.176 0.699 0.507 1.35 0.969 1.904s1.043 0.995 1.7 1.293l2.545 1.149c0.070 0.034 0.146 0.051 0.224 0.051s0.154-0.017 0.224-0.051l2.545-1.149c0.782-0.355 1.455-0.913 1.947-1.617s0.787-1.527 0.853-2.383l0.265-6.84c0.002-0.111-0.031-0.221-0.092-0.313s-0.15-0.165-0.253-0.207zM19.956 19.083c-0.1 0.045-0.184 0.118-0.243 0.21s-0.088 0.2-0.085 0.31l0.229 6.433-5.48 3.636v-11.080l12.182-8.124v6.702l-0.902-0.396c-0.069-0.031-0.144-0.046-0.22-0.046s-0.151 0.016-0.22 0.046l-5.262 2.309zM26.137 9.436l-12.24 8.167-6.022-4 12.182-8.215 6.080 4.047zM13.774 1.199l5.284 3.524-12.164 8.215-5.36-3.564 12.24-8.175zM1.105 10.396l12.182 8.109v11.076l-12.182-8.109v-11.076zM29.938 26.37c-0.053 0.662-0.284 1.297-0.668 1.838s-0.907 0.969-1.514 1.238l-2.287 1.051-2.327-1.051c-0.6-0.269-1.117-0.694-1.498-1.23s-0.61-1.165-0.666-1.82l-0.236-6.462 4.727-2.065 4.727 2.065-0.258 6.436z"></path>
</symbol>
</defs>
</svg>
