<svg width="108" height="60" viewBox="0 0 108 60" fill="none" xmlns="http://www.w3.org/2000/svg">
<path d="M4.13333 1.86662C3.06667 3.06662 2.66667 9.73329 2.93333 22.1333L3.33333 40.6666H36H68.6667L69.0667 22.1333C69.3333 9.73329 68.9333 3.06662 67.8667 1.86662C66.6667 0.399957 60.2667 -4.2811e-05 36 -4.2811e-05C11.7333 -4.2811e-05 5.33333 0.399957 4.13333 1.86662ZM51.6 28.9333C51.3333 33.8666 51.2 30.2666 51.2 20.6666C51.2 11.0666 51.3333 7.06662 51.6 11.6C51.8667 16.1333 51.8667 24 51.6 28.9333ZM13.3333 20.5333C13.3333 29.3333 12.8 36.1333 12 36.6666C11.2 37.2 10.6667 31.7333 10.6667 21.4666C10.6667 11.6 11.2 5.33329 12 5.33329C12.8 5.33329 13.3333 11.3333 13.3333 20.5333ZM22.6667 21.4666C22.6667 31.7333 22.1333 37.2 21.3333 36.6666C20.5333 36.1333 20 29.3333 20 20.5333C20 11.3333 20.5333 5.33329 21.3333 5.33329C22.1333 5.33329 22.6667 11.6 22.6667 21.4666ZM31.6 29.7333C31.3333 34.2666 31.2 30.5333 31.2 21.3333C31.2 12.1333 31.3333 8.39996 31.6 12.9333C31.8667 17.6 31.8667 25.0666 31.6 29.7333ZM42.6667 21.3333C42.6667 31.0666 42.1333 37.3333 41.3333 37.3333C40.5333 37.3333 40 31.0666 40 21.3333C40 11.6 40.5333 5.33329 41.3333 5.33329C42.1333 5.33329 42.6667 11.6 42.6667 21.3333ZM62.6667 20.5333C62.6667 29.3333 62.1333 36.1333 61.3333 36.6666C60.5333 37.2 60 31.7333 60 21.4666C60 11.6 60.5333 5.33329 61.3333 5.33329C62.1333 5.33329 62.6667 11.3333 62.6667 20.5333Z" fill="#282B47"/>
<path d="M72.9334 8.93329C72.4 9.33329 72 17.7333 72 27.6V45.3333H55.3334C38.9334 45.3333 38.6667 45.3333 40.2667 48C41.8667 50.4 43.4667 50.6666 59.6 50.6666C70.5334 50.6666 77.3334 50.1333 77.3334 49.3333C77.3334 46.5333 82.8 42.6666 86.8 42.6666C89.7334 42.6666 92.1334 43.8666 94.6667 46.6666C97.4667 49.7333 99.6 50.6666 103.2 50.6666C107.067 50.6666 108 50.1333 108 48C108 46.5333 107.067 45.3333 106 45.3333C104.4 45.3333 104 43.3333 104 35.6C104 26.8 103.6 25.3333 99.2 18.6666C96.5334 14.6666 93.3334 10.5333 92.2667 9.59996C90.1334 7.99996 74.4 7.33329 72.9334 8.93329ZM93.0667 19.3333C94.6667 21.8666 96 24.2666 96 24.6666C96 25.0666 92 25.3333 87.0667 25.0666L78 24.6666L77.6 19.6L77.2 14.6666H83.6C89.4667 14.6666 90.2667 15.0666 93.0667 19.3333Z" fill="#282B47"/>
<path d="M0 48C0 49.4666 0.4 50.6666 1.06667 50.6666C1.6 50.6666 2.8 49.4666 3.73333 48C5.2 45.6 5.06667 45.3333 2.66667 45.3333C0.933333 45.3333 0 46.2666 0 48Z" fill="#282B47"/>
<path d="M7.46667 47.4667C4.66667 50.2667 4.8 55.0667 7.73334 57.7333C10.9333 60.6667 15.0667 60.5333 17.7333 57.6C22.2667 52.6667 19.2 45.3333 12.6667 45.3333C10.9333 45.3333 8.53334 46.2667 7.46667 47.4667ZM15.7333 52.5333C15.4667 54.2667 14.4 55.3333 12.6667 55.3333C9.6 55.3333 8.26667 50.8 10.8 49.3333C13.4667 47.6 16.1333 49.4667 15.7333 52.5333Z" fill="#282B47"/>
<path d="M20.6667 46.6667C21.2 47.4667 22.1333 47.7333 22.8 47.3333C24.6667 46.1333 24.2667 45.3333 21.8667 45.3333C20.8 45.3333 20.2667 46 20.6667 46.6667Z" fill="#282B47"/>
<path d="M26.2667 47.7333C24.9333 49.0667 24 51.4667 24 53.0667C24 56 28.5333 60 32.1333 60C35.0667 60 38.6667 55.7333 38.6667 52.2667C38.6667 46 30.5333 43.0667 26.2667 47.7333ZM35.2 51.3333C36 53.7333 32.5333 56.5333 30 55.4667C27.6 54.5333 27.3333 49.7333 29.7333 48.9333C32 48.1333 34.2667 49.2 35.2 51.3333Z" fill="#282B47"/>
<path d="M81.6001 46.9334C79.3334 49.2 79.6001 55.4667 82.1334 57.8667C84.9334 60.8 88.8001 60.5333 92.0001 57.3334C95.2001 54.1334 95.3334 52.2667 92.5334 48.2667C90.2667 45.0667 84.2667 44.2667 81.6001 46.9334ZM89.3334 50C91.4667 52.5334 90.1334 56 86.8001 56C83.7334 56 82.1334 52.2667 84.1334 49.8667C86.1334 47.4667 87.3334 47.4667 89.3334 50Z" fill="#282B47"/>
</svg>
