<svg xmlns="http://www.w3.org/2000/svg" viewBox="0 0 512 271.51"><defs><style>.cls-1{fill:#68ceff;}</style></defs><title>Perevozki</title><g id="Layer_2" data-name="Layer 2"><g id="Capa_1" data-name="Capa 1"><path class="cls-1" d="M95.76,224.45h-.08a7.54,7.54,0,1,0,.08,0Z"/><path class="cls-1" d="M159.89,224.45h-.08a7.54,7.54,0,1,0,.08,0Z"/><path class="cls-1" d="M424.42,224.45h-.08a7.54,7.54,0,1,0,.08,0Z"/><path class="cls-1" d="M505.11,133.77,495,123.69,474.71,62.74a7.5,7.5,0,0,0-2.27-14.65H399.77V15.52A15.53,15.53,0,0,0,384.26,0H15.52A15.53,15.53,0,0,0,0,15.52V191.87a15.53,15.53,0,0,0,15.52,15.52h8.53v16.54a15.53,15.53,0,0,0,15.51,15.52H56.83a39.54,39.54,0,0,0,70.91,15.63,39.54,39.54,0,0,0,70.91-15.63H385.5a39.56,39.56,0,0,0,78.4-7.5c0-.18,0-.35,0-.52h32.59A15.53,15.53,0,0,0,512,215.92V150.41A23.4,23.4,0,0,0,505.11,133.77ZM56.83,224.45H39.56a.51.51,0,0,1-.51-.52V207.39H64.69A39.43,39.43,0,0,0,56.83,224.45Zm38.85,32.06a24.56,24.56,0,0,1-.16-49.12h.31a24.56,24.56,0,0,1-.15,49.12Zm64.13,0a24.56,24.56,0,0,1-.16-49.12H160a24.56,24.56,0,0,1-.15,49.12ZM385.5,224.45H198.65a39.43,39.43,0,0,0-7.86-17.06H336.16a7.5,7.5,0,0,0,0-15H15.52a.52.52,0,0,1-.52-.52V15.52a.52.52,0,0,1,.52-.52H384.26a.51.51,0,0,1,.51.52V192.39H368.23a7.5,7.5,0,0,0,0,15h25.12A39.3,39.3,0,0,0,385.5,224.45Zm95.23-96.2H432.36a.51.51,0,0,1-.52-.51V95.16H469.7ZM424.34,256.51a24.56,24.56,0,0,1-.15-49.12h.2a24.57,24.57,0,0,1-.05,49.13ZM497,215.92a.52.52,0,0,1-.52.52H460.73a39.62,39.62,0,0,0-36.39-24.06H399.77V63.61h0a.52.52,0,0,1,.52-.52H459l5.69,17.07H424.34a7.5,7.5,0,0,0-7.5,7.5v40.08a15.53,15.53,0,0,0,15.51,15.51h61l1.12,1.13a8.47,8.47,0,0,1,2.5,6v17.93h-8.53a7.5,7.5,0,0,0,0,15H497Z"/><path class="cls-1" d="M360.21,160.32H39.56a7.5,7.5,0,0,0,0,15H360.21a7.5,7.5,0,0,0,0-15Z"/></g></g></svg>