<svg width="209" height="256" viewBox="0 0 209 256" fill="none" xmlns="http://www.w3.org/2000/svg">
<path d="M196.11 234.12C191.076 228.712 184.322 225.217 177 224.23L207.55 138.69C207.904 137.699 208.059 136.648 208.006 135.598C207.953 134.547 207.693 133.517 207.242 132.567C206.79 131.617 206.156 130.765 205.375 130.06C204.594 129.355 203.681 128.812 202.69 128.46H202.54L183 121.91L167.85 38.57C167.516 36.7301 166.547 35.0654 165.113 33.8651C163.679 32.6649 161.87 32.0049 160 32H128V8C128 5.87827 127.157 3.84343 125.657 2.34314C124.157 0.842849 122.122 0 120 0H88C85.8783 0 83.8434 0.842849 82.3431 2.34314C80.8429 3.84343 80 5.87827 80 8V32H48C46.1265 32.0003 44.3125 32.6581 42.8743 33.8587C41.4361 35.0593 40.4649 36.7267 40.13 38.57L25 121.91L5.49 128.41C3.48323 129.093 1.82951 130.544 0.89203 132.445C-0.0454496 134.347 -0.190045 136.542 0.49 138.55C0.487298 138.597 0.487298 138.643 0.49 138.69L31 224.23C23.6901 225.229 16.9497 228.722 11.92 234.12C10.4906 235.92 8.68043 237.38 6.61942 238.397C4.55842 239.413 2.29779 239.961 0 240L0 256C4.2885 255.977 8.52575 255.066 12.4447 253.324C16.3636 251.583 19.8793 249.048 22.77 245.88C24.199 244.078 26.0105 242.615 28.0737 241.598C30.1368 240.581 32.4001 240.035 34.7 240C36.3903 239.989 38.0672 240.301 39.64 240.92C39.71 240.92 39.75 241.01 39.82 241.04C42.3294 242.303 44.608 243.98 46.56 246C49.4836 249.137 53.0181 251.642 56.946 253.362C60.8739 255.081 65.1122 255.979 69.4 256C73.6866 255.974 77.9216 255.062 81.8385 253.321C85.7555 251.579 89.2696 249.046 92.16 245.88C94.5781 242.73 98.1466 240.667 102.083 240.144C106.02 239.621 110.003 240.68 113.16 243.09C114.211 243.891 115.149 244.829 115.95 245.88C118.838 249.049 122.351 251.585 126.269 253.326C130.186 255.068 134.423 255.979 138.71 256C142.995 255.98 147.231 255.083 151.155 253.363C155.08 251.643 158.611 249.137 161.53 246C163.466 244 165.724 242.34 168.21 241.09C168.28 241.09 168.33 240.99 168.4 240.96C169.974 240.333 171.655 240.017 173.35 240.03C175.645 240.067 177.904 240.614 179.962 241.631C182.02 242.648 183.826 244.109 185.25 245.91C188.139 249.072 191.652 251.602 195.568 253.338C199.484 255.075 203.717 255.981 208 256V240C205.706 239.963 203.449 239.416 201.393 238.399C199.336 237.382 197.532 235.92 196.11 234.12ZM96 16H112V32H96V16ZM96 225C90.4116 226.73 85.356 229.855 81.31 234.08C79.91 235.913 78.1062 237.398 76.0389 238.42C73.9715 239.443 71.6963 239.974 69.39 239.974C67.0837 239.974 64.8085 239.443 62.7411 238.42C60.6738 237.398 58.87 235.913 57.47 234.08C54.9878 231.655 52.2366 229.521 49.27 227.72L18.28 141L96 115.1V225ZM101.47 96.37L42.29 116.14L54.68 48H153.32L165.71 116.14L106.53 96.41C104.888 95.8625 103.112 95.8625 101.47 96.41V96.37ZM158.72 227.77C155.784 229.56 153.06 231.677 150.6 234.08C149.199 235.902 147.398 237.377 145.337 238.392C143.275 239.407 141.008 239.935 138.71 239.935C136.412 239.935 134.145 239.407 132.083 238.392C130.022 237.377 128.221 235.902 126.82 234.08C122.742 229.83 117.638 226.703 112 225V115.1L189.72 141L158.72 227.77Z" fill="#68CEFF"/>
</svg>
