<svg width="112" height="66" viewBox="0 0 112 66" fill="none" xmlns="http://www.w3.org/2000/svg">
<path d="M88.6667 4.66671V9.33337H80C71.6 9.33337 71.3334 9.46671 71.3334 12.6667C71.3334 14.8 70.5334 16 69.3334 16C68.2667 16 67.3334 16.5334 67.3334 17.3334C67.3334 18 68.2667 18.6667 69.3334 18.6667C70.6667 18.6667 71.3334 20 71.3334 22.6667C71.3334 26.4 71.7334 26.6667 76 26.6667C80.1334 26.6667 80.6667 27.0667 80.6667 30C80.6667 33.2 80.9334 33.3334 90.6667 33.3334H100.667V26C100.667 20.4 101.067 18.6667 102.667 18.6667C103.733 18.6667 104.667 18 104.667 17.3334C104.667 16.5334 103.733 16 102.667 16C101.467 16 100.667 14.8 100.667 12.6667C100.667 9.86671 100 9.33337 96.6667 9.33337C92.9334 9.33337 92.6667 8.93337 92.6667 4.66671C92.6667 1.46671 92 3.89516e-05 90.6667 3.89516e-05C89.3334 3.89516e-05 88.6667 1.46671 88.6667 4.66671ZM79.3334 13.3334C79.3334 14 78.4 14.6667 77.3334 14.6667C76.2667 14.6667 75.3334 14 75.3334 13.3334C75.3334 12.5334 76.2667 12 77.3334 12C78.4 12 79.3334 12.5334 79.3334 13.3334ZM88.6667 13.3334C88.6667 14 87.7334 14.6667 86.6667 14.6667C85.6 14.6667 84.6667 14 84.6667 13.3334C84.6667 12.5334 85.6 12 86.6667 12C87.7334 12 88.6667 12.5334 88.6667 13.3334ZM98 13.3334C98 14 97.0667 14.6667 96 14.6667C94.9334 14.6667 94 14 94 13.3334C94 12.5334 94.9334 12 96 12C97.0667 12 98 12.5334 98 13.3334Z" fill="#282B47"/>
<path d="M14 14C14 17.0667 14.4 17.3334 20.6667 17.3334C26.9333 17.3334 27.3333 17.0667 27.3333 14C27.3333 10.9334 26.9333 10.6667 20.6667 10.6667C14.4 10.6667 14 10.9334 14 14Z" fill="#282B47"/>
<path d="M31.3334 14C31.3334 17.0667 31.7334 17.3334 38 17.3334C44.2667 17.3334 44.6667 17.0667 44.6667 14C44.6667 10.9334 44.2667 10.6667 38 10.6667C31.7334 10.6667 31.3334 10.9334 31.3334 14Z" fill="#282B47"/>
<path d="M14 22.6667C14 24.9334 14.9333 25.3334 20.6667 25.3334C26.4 25.3334 27.3333 24.9334 27.3333 22.6667C27.3333 20.4 26.4 20 20.6667 20C14.9333 20 14 20.4 14 22.6667Z" fill="#282B47"/>
<path d="M31.3334 22.6667C31.3334 24.9334 32.2667 25.3334 38 25.3334C43.7334 25.3334 44.6667 24.9334 44.6667 22.6667C44.6667 20.4 43.7334 20 38 20C32.2667 20 31.3334 20.4 31.3334 22.6667Z" fill="#282B47"/>
<path d="M47.3334 22.6667C47.3334 25.0667 48.2667 25.3334 54.6667 25.3334C61.0667 25.3334 62 25.0667 62 22.6667C62 20.2667 61.0667 20 54.6667 20C48.2667 20 47.3334 20.2667 47.3334 22.6667Z" fill="#282B47"/>
<path d="M14 30.6667C14 32.9334 14.9333 33.3334 20.6667 33.3334C26.4 33.3334 27.3333 32.9334 27.3333 30.6667C27.3333 28.4 26.4 28 20.6667 28C14.9333 28 14 28.4 14 30.6667Z" fill="#282B47"/>
<path d="M31.3334 30.6667C31.3334 32.9334 32.2667 33.3334 38 33.3334C43.7334 33.3334 44.6667 32.9334 44.6667 30.6667C44.6667 28.4 43.7334 28 38 28C32.2667 28 31.3334 28.4 31.3334 30.6667Z" fill="#282B47"/>
<path d="M47.3334 30.6667C47.3334 33.0667 48.2667 33.3334 54.6667 33.3334C61.0667 33.3334 62 33.0667 62 30.6667C62 28.2667 61.0667 28 54.6667 28C48.2667 28 47.3334 28.2667 47.3334 30.6667Z" fill="#282B47"/>
<path d="M64.6667 30.6667C64.6667 32.9334 65.6 33.3334 71.3334 33.3334C77.0667 33.3334 78 32.9334 78 30.6667C78 28.4 77.0667 28 71.3334 28C65.6 28 64.6667 28.4 64.6667 30.6667Z" fill="#282B47"/>
<path d="M6 37.8667C6 38.8001 7.46667 43.0667 9.33333 47.2001C12.4 54.2667 12.8 54.5334 16.6667 53.7334C18.9333 53.3334 28.1333 53.7334 37.2 54.6667C52 56.2667 55.0667 56.1334 67.6 54.0001C79.6 52.0001 93.4667 51.8667 100.133 53.7334C101.333 54.1334 107.333 38.5334 106.533 37.2001C106.133 36.5334 83.3333 36.0001 55.8667 36.0001C14.4 36.0001 6 36.2667 6 37.8667Z" fill="#282B47"/>
<path d="M69.3333 56.9334C62.2667 58.4001 56.1333 58.5334 44.6667 57.8667C15.3333 56.0001 0 57.8667 0 63.3334C0 66.2667 1.86667 66.4001 16.2667 64.2667C20.8 63.7334 27.7333 63.6001 31.6 64.1334C43.6 65.8667 60.5333 65.4667 72.5333 63.2001C83.3333 61.0667 84.8 61.2001 96.4 63.3334C105.867 65.2001 109.067 65.4667 110.267 64.2667C113.067 61.4667 108.667 58.9334 96.8 56.8001C83.7333 54.2667 81.6 54.2667 69.3333 56.9334Z" fill="#282B47"/>
</svg>
